<mxfile host="app.diagrams.net" agent="Mozilla/5.0 (Windows NT 10.0; Win64; x64) AppleWebKit/537.36 (KHTML, like Gecko) Chrome/131.0.0.0 Safari/537.36" version="24.9.3" pages="3">
  <diagram name="Perancangan Sistem" id="90a13364-a465-7bf4-72fc-28e22215d7a0">
    <mxGraphModel grid="1" page="1" gridSize="10" guides="1" tooltips="1" connect="1" arrows="1" fold="1" pageScale="1.5" pageWidth="1169" pageHeight="826" background="none" math="0" shadow="0">
      <root>
        <mxCell id="0" style=";html=1;" />
        <mxCell id="1" style=";html=1;" parent="0" />
        <mxCell id="DkQCqnBPB0JT4gS67bYG-27" value="" style="rounded=0;whiteSpace=wrap;html=1;dashed=1;fillColor=#FFFFFF;strokeColor=#000000;strokeWidth=1;dashPattern=12 12;" vertex="1" parent="1">
          <mxGeometry x="510" y="713" width="630" height="267" as="geometry" />
        </mxCell>
        <mxCell id="DkQCqnBPB0JT4gS67bYG-28" value="" style="rounded=0;whiteSpace=wrap;html=1;dashed=1;dashPattern=12 12;fillColor=#FFFFFF;" vertex="1" parent="1">
          <mxGeometry x="510" y="400" width="630" height="290" as="geometry" />
        </mxCell>
        <mxCell id="3a17f1ce550125da-15" style="edgeStyle=elbowEdgeStyle;rounded=0;html=1;startArrow=none;startFill=0;jettySize=auto;orthogonalLoop=1;fontSize=18;elbow=vertical;" edge="1" parent="1" source="3a17f1ce550125da-2" target="3a17f1ce550125da-6">
          <mxGeometry relative="1" as="geometry" />
        </mxCell>
        <mxCell id="3a17f1ce550125da-2" value="&lt;b&gt;ESP8266&lt;/b&gt;" style="whiteSpace=wrap;html=1;shadow=1;fontSize=18;fillColor=#f5f5f5;strokeColor=#666666;" vertex="1" parent="1">
          <mxGeometry x="753.5" y="585" width="147" height="74" as="geometry" />
        </mxCell>
        <mxCell id="DkQCqnBPB0JT4gS67bYG-31" style="edgeStyle=orthogonalEdgeStyle;rounded=0;orthogonalLoop=1;jettySize=auto;html=1;exitX=1;exitY=0.5;exitDx=0;exitDy=0;entryX=1;entryY=0.5;entryDx=0;entryDy=0;" edge="1" parent="1" source="3a17f1ce550125da-6" target="DkQCqnBPB0JT4gS67bYG-17">
          <mxGeometry relative="1" as="geometry">
            <mxPoint x="1120" y="629" as="sourcePoint" />
            <mxPoint x="1120" y="1009" as="targetPoint" />
            <Array as="points">
              <mxPoint x="1170" y="629" />
              <mxPoint x="1170" y="930" />
            </Array>
          </mxGeometry>
        </mxCell>
        <mxCell id="DkQCqnBPB0JT4gS67bYG-33" value="&lt;b style=&quot;font-size: 15px;&quot;&gt;&lt;font style=&quot;font-size: 15px;&quot;&gt;ESP-NOW&lt;/font&gt;&lt;/b&gt;" style="edgeLabel;html=1;align=center;verticalAlign=middle;resizable=0;points=[];rotation=90;fontSize=15;" connectable="0" vertex="1" parent="DkQCqnBPB0JT4gS67bYG-31">
          <mxGeometry x="-0.0842" y="1" relative="1" as="geometry">
            <mxPoint y="18" as="offset" />
          </mxGeometry>
        </mxCell>
        <mxCell id="3a17f1ce550125da-6" value="Data Terenkripsi" style="whiteSpace=wrap;html=1;shadow=1;fontSize=18;fillColor=#f5f5f5;strokeColor=#666666;fontStyle=1" vertex="1" parent="1">
          <mxGeometry x="990" y="599" width="120" height="60" as="geometry" />
        </mxCell>
        <mxCell id="DkQCqnBPB0JT4gS67bYG-2" style="edgeStyle=orthogonalEdgeStyle;rounded=0;orthogonalLoop=1;jettySize=auto;html=1;entryX=0;entryY=0.5;entryDx=0;entryDy=0;exitX=1;exitY=0.5;exitDx=0;exitDy=0;" edge="1" parent="1" source="3a17f1ce550125da-11" target="3a17f1ce550125da-2">
          <mxGeometry relative="1" as="geometry">
            <mxPoint x="640" y="622" as="sourcePoint" />
          </mxGeometry>
        </mxCell>
        <mxCell id="3a17f1ce550125da-11" value="&lt;b&gt;Sensor&lt;/b&gt;&lt;div&gt;&lt;b&gt;DHT22&lt;/b&gt;&lt;/div&gt;" style="whiteSpace=wrap;html=1;shadow=1;fontSize=18;fillColor=#f5f5f5;strokeColor=#666666;" vertex="1" parent="1">
          <mxGeometry x="540" y="592" width="120" height="60" as="geometry" />
        </mxCell>
        <mxCell id="DkQCqnBPB0JT4gS67bYG-4" value="" style="edgeStyle=orthogonalEdgeStyle;rounded=0;orthogonalLoop=1;jettySize=auto;html=1;" edge="1" parent="1" source="DkQCqnBPB0JT4gS67bYG-3" target="3a17f1ce550125da-11">
          <mxGeometry relative="1" as="geometry" />
        </mxCell>
        <mxCell id="DkQCqnBPB0JT4gS67bYG-3" value="&lt;b&gt;Data Lingkungan&lt;/b&gt;" style="whiteSpace=wrap;html=1;shadow=1;fontSize=18;fillColor=#f5f5f5;strokeColor=#666666;" vertex="1" parent="1">
          <mxGeometry x="540" y="470" width="120" height="60" as="geometry" />
        </mxCell>
        <mxCell id="DkQCqnBPB0JT4gS67bYG-14" style="edgeStyle=elbowEdgeStyle;rounded=0;html=1;startArrow=classic;startFill=1;jettySize=auto;orthogonalLoop=1;fontSize=18;elbow=vertical;endArrow=none;endFill=0;" edge="1" parent="1" source="DkQCqnBPB0JT4gS67bYG-15" target="DkQCqnBPB0JT4gS67bYG-17">
          <mxGeometry relative="1" as="geometry" />
        </mxCell>
        <mxCell id="DkQCqnBPB0JT4gS67bYG-15" value="&lt;b&gt;ESP8266&lt;/b&gt;" style="whiteSpace=wrap;html=1;shadow=1;fontSize=18;fillColor=#f5f5f5;strokeColor=#666666;" vertex="1" parent="1">
          <mxGeometry x="753.5" y="885" width="147" height="74" as="geometry" />
        </mxCell>
        <mxCell id="xxWwji4OysaSQcx-6Qzv-5" value="" style="edgeStyle=orthogonalEdgeStyle;rounded=0;orthogonalLoop=1;jettySize=auto;html=1;startArrow=classic;startFill=1;" edge="1" parent="1" source="DkQCqnBPB0JT4gS67bYG-16" target="DkQCqnBPB0JT4gS67bYG-15">
          <mxGeometry relative="1" as="geometry" />
        </mxCell>
        <mxCell id="DkQCqnBPB0JT4gS67bYG-16" value="&lt;b&gt;Modul&lt;/b&gt;&lt;div&gt;&lt;b&gt;SD-CARD&lt;/b&gt;&lt;/div&gt;" style="whiteSpace=wrap;html=1;shadow=1;fontSize=18;fillColor=#f5f5f5;strokeColor=#666666;" vertex="1" parent="1">
          <mxGeometry x="767" y="770" width="120" height="60" as="geometry" />
        </mxCell>
        <mxCell id="DkQCqnBPB0JT4gS67bYG-17" value="Data Terenkripsi" style="whiteSpace=wrap;html=1;shadow=1;fontSize=18;fillColor=#f5f5f5;strokeColor=#666666;fontStyle=1" vertex="1" parent="1">
          <mxGeometry x="990" y="899" width="120" height="60" as="geometry" />
        </mxCell>
        <mxCell id="DkQCqnBPB0JT4gS67bYG-18" style="edgeStyle=orthogonalEdgeStyle;rounded=0;orthogonalLoop=1;jettySize=auto;html=1;entryX=0;entryY=0.5;entryDx=0;entryDy=0;exitX=1;exitY=0.5;exitDx=0;exitDy=0;startArrow=classic;startFill=1;endArrow=none;endFill=0;" edge="1" parent="1" source="DkQCqnBPB0JT4gS67bYG-19" target="DkQCqnBPB0JT4gS67bYG-15">
          <mxGeometry relative="1" as="geometry">
            <mxPoint x="640" y="922" as="sourcePoint" />
          </mxGeometry>
        </mxCell>
        <mxCell id="DkQCqnBPB0JT4gS67bYG-19" value="&lt;b&gt;Data Lingkungan&lt;/b&gt;" style="whiteSpace=wrap;html=1;shadow=1;fontSize=18;fillColor=#f5f5f5;strokeColor=#666666;" vertex="1" parent="1">
          <mxGeometry x="540" y="892" width="120" height="60" as="geometry" />
        </mxCell>
        <mxCell id="DkQCqnBPB0JT4gS67bYG-29" value="&lt;span style=&quot;font-size: 18px;&quot;&gt;&lt;b&gt;Node Pengirim&lt;/b&gt;&lt;/span&gt;" style="text;whiteSpace=wrap;html=1;align=center;" vertex="1" parent="1">
          <mxGeometry x="759.5" y="410" width="133" height="40" as="geometry" />
        </mxCell>
        <mxCell id="DkQCqnBPB0JT4gS67bYG-32" value="&lt;span style=&quot;font-size: 18px;&quot;&gt;&lt;b&gt;Node Penerima&lt;/b&gt;&lt;/span&gt;" style="text;whiteSpace=wrap;html=1;align=center;" vertex="1" parent="1">
          <mxGeometry x="744.25" y="723" width="161.5" height="40" as="geometry" />
        </mxCell>
        <mxCell id="oCcnsVqwMKiJ__J0B-uE-1" value="" style="rounded=0;whiteSpace=wrap;html=1;dashed=1;dashPattern=12 12;" vertex="1" parent="1">
          <mxGeometry x="1520" y="450" width="600" height="220" as="geometry" />
        </mxCell>
        <mxCell id="oCcnsVqwMKiJ__J0B-uE-4" style="edgeStyle=elbowEdgeStyle;rounded=0;html=1;startArrow=none;startFill=0;jettySize=auto;orthogonalLoop=1;fontSize=18;elbow=vertical;" edge="1" parent="1" source="oCcnsVqwMKiJ__J0B-uE-5" target="oCcnsVqwMKiJ__J0B-uE-7">
          <mxGeometry relative="1" as="geometry" />
        </mxCell>
        <mxCell id="oCcnsVqwMKiJ__J0B-uE-5" value="&lt;b&gt;ESP32&lt;/b&gt;" style="whiteSpace=wrap;html=1;shadow=1;fontSize=18;fillColor=#f5f5f5;strokeColor=#666666;" vertex="1" parent="1">
          <mxGeometry x="1748.5" y="580" width="147" height="74" as="geometry" />
        </mxCell>
        <mxCell id="oCcnsVqwMKiJ__J0B-uE-7" value="&lt;font style=&quot;font-size: 17px;&quot;&gt;Data Penggunaan Daya&lt;/font&gt;" style="whiteSpace=wrap;html=1;shadow=1;fontSize=18;fillColor=#f5f5f5;strokeColor=#666666;fontStyle=1;align=center;" vertex="1" parent="1">
          <mxGeometry x="1985" y="560" width="120" height="94" as="geometry" />
        </mxCell>
        <mxCell id="oCcnsVqwMKiJ__J0B-uE-8" style="edgeStyle=orthogonalEdgeStyle;rounded=0;orthogonalLoop=1;jettySize=auto;html=1;entryX=0;entryY=0.5;entryDx=0;entryDy=0;exitX=1;exitY=0.5;exitDx=0;exitDy=0;" edge="1" parent="1" source="oCcnsVqwMKiJ__J0B-uE-9" target="oCcnsVqwMKiJ__J0B-uE-5">
          <mxGeometry relative="1" as="geometry">
            <mxPoint x="1635" y="617" as="sourcePoint" />
          </mxGeometry>
        </mxCell>
        <mxCell id="oCcnsVqwMKiJ__J0B-uE-9" value="&lt;b&gt;Sensor&lt;/b&gt;&lt;div&gt;&lt;b&gt;INA219&lt;/b&gt;&lt;/div&gt;" style="whiteSpace=wrap;html=1;shadow=1;fontSize=18;fillColor=#f5f5f5;strokeColor=#666666;" vertex="1" parent="1">
          <mxGeometry x="1535" y="587" width="120" height="60" as="geometry" />
        </mxCell>
        <mxCell id="oCcnsVqwMKiJ__J0B-uE-10" value="" style="edgeStyle=orthogonalEdgeStyle;rounded=0;orthogonalLoop=1;jettySize=auto;html=1;" edge="1" parent="1" source="oCcnsVqwMKiJ__J0B-uE-11" target="oCcnsVqwMKiJ__J0B-uE-9">
          <mxGeometry relative="1" as="geometry" />
        </mxCell>
        <mxCell id="oCcnsVqwMKiJ__J0B-uE-11" value="&lt;b&gt;Node Sensor&lt;/b&gt;" style="whiteSpace=wrap;html=1;shadow=1;fontSize=18;fillColor=#f5f5f5;strokeColor=#666666;" vertex="1" parent="1">
          <mxGeometry x="1535" y="465" width="120" height="60" as="geometry" />
        </mxCell>
        <mxCell id="xxWwji4OysaSQcx-6Qzv-6" value="" style="edgeStyle=orthogonalEdgeStyle;rounded=0;orthogonalLoop=1;jettySize=auto;html=1;startArrow=classic;startFill=1;" edge="1" parent="1" source="xxWwji4OysaSQcx-6Qzv-3" target="3a17f1ce550125da-2">
          <mxGeometry relative="1" as="geometry" />
        </mxCell>
        <mxCell id="xxWwji4OysaSQcx-6Qzv-3" value="&lt;b&gt;Sistem&amp;nbsp;&lt;/b&gt;&lt;div&gt;&lt;b&gt;Pengukur Daya&lt;/b&gt;&lt;/div&gt;" style="whiteSpace=wrap;html=1;shadow=1;fontSize=18;fillColor=#f5f5f5;strokeColor=#666666;" vertex="1" parent="1">
          <mxGeometry x="759.5" y="470" width="135" height="70" as="geometry" />
        </mxCell>
      </root>
    </mxGraphModel>
  </diagram>
  <diagram id="Ar5x5FDs2ulQJs1Tgeew" name="Flowchart Sistem Perangkat Lunak">
    <mxGraphModel grid="1" page="1" gridSize="10" guides="1" tooltips="1" connect="1" arrows="1" fold="1" pageScale="1" pageWidth="900" pageHeight="1600" math="0" shadow="0">
      <root>
        <mxCell id="0" />
        <mxCell id="1" parent="0" />
        <mxCell id="2D5RlCn2T64UEh8A8CTR-3" value="" style="edgeStyle=orthogonalEdgeStyle;rounded=0;orthogonalLoop=1;jettySize=auto;html=1;entryX=0.5;entryY=0;entryDx=0;entryDy=0;fontSize=15;fontStyle=1" edge="1" parent="1" source="2D5RlCn2T64UEh8A8CTR-1" target="2D5RlCn2T64UEh8A8CTR-4">
          <mxGeometry relative="1" as="geometry">
            <mxPoint x="440.31" y="180" as="targetPoint" />
          </mxGeometry>
        </mxCell>
        <mxCell id="2D5RlCn2T64UEh8A8CTR-1" value="Start" style="strokeWidth=2;html=1;shape=mxgraph.flowchart.terminator;whiteSpace=wrap;fontSize=15;fontStyle=1" vertex="1" parent="1">
          <mxGeometry x="390.31" y="40" width="100" height="60" as="geometry" />
        </mxCell>
        <mxCell id="2D5RlCn2T64UEh8A8CTR-7" value="" style="edgeStyle=orthogonalEdgeStyle;rounded=0;orthogonalLoop=1;jettySize=auto;html=1;fontSize=15;fontStyle=1" edge="1" parent="1" source="2D5RlCn2T64UEh8A8CTR-4" target="2D5RlCn2T64UEh8A8CTR-6">
          <mxGeometry relative="1" as="geometry" />
        </mxCell>
        <mxCell id="2D5RlCn2T64UEh8A8CTR-4" value="Data&lt;div&gt;Sensor&lt;/div&gt;" style="shape=parallelogram;html=1;strokeWidth=2;perimeter=parallelogramPerimeter;whiteSpace=wrap;rounded=0;arcSize=12;size=0.23;fontSize=15;fontStyle=1" vertex="1" parent="1">
          <mxGeometry x="365.31" y="150" width="150" height="80" as="geometry" />
        </mxCell>
        <mxCell id="2D5RlCn2T64UEh8A8CTR-9" value="" style="edgeStyle=orthogonalEdgeStyle;rounded=0;orthogonalLoop=1;jettySize=auto;html=1;fontSize=15;fontStyle=1" edge="1" parent="1" source="2D5RlCn2T64UEh8A8CTR-6" target="2D5RlCn2T64UEh8A8CTR-8">
          <mxGeometry relative="1" as="geometry" />
        </mxCell>
        <mxCell id="2D5RlCn2T64UEh8A8CTR-6" value="Enkripsi Data" style="whiteSpace=wrap;html=1;strokeWidth=2;rounded=0;arcSize=12;fontSize=15;fontStyle=1" vertex="1" parent="1">
          <mxGeometry x="380.31" y="280" width="120" height="60" as="geometry" />
        </mxCell>
        <mxCell id="2D5RlCn2T64UEh8A8CTR-13" value="" style="edgeStyle=orthogonalEdgeStyle;rounded=0;orthogonalLoop=1;jettySize=auto;html=1;fontSize=15;fontStyle=1" edge="1" parent="1" source="2D5RlCn2T64UEh8A8CTR-8" target="2D5RlCn2T64UEh8A8CTR-12">
          <mxGeometry relative="1" as="geometry" />
        </mxCell>
        <mxCell id="ljyrQZLeN5WYpzkp9Qmc-1" style="edgeStyle=orthogonalEdgeStyle;rounded=0;orthogonalLoop=1;jettySize=auto;html=1;entryX=0.5;entryY=0;entryDx=0;entryDy=0;" edge="1" parent="1" source="2D5RlCn2T64UEh8A8CTR-8" target="2D5RlCn2T64UEh8A8CTR-10">
          <mxGeometry relative="1" as="geometry" />
        </mxCell>
        <mxCell id="2D5RlCn2T64UEh8A8CTR-8" value="&lt;div&gt;&lt;span style=&quot;background-color: initial;&quot;&gt;Data Melebihi&amp;nbsp;&lt;/span&gt;&lt;/div&gt;&lt;div&gt;Payload ESP-NOW?&lt;/div&gt;" style="rhombus;whiteSpace=wrap;html=1;strokeWidth=2;rounded=0;arcSize=12;fontSize=15;fontStyle=1" vertex="1" parent="1">
          <mxGeometry x="350" y="390" width="180.62" height="170" as="geometry" />
        </mxCell>
        <mxCell id="2D5RlCn2T64UEh8A8CTR-16" value="" style="edgeStyle=orthogonalEdgeStyle;rounded=0;orthogonalLoop=1;jettySize=auto;html=1;entryX=0.49;entryY=0.034;entryDx=0;entryDy=0;entryPerimeter=0;fontSize=15;fontStyle=1" edge="1" parent="1" source="2D5RlCn2T64UEh8A8CTR-10" target="2D5RlCn2T64UEh8A8CTR-17">
          <mxGeometry relative="1" as="geometry">
            <mxPoint x="439.0550000000001" y="730" as="targetPoint" />
          </mxGeometry>
        </mxCell>
        <mxCell id="2D5RlCn2T64UEh8A8CTR-10" value="Mengirim Data ke Node Dekriptor" style="whiteSpace=wrap;html=1;strokeWidth=2;rounded=0;arcSize=12;fontSize=15;fontStyle=1" vertex="1" parent="1">
          <mxGeometry x="380.305" y="600" width="120" height="60" as="geometry" />
        </mxCell>
        <mxCell id="2D5RlCn2T64UEh8A8CTR-14" style="edgeStyle=orthogonalEdgeStyle;rounded=0;orthogonalLoop=1;jettySize=auto;html=1;entryX=1;entryY=0.5;entryDx=0;entryDy=0;fontSize=15;fontStyle=1" edge="1" parent="1" source="2D5RlCn2T64UEh8A8CTR-12" target="2D5RlCn2T64UEh8A8CTR-10">
          <mxGeometry relative="1" as="geometry">
            <Array as="points">
              <mxPoint x="640" y="630" />
            </Array>
          </mxGeometry>
        </mxCell>
        <mxCell id="2D5RlCn2T64UEh8A8CTR-12" value="Fragmentasi Data&lt;div&gt;Sesuai Batas Payload&lt;/div&gt;" style="whiteSpace=wrap;html=1;strokeWidth=2;rounded=0;arcSize=12;fontSize=15;fontStyle=1" vertex="1" parent="1">
          <mxGeometry x="577.1899999999999" y="442.5" width="130" height="65" as="geometry" />
        </mxCell>
        <mxCell id="2D5RlCn2T64UEh8A8CTR-20" value="" style="edgeStyle=orthogonalEdgeStyle;rounded=0;orthogonalLoop=1;jettySize=auto;html=1;fontSize=15;fontStyle=1" edge="1" parent="1" source="2D5RlCn2T64UEh8A8CTR-17" target="2D5RlCn2T64UEh8A8CTR-19">
          <mxGeometry relative="1" as="geometry" />
        </mxCell>
        <mxCell id="Il1U52tKwYIOMvdCOUBF-2" value="" style="edgeStyle=orthogonalEdgeStyle;rounded=0;orthogonalLoop=1;jettySize=auto;html=1;" edge="1" parent="1" source="2D5RlCn2T64UEh8A8CTR-17" target="Il1U52tKwYIOMvdCOUBF-1">
          <mxGeometry relative="1" as="geometry" />
        </mxCell>
        <mxCell id="2D5RlCn2T64UEh8A8CTR-17" value="&lt;div&gt;Node Dekriptor&lt;/div&gt;&lt;div&gt;&amp;nbsp;Menerima Data?&lt;/div&gt;" style="rhombus;whiteSpace=wrap;html=1;strokeWidth=2;rounded=0;arcSize=12;fontSize=15;fontStyle=1" vertex="1" parent="1">
          <mxGeometry x="365.31" y="720" width="151.25" height="130" as="geometry" />
        </mxCell>
        <mxCell id="2D5RlCn2T64UEh8A8CTR-19" value="End" style="strokeWidth=2;html=1;shape=mxgraph.flowchart.terminator;whiteSpace=wrap;fontSize=15;fontStyle=1" vertex="1" parent="1">
          <mxGeometry x="390.94" y="900" width="100" height="60" as="geometry" />
        </mxCell>
        <mxCell id="2D5RlCn2T64UEh8A8CTR-21" value="Yes" style="text;html=1;align=center;verticalAlign=middle;whiteSpace=wrap;rounded=0;fontSize=15;fontStyle=1" vertex="1" parent="1">
          <mxGeometry x="439.06" y="860" width="30" height="20" as="geometry" />
        </mxCell>
        <mxCell id="2D5RlCn2T64UEh8A8CTR-22" value="No" style="text;html=1;align=center;verticalAlign=middle;whiteSpace=wrap;rounded=0;fontSize=15;fontStyle=1" vertex="1" parent="1">
          <mxGeometry x="329.06" y="760" width="30" height="20" as="geometry" />
        </mxCell>
        <mxCell id="2D5RlCn2T64UEh8A8CTR-23" value="Yes" style="text;html=1;align=center;verticalAlign=middle;whiteSpace=wrap;rounded=0;fontSize=15;fontStyle=1" vertex="1" parent="1">
          <mxGeometry x="530.62" y="460" width="20" height="10" as="geometry" />
        </mxCell>
        <mxCell id="2D5RlCn2T64UEh8A8CTR-24" value="No" style="text;html=1;align=center;verticalAlign=middle;whiteSpace=wrap;rounded=0;fontSize=15;fontStyle=1" vertex="1" parent="1">
          <mxGeometry x="444.05999999999995" y="570" width="20" height="10" as="geometry" />
        </mxCell>
        <mxCell id="2D5RlCn2T64UEh8A8CTR-51" value="" style="edgeStyle=orthogonalEdgeStyle;rounded=0;orthogonalLoop=1;jettySize=auto;html=1;fontSize=16;fontStyle=1" edge="1" parent="1" source="2D5RlCn2T64UEh8A8CTR-27" target="2D5RlCn2T64UEh8A8CTR-50">
          <mxGeometry relative="1" as="geometry" />
        </mxCell>
        <mxCell id="2D5RlCn2T64UEh8A8CTR-27" value="Start" style="strokeWidth=2;html=1;shape=mxgraph.flowchart.terminator;whiteSpace=wrap;fontSize=16;fontStyle=1" vertex="1" parent="1">
          <mxGeometry x="960.0100000000001" y="1180" width="100" height="60" as="geometry" />
        </mxCell>
        <mxCell id="2D5RlCn2T64UEh8A8CTR-53" value="" style="edgeStyle=orthogonalEdgeStyle;rounded=0;orthogonalLoop=1;jettySize=auto;html=1;fontSize=16;fontStyle=1" edge="1" parent="1" source="2D5RlCn2T64UEh8A8CTR-29" target="2D5RlCn2T64UEh8A8CTR-34">
          <mxGeometry relative="1" as="geometry" />
        </mxCell>
        <mxCell id="2D5RlCn2T64UEh8A8CTR-29" value="Input&amp;nbsp;&lt;span style=&quot;background-color: initial;&quot;&gt;Data&lt;/span&gt;&lt;div&gt;&lt;span style=&quot;background-color: initial;&quot;&gt;&amp;nbsp;&lt;/span&gt;&lt;span style=&quot;background-color: initial;&quot;&gt;Cipher Text&lt;/span&gt;&lt;/div&gt;" style="shape=parallelogram;html=1;strokeWidth=2;perimeter=parallelogramPerimeter;whiteSpace=wrap;rounded=0;arcSize=12;size=0.23;fontSize=16;fontStyle=1" vertex="1" parent="1">
          <mxGeometry x="918.13" y="1400" width="185.01" height="80" as="geometry" />
        </mxCell>
        <mxCell id="2D5RlCn2T64UEh8A8CTR-32" value="" style="edgeStyle=orthogonalEdgeStyle;rounded=0;orthogonalLoop=1;jettySize=auto;html=1;fontSize=16;fontStyle=1" edge="1" parent="1" source="2D5RlCn2T64UEh8A8CTR-34" target="2D5RlCn2T64UEh8A8CTR-36">
          <mxGeometry relative="1" as="geometry" />
        </mxCell>
        <mxCell id="2D5RlCn2T64UEh8A8CTR-33" value="" style="edgeStyle=orthogonalEdgeStyle;rounded=0;orthogonalLoop=1;jettySize=auto;html=1;fontSize=16;fontStyle=1" edge="1" parent="1" source="2D5RlCn2T64UEh8A8CTR-34">
          <mxGeometry relative="1" as="geometry">
            <mxPoint x="1150.015" y="1595" as="targetPoint" />
          </mxGeometry>
        </mxCell>
        <mxCell id="2D5RlCn2T64UEh8A8CTR-34" value="&lt;div&gt;Fragmen&amp;nbsp;&lt;/div&gt;&lt;div&gt;Data &amp;gt; 1?&lt;/div&gt;" style="rhombus;whiteSpace=wrap;html=1;strokeWidth=2;rounded=0;arcSize=12;fontSize=16;fontStyle=1" vertex="1" parent="1">
          <mxGeometry x="935.0100000000001" y="1530" width="151.25" height="130" as="geometry" />
        </mxCell>
        <mxCell id="2D5RlCn2T64UEh8A8CTR-35" value="" style="edgeStyle=orthogonalEdgeStyle;rounded=0;orthogonalLoop=1;jettySize=auto;html=1;entryX=0.5;entryY=0;entryDx=0;entryDy=0;fontSize=16;fontStyle=1" edge="1" parent="1" source="2D5RlCn2T64UEh8A8CTR-36" target="2D5RlCn2T64UEh8A8CTR-47">
          <mxGeometry relative="1" as="geometry">
            <mxPoint x="1009.1225000000003" y="1834.42" as="targetPoint" />
          </mxGeometry>
        </mxCell>
        <mxCell id="2D5RlCn2T64UEh8A8CTR-36" value="Dekripsi Data" style="whiteSpace=wrap;html=1;strokeWidth=2;rounded=0;arcSize=12;fontSize=16;fontStyle=1" vertex="1" parent="1">
          <mxGeometry x="945.4700000000001" y="1700" width="129.07" height="70" as="geometry" />
        </mxCell>
        <mxCell id="2D5RlCn2T64UEh8A8CTR-37" style="edgeStyle=orthogonalEdgeStyle;rounded=0;orthogonalLoop=1;jettySize=auto;html=1;entryX=1;entryY=0.5;entryDx=0;entryDy=0;fontSize=16;fontStyle=1" edge="1" parent="1" target="2D5RlCn2T64UEh8A8CTR-36">
          <mxGeometry relative="1" as="geometry">
            <Array as="points">
              <mxPoint x="1210.07" y="1735" />
            </Array>
            <mxPoint x="1210.01" y="1625" as="sourcePoint" />
          </mxGeometry>
        </mxCell>
        <mxCell id="2D5RlCn2T64UEh8A8CTR-45" value="Yes" style="text;html=1;align=center;verticalAlign=middle;whiteSpace=wrap;rounded=0;fontSize=16;fontStyle=1" vertex="1" parent="1">
          <mxGeometry x="1100.01" y="1580" width="20" height="10" as="geometry" />
        </mxCell>
        <mxCell id="2D5RlCn2T64UEh8A8CTR-46" value="No" style="text;html=1;align=center;verticalAlign=middle;whiteSpace=wrap;rounded=0;fontSize=16;fontStyle=1" vertex="1" parent="1">
          <mxGeometry x="1019.0700000000002" y="1670" width="20" height="10" as="geometry" />
        </mxCell>
        <mxCell id="2D5RlCn2T64UEh8A8CTR-55" style="edgeStyle=orthogonalEdgeStyle;rounded=0;orthogonalLoop=1;jettySize=auto;html=1;entryX=0.5;entryY=0;entryDx=0;entryDy=0;fontSize=16;fontStyle=1" edge="1" parent="1" source="2D5RlCn2T64UEh8A8CTR-47" target="2D5RlCn2T64UEh8A8CTR-54">
          <mxGeometry relative="1" as="geometry" />
        </mxCell>
        <mxCell id="2D5RlCn2T64UEh8A8CTR-47" value="Menyimpan Data Terdekripsi / Plain Text Pada Micro SD" style="whiteSpace=wrap;html=1;strokeWidth=2;rounded=0;arcSize=12;fontSize=16;fontStyle=1" vertex="1" parent="1">
          <mxGeometry x="940.6300000000002" y="1810" width="140.01" height="90" as="geometry" />
        </mxCell>
        <mxCell id="2D5RlCn2T64UEh8A8CTR-48" value="Integrasi Data Keseluruhan" style="whiteSpace=wrap;html=1;strokeWidth=2;rounded=0;arcSize=12;fontSize=16;fontStyle=1" vertex="1" parent="1">
          <mxGeometry x="1149.07" y="1558.75" width="129.05" height="75" as="geometry" />
        </mxCell>
        <mxCell id="2D5RlCn2T64UEh8A8CTR-52" value="" style="edgeStyle=orthogonalEdgeStyle;rounded=0;orthogonalLoop=1;jettySize=auto;html=1;fontSize=16;fontStyle=1" edge="1" parent="1" source="2D5RlCn2T64UEh8A8CTR-50" target="2D5RlCn2T64UEh8A8CTR-29">
          <mxGeometry relative="1" as="geometry" />
        </mxCell>
        <mxCell id="2D5RlCn2T64UEh8A8CTR-50" value="Menunggu&amp;nbsp;&amp;nbsp;&lt;div&gt;Data Dikirimkan&lt;/div&gt;" style="whiteSpace=wrap;html=1;strokeWidth=2;rounded=0;arcSize=12;align=center;fontSize=16;fontStyle=1" vertex="1" parent="1">
          <mxGeometry x="941.1100000000001" y="1285" width="139.06" height="70" as="geometry" />
        </mxCell>
        <mxCell id="2D5RlCn2T64UEh8A8CTR-59" value="" style="edgeStyle=orthogonalEdgeStyle;rounded=0;orthogonalLoop=1;jettySize=auto;html=1;fontSize=16;fontStyle=1" edge="1" parent="1" source="2D5RlCn2T64UEh8A8CTR-54" target="2D5RlCn2T64UEh8A8CTR-58">
          <mxGeometry relative="1" as="geometry" />
        </mxCell>
        <mxCell id="2D5RlCn2T64UEh8A8CTR-54" value="Menampilkan Data&amp;nbsp;&lt;div&gt;Terdekripsi dan&amp;nbsp;&lt;/div&gt;&lt;div&gt;Waktu Komputasi&lt;/div&gt;" style="shape=parallelogram;html=1;strokeWidth=2;perimeter=parallelogramPerimeter;whiteSpace=wrap;rounded=0;arcSize=12;size=0.23;fontSize=16;fontStyle=1" vertex="1" parent="1">
          <mxGeometry x="895.64" y="1941.27" width="230" height="90" as="geometry" />
        </mxCell>
        <mxCell id="2D5RlCn2T64UEh8A8CTR-58" value="End" style="strokeWidth=2;html=1;shape=mxgraph.flowchart.terminator;whiteSpace=wrap;fontSize=16;fontStyle=1" vertex="1" parent="1">
          <mxGeometry x="960.0100000000001" y="2060" width="100" height="60" as="geometry" />
        </mxCell>
        <mxCell id="Kpd0oDlNs_ssm9YW9QpE-1" value="" style="edgeStyle=orthogonalEdgeStyle;rounded=0;orthogonalLoop=1;jettySize=auto;html=1;fontSize=16;fontStyle=1" edge="1" parent="1" target="Kpd0oDlNs_ssm9YW9QpE-16">
          <mxGeometry relative="1" as="geometry">
            <mxPoint x="1538.04" y="1250.02" as="sourcePoint" />
          </mxGeometry>
        </mxCell>
        <mxCell id="Kpd0oDlNs_ssm9YW9QpE-15" value="" style="edgeStyle=orthogonalEdgeStyle;rounded=0;orthogonalLoop=1;jettySize=auto;html=1;fontSize=16;fontStyle=1" edge="1" parent="1" source="Kpd0oDlNs_ssm9YW9QpE-16">
          <mxGeometry relative="1" as="geometry">
            <mxPoint x="1537.9233333333334" y="1410.02" as="targetPoint" />
          </mxGeometry>
        </mxCell>
        <mxCell id="Kpd0oDlNs_ssm9YW9QpE-16" value="Inisialisasi Sensor" style="whiteSpace=wrap;html=1;strokeWidth=2;rounded=0;arcSize=12;align=center;fontSize=16;fontStyle=1" vertex="1" parent="1">
          <mxGeometry x="1472.05" y="1290.02" width="131.96" height="69.98" as="geometry" />
        </mxCell>
        <mxCell id="Kpd0oDlNs_ssm9YW9QpE-20" value="Start" style="strokeWidth=2;html=1;shape=mxgraph.flowchart.terminator;whiteSpace=wrap;fontSize=16;fontStyle=1" vertex="1" parent="1">
          <mxGeometry x="1488.03" y="1190.02" width="100" height="60" as="geometry" />
        </mxCell>
        <mxCell id="Kpd0oDlNs_ssm9YW9QpE-24" value="" style="edgeStyle=orthogonalEdgeStyle;rounded=0;orthogonalLoop=1;jettySize=auto;html=1;fontSize=16;fontStyle=1" edge="1" parent="1" source="Kpd0oDlNs_ssm9YW9QpE-21" target="Kpd0oDlNs_ssm9YW9QpE-23">
          <mxGeometry relative="1" as="geometry" />
        </mxCell>
        <mxCell id="Kpd0oDlNs_ssm9YW9QpE-21" value="Membaca Data&amp;nbsp;&lt;div&gt;Power Per 2 MS&lt;/div&gt;" style="whiteSpace=wrap;html=1;strokeWidth=2;rounded=0;arcSize=12;align=center;fontSize=16;fontStyle=1" vertex="1" parent="1">
          <mxGeometry x="1472.05" y="1410.02" width="131.96" height="69.98" as="geometry" />
        </mxCell>
        <mxCell id="Kpd0oDlNs_ssm9YW9QpE-23" value="Menampilkan Data&lt;div&gt;Power&lt;/div&gt;" style="shape=parallelogram;html=1;strokeWidth=2;perimeter=parallelogramPerimeter;whiteSpace=wrap;rounded=0;arcSize=12;size=0.23;fontSize=16;fontStyle=1" vertex="1" parent="1">
          <mxGeometry x="1419.99" y="1520.02" width="236.09" height="90" as="geometry" />
        </mxCell>
        <mxCell id="ljyrQZLeN5WYpzkp9Qmc-4" value="End" style="strokeWidth=2;html=1;shape=mxgraph.flowchart.terminator;whiteSpace=wrap;fontSize=16;fontStyle=1" vertex="1" parent="1">
          <mxGeometry x="1488.03" y="1650.02" width="100" height="60" as="geometry" />
        </mxCell>
        <mxCell id="ljyrQZLeN5WYpzkp9Qmc-6" style="edgeStyle=orthogonalEdgeStyle;rounded=0;orthogonalLoop=1;jettySize=auto;html=1;entryX=0.5;entryY=0;entryDx=0;entryDy=0;entryPerimeter=0;fontSize=16;fontStyle=1" edge="1" parent="1" source="Kpd0oDlNs_ssm9YW9QpE-23" target="ljyrQZLeN5WYpzkp9Qmc-4">
          <mxGeometry relative="1" as="geometry" />
        </mxCell>
        <mxCell id="Il1U52tKwYIOMvdCOUBF-1" value="Menampilkan Status Gagal&amp;nbsp;&lt;div&gt;Pengiriman&lt;/div&gt;" style="whiteSpace=wrap;html=1;fontSize=15;strokeWidth=2;rounded=0;arcSize=12;fontStyle=1;" vertex="1" parent="1">
          <mxGeometry x="199.995" y="755" width="120" height="60" as="geometry" />
        </mxCell>
        <mxCell id="M7F243mTsWdi9duMfolY-1" value="" style="edgeStyle=orthogonalEdgeStyle;rounded=0;orthogonalLoop=1;jettySize=auto;html=1;entryX=0.5;entryY=0;entryDx=0;entryDy=0;fontSize=16;fontStyle=1" edge="1" parent="1" source="M7F243mTsWdi9duMfolY-2" target="M7F243mTsWdi9duMfolY-4">
          <mxGeometry relative="1" as="geometry">
            <mxPoint x="440.3" y="1289.99" as="targetPoint" />
          </mxGeometry>
        </mxCell>
        <mxCell id="M7F243mTsWdi9duMfolY-2" value="Start" style="strokeWidth=2;html=1;shape=mxgraph.flowchart.terminator;whiteSpace=wrap;fontSize=16;fontStyle=1" vertex="1" parent="1">
          <mxGeometry x="389.06" y="1180" width="100" height="60" as="geometry" />
        </mxCell>
        <mxCell id="M7F243mTsWdi9duMfolY-3" value="" style="edgeStyle=orthogonalEdgeStyle;rounded=0;orthogonalLoop=1;jettySize=auto;html=1;fontSize=16;fontStyle=1" edge="1" parent="1" source="M7F243mTsWdi9duMfolY-4" target="M7F243mTsWdi9duMfolY-6">
          <mxGeometry relative="1" as="geometry" />
        </mxCell>
        <mxCell id="M7F243mTsWdi9duMfolY-4" value="Data&lt;div&gt;Sensor&lt;/div&gt;" style="shape=parallelogram;html=1;strokeWidth=2;perimeter=parallelogramPerimeter;whiteSpace=wrap;rounded=0;arcSize=12;size=0.23;fontSize=16;fontStyle=1" vertex="1" parent="1">
          <mxGeometry x="364.07" y="1280" width="150" height="80" as="geometry" />
        </mxCell>
        <mxCell id="M7F243mTsWdi9duMfolY-5" value="" style="edgeStyle=orthogonalEdgeStyle;rounded=0;orthogonalLoop=1;jettySize=auto;html=1;fontSize=16;fontStyle=1;entryX=0.5;entryY=0;entryDx=0;entryDy=0;" edge="1" parent="1" source="M7F243mTsWdi9duMfolY-6" target="M7F243mTsWdi9duMfolY-9">
          <mxGeometry relative="1" as="geometry">
            <mxPoint x="443.6899999999998" y="1499.999663309938" as="targetPoint" />
          </mxGeometry>
        </mxCell>
        <mxCell id="M7F243mTsWdi9duMfolY-6" value="Enkripsi Data" style="whiteSpace=wrap;html=1;strokeWidth=2;rounded=0;arcSize=12;fontSize=16;fontStyle=1" vertex="1" parent="1">
          <mxGeometry x="379.06" y="1400" width="120" height="60" as="geometry" />
        </mxCell>
        <mxCell id="M7F243mTsWdi9duMfolY-7" value="" style="edgeStyle=orthogonalEdgeStyle;rounded=0;orthogonalLoop=1;jettySize=auto;html=1;fontSize=16;fontStyle=1" edge="1" parent="1" source="M7F243mTsWdi9duMfolY-9" target="M7F243mTsWdi9duMfolY-13">
          <mxGeometry relative="1" as="geometry" />
        </mxCell>
        <mxCell id="M7F243mTsWdi9duMfolY-8" style="edgeStyle=orthogonalEdgeStyle;rounded=0;orthogonalLoop=1;jettySize=auto;html=1;entryX=0.5;entryY=0;entryDx=0;entryDy=0;fontSize=16;exitX=0.5;exitY=1;exitDx=0;exitDy=0;" edge="1" parent="1" source="M7F243mTsWdi9duMfolY-9" target="M7F243mTsWdi9duMfolY-11">
          <mxGeometry relative="1" as="geometry">
            <mxPoint x="440.33428571428556" y="1699.9965319615794" as="sourcePoint" />
          </mxGeometry>
        </mxCell>
        <mxCell id="M7F243mTsWdi9duMfolY-9" value="&lt;div&gt;&lt;span style=&quot;background-color: initial;&quot;&gt;Data Melebihi&amp;nbsp;&lt;/span&gt;&lt;/div&gt;&lt;div&gt;Payload ESP-NOW?&lt;/div&gt;" style="rhombus;whiteSpace=wrap;html=1;strokeWidth=2;rounded=0;arcSize=12;fontSize=16;fontStyle=1" vertex="1" parent="1">
          <mxGeometry x="341.38" y="1500" width="196.62" height="190" as="geometry" />
        </mxCell>
        <mxCell id="M7F243mTsWdi9duMfolY-10" value="" style="edgeStyle=orthogonalEdgeStyle;rounded=0;orthogonalLoop=1;jettySize=auto;html=1;fontSize=16;fontStyle=1;entryX=0.5;entryY=0;entryDx=0;entryDy=0;exitX=0.5;exitY=1;exitDx=0;exitDy=0;" edge="1" parent="1" source="M7F243mTsWdi9duMfolY-11" target="M7F243mTsWdi9duMfolY-16">
          <mxGeometry relative="1" as="geometry">
            <mxPoint x="449.33" y="1835.02" as="targetPoint" />
            <mxPoint x="438.4261538461537" y="1795.0199999999998" as="sourcePoint" />
          </mxGeometry>
        </mxCell>
        <mxCell id="M7F243mTsWdi9duMfolY-11" value="Mengirim Data ke Node Dekriptor" style="whiteSpace=wrap;html=1;strokeWidth=2;rounded=0;arcSize=12;fontSize=16;fontStyle=1" vertex="1" parent="1">
          <mxGeometry x="379.675" y="1730.02" width="120" height="60" as="geometry" />
        </mxCell>
        <mxCell id="M7F243mTsWdi9duMfolY-12" style="edgeStyle=orthogonalEdgeStyle;rounded=0;orthogonalLoop=1;jettySize=auto;html=1;entryX=1;entryY=0.5;entryDx=0;entryDy=0;fontSize=16;fontStyle=1;exitX=0.5;exitY=1;exitDx=0;exitDy=0;" edge="1" parent="1" source="M7F243mTsWdi9duMfolY-13" target="M7F243mTsWdi9duMfolY-11">
          <mxGeometry relative="1" as="geometry">
            <Array as="points">
              <mxPoint x="663" y="1760" />
            </Array>
          </mxGeometry>
        </mxCell>
        <mxCell id="M7F243mTsWdi9duMfolY-13" value="Fragmentasi Data&lt;div&gt;Sesuai Batas Payload&lt;/div&gt;" style="whiteSpace=wrap;html=1;strokeWidth=2;rounded=0;arcSize=12;fontSize=16;fontStyle=1" vertex="1" parent="1">
          <mxGeometry x="590" y="1556.25" width="146.81" height="77.5" as="geometry" />
        </mxCell>
        <mxCell id="M7F243mTsWdi9duMfolY-15" value="" style="edgeStyle=orthogonalEdgeStyle;rounded=0;orthogonalLoop=1;jettySize=auto;html=1;fontSize=16;" edge="1" parent="1" source="M7F243mTsWdi9duMfolY-16" target="M7F243mTsWdi9duMfolY-22">
          <mxGeometry relative="1" as="geometry" />
        </mxCell>
        <mxCell id="M7F243mTsWdi9duMfolY-26" value="" style="edgeStyle=orthogonalEdgeStyle;rounded=0;orthogonalLoop=1;jettySize=auto;html=1;" edge="1" parent="1" source="M7F243mTsWdi9duMfolY-16" target="M7F243mTsWdi9duMfolY-25">
          <mxGeometry relative="1" as="geometry" />
        </mxCell>
        <mxCell id="M7F243mTsWdi9duMfolY-16" value="&lt;div&gt;Node Dekriptor&lt;/div&gt;&lt;div&gt;&amp;nbsp;Menerima Data?&lt;/div&gt;" style="rhombus;whiteSpace=wrap;html=1;strokeWidth=2;rounded=0;arcSize=12;fontSize=16;fontStyle=1" vertex="1" parent="1">
          <mxGeometry x="364.06" y="1835.02" width="151.25" height="130" as="geometry" />
        </mxCell>
        <mxCell id="M7F243mTsWdi9duMfolY-17" value="End" style="strokeWidth=2;html=1;shape=mxgraph.flowchart.terminator;whiteSpace=wrap;fontSize=16;fontStyle=1" vertex="1" parent="1">
          <mxGeometry x="389.68" y="2150" width="100" height="60" as="geometry" />
        </mxCell>
        <mxCell id="M7F243mTsWdi9duMfolY-18" value="Yes" style="text;html=1;align=center;verticalAlign=middle;whiteSpace=wrap;rounded=0;fontSize=16;fontStyle=1" vertex="1" parent="1">
          <mxGeometry x="444.68" y="1970.02" width="30" height="20" as="geometry" />
        </mxCell>
        <mxCell id="M7F243mTsWdi9duMfolY-19" value="No" style="text;html=1;align=center;verticalAlign=middle;whiteSpace=wrap;rounded=0;fontSize=16;fontStyle=1" vertex="1" parent="1">
          <mxGeometry x="334.06" y="1880.02" width="30" height="20" as="geometry" />
        </mxCell>
        <mxCell id="M7F243mTsWdi9duMfolY-20" value="Yes" style="text;html=1;align=center;verticalAlign=middle;whiteSpace=wrap;rounded=0;fontSize=16;fontStyle=1" vertex="1" parent="1">
          <mxGeometry x="550" y="1580" width="20" height="10" as="geometry" />
        </mxCell>
        <mxCell id="M7F243mTsWdi9duMfolY-21" value="No" style="text;html=1;align=center;verticalAlign=middle;whiteSpace=wrap;rounded=0;fontSize=16;fontStyle=1" vertex="1" parent="1">
          <mxGeometry x="449.67999999999995" y="1710.02" width="20" height="10" as="geometry" />
        </mxCell>
        <mxCell id="M7F243mTsWdi9duMfolY-28" style="edgeStyle=orthogonalEdgeStyle;rounded=0;orthogonalLoop=1;jettySize=auto;html=1;entryX=0;entryY=0.5;entryDx=0;entryDy=0;" edge="1" parent="1" source="M7F243mTsWdi9duMfolY-22" target="M7F243mTsWdi9duMfolY-25">
          <mxGeometry relative="1" as="geometry">
            <Array as="points">
              <mxPoint x="250" y="2065" />
            </Array>
          </mxGeometry>
        </mxCell>
        <mxCell id="M7F243mTsWdi9duMfolY-22" value="Menampilkan Status Gagal&amp;nbsp;&lt;div&gt;Pengiriman&lt;/div&gt;" style="whiteSpace=wrap;html=1;fontSize=16;strokeWidth=2;rounded=0;arcSize=12;fontStyle=1;" vertex="1" parent="1">
          <mxGeometry x="191.87" y="1858.77" width="128.75" height="82.5" as="geometry" />
        </mxCell>
        <mxCell id="M7F243mTsWdi9duMfolY-27" value="" style="edgeStyle=orthogonalEdgeStyle;rounded=0;orthogonalLoop=1;jettySize=auto;html=1;" edge="1" parent="1" source="M7F243mTsWdi9duMfolY-25" target="M7F243mTsWdi9duMfolY-17">
          <mxGeometry relative="1" as="geometry" />
        </mxCell>
        <mxCell id="M7F243mTsWdi9duMfolY-25" value="Menampilkan Cipher Text&lt;div&gt;&amp;nbsp;dan&amp;nbsp;&lt;/div&gt;&lt;div&gt;Waktu Komputasi&lt;/div&gt;" style="whiteSpace=wrap;html=1;fontSize=16;strokeWidth=2;rounded=0;arcSize=12;fontStyle=1;" vertex="1" parent="1">
          <mxGeometry x="342.82" y="2020" width="196.23" height="90" as="geometry" />
        </mxCell>
      </root>
    </mxGraphModel>
  </diagram>
  <diagram id="0wD-w9k9w05KarmOhWfb" name="Flowchart Algoritma">
    <mxGraphModel grid="1" page="1" gridSize="10" guides="1" tooltips="1" connect="1" arrows="1" fold="1" pageScale="1" pageWidth="900" pageHeight="1600" math="0" shadow="0">
      <root>
        <mxCell id="0" />
        <mxCell id="1" parent="0" />
        <mxCell id="rF-1V-lk1p61Df600EiO-10" value="" style="edgeStyle=orthogonalEdgeStyle;rounded=0;orthogonalLoop=1;jettySize=auto;html=1;fontSize=15;fontStyle=1" edge="1" parent="1" source="eY0PRwOaqo32yvLHCETA-2" target="rF-1V-lk1p61Df600EiO-9">
          <mxGeometry relative="1" as="geometry" />
        </mxCell>
        <mxCell id="eY0PRwOaqo32yvLHCETA-2" value="Start" style="strokeWidth=2;html=1;shape=mxgraph.flowchart.terminator;whiteSpace=wrap;fontSize=15;fontStyle=1" vertex="1" parent="1">
          <mxGeometry x="1064.37" y="-105" width="100" height="60" as="geometry" />
        </mxCell>
        <mxCell id="eY0PRwOaqo32yvLHCETA-23" value="" style="edgeStyle=orthogonalEdgeStyle;rounded=0;orthogonalLoop=1;jettySize=auto;html=1;fontSize=15;fontStyle=1" edge="1" parent="1" source="eY0PRwOaqo32yvLHCETA-21">
          <mxGeometry relative="1" as="geometry">
            <mxPoint x="1115.01" y="265" as="targetPoint" />
          </mxGeometry>
        </mxCell>
        <mxCell id="eY0PRwOaqo32yvLHCETA-21" value="&lt;span style=&quot;color: rgb(0, 0, 0); font-family: Helvetica; font-style: normal; font-variant-ligatures: normal; font-variant-caps: normal; letter-spacing: normal; orphans: 2; text-align: center; text-indent: 0px; text-transform: none; widows: 2; word-spacing: 0px; -webkit-text-stroke-width: 0px; white-space: normal; background-color: rgb(251, 251, 251); text-decoration-thickness: initial; text-decoration-style: initial; text-decoration-color: initial; float: none; display: inline !important;&quot;&gt;Inisialisasi ESP-NOW&lt;/span&gt;&lt;div style=&quot;forced-color-adjust: none; color: rgb(0, 0, 0); font-family: Helvetica; font-style: normal; font-variant-ligatures: normal; font-variant-caps: normal; letter-spacing: normal; orphans: 2; text-align: center; text-indent: 0px; text-transform: none; widows: 2; word-spacing: 0px; -webkit-text-stroke-width: 0px; white-space: normal; background-color: rgb(251, 251, 251); text-decoration-thickness: initial; text-decoration-style: initial; text-decoration-color: initial;&quot;&gt;dan Pairing&lt;/div&gt;" style="shape=rectangle;whiteSpace=wrap;html=1;fixedSize=1;strokeWidth=2;fontSize=15;fontStyle=1" vertex="1" parent="1">
          <mxGeometry x="1040.01" y="135" width="150" height="80" as="geometry" />
        </mxCell>
        <mxCell id="eY0PRwOaqo32yvLHCETA-24" value="Input&amp;nbsp;&lt;div&gt;Data Sensor&lt;/div&gt;" style="shape=parallelogram;html=1;strokeWidth=2;perimeter=parallelogramPerimeter;whiteSpace=wrap;rounded=0;arcSize=12;size=0.23;fontSize=15;fontStyle=1" vertex="1" parent="1">
          <mxGeometry x="1026.42" y="265" width="179.99" height="80" as="geometry" />
        </mxCell>
        <mxCell id="eY0PRwOaqo32yvLHCETA-28" value="" style="edgeStyle=orthogonalEdgeStyle;rounded=0;orthogonalLoop=1;jettySize=auto;html=1;fontSize=15;fontStyle=1" edge="1" parent="1">
          <mxGeometry relative="1" as="geometry">
            <mxPoint x="1115.01" y="465" as="sourcePoint" />
            <mxPoint x="1115.01" y="515" as="targetPoint" />
          </mxGeometry>
        </mxCell>
        <mxCell id="rF-1V-lk1p61Df600EiO-1" value="" style="edgeStyle=orthogonalEdgeStyle;rounded=0;orthogonalLoop=1;jettySize=auto;html=1;fontSize=15;fontStyle=1" edge="1" parent="1" source="rF-1V-lk1p61Df600EiO-3" target="rF-1V-lk1p61Df600EiO-4">
          <mxGeometry relative="1" as="geometry" />
        </mxCell>
        <mxCell id="rF-1V-lk1p61Df600EiO-2" value="" style="edgeStyle=orthogonalEdgeStyle;rounded=0;orthogonalLoop=1;jettySize=auto;html=1;fontSize=15;fontStyle=1" edge="1" parent="1" source="rF-1V-lk1p61Df600EiO-3" target="rF-1V-lk1p61Df600EiO-6">
          <mxGeometry relative="1" as="geometry" />
        </mxCell>
        <mxCell id="rF-1V-lk1p61Df600EiO-3" value="&lt;div&gt;&lt;span style=&quot;background-color: initial;&quot;&gt;Size Data &amp;gt;&amp;nbsp;&lt;/span&gt;&lt;/div&gt;&lt;div&gt;&lt;span style=&quot;background-color: initial;&quot;&gt;Payload&lt;/span&gt;&lt;/div&gt;&lt;div&gt;&lt;span style=&quot;background-color: initial;&quot;&gt;&amp;nbsp;ESP-NOW?&lt;/span&gt;&lt;/div&gt;" style="rhombus;whiteSpace=wrap;html=1;strokeWidth=2;rounded=0;arcSize=12;fontSize=15;fontStyle=1" vertex="1" parent="1">
          <mxGeometry x="1271.26" y="20" width="151.25" height="130" as="geometry" />
        </mxCell>
        <mxCell id="rF-1V-lk1p61Df600EiO-20" value="" style="edgeStyle=orthogonalEdgeStyle;rounded=0;orthogonalLoop=1;jettySize=auto;html=1;entryX=0.5;entryY=0;entryDx=0;entryDy=0;fontSize=15;fontStyle=1" edge="1" parent="1" source="rF-1V-lk1p61Df600EiO-4" target="rF-1V-lk1p61Df600EiO-21">
          <mxGeometry relative="1" as="geometry">
            <mxPoint x="1346.255" y="330" as="targetPoint" />
          </mxGeometry>
        </mxCell>
        <mxCell id="rF-1V-lk1p61Df600EiO-4" value="Mengirim Data ke Node Penerima" style="whiteSpace=wrap;html=1;strokeWidth=2;rounded=0;arcSize=12;fontSize=15;fontStyle=1" vertex="1" parent="1">
          <mxGeometry x="1286.2549999999999" y="200" width="120" height="60" as="geometry" />
        </mxCell>
        <mxCell id="rF-1V-lk1p61Df600EiO-5" style="edgeStyle=orthogonalEdgeStyle;rounded=0;orthogonalLoop=1;jettySize=auto;html=1;entryX=1;entryY=0.5;entryDx=0;entryDy=0;fontSize=15;fontStyle=1" edge="1" parent="1" source="rF-1V-lk1p61Df600EiO-6" target="rF-1V-lk1p61Df600EiO-4">
          <mxGeometry relative="1" as="geometry">
            <Array as="points">
              <mxPoint x="1546.26" y="230" />
            </Array>
          </mxGeometry>
        </mxCell>
        <mxCell id="rF-1V-lk1p61Df600EiO-6" value="Fragmentasi Data&lt;div&gt;Sesuai Batas Payload&lt;/div&gt;" style="whiteSpace=wrap;html=1;strokeWidth=2;rounded=0;arcSize=12;fontSize=15;fontStyle=1" vertex="1" parent="1">
          <mxGeometry x="1486.27" y="52.5" width="130" height="65" as="geometry" />
        </mxCell>
        <mxCell id="rF-1V-lk1p61Df600EiO-7" value="Yes" style="text;html=1;align=center;verticalAlign=middle;whiteSpace=wrap;rounded=0;fontSize=15;fontStyle=1" vertex="1" parent="1">
          <mxGeometry x="1430" y="67.5" width="20" height="10" as="geometry" />
        </mxCell>
        <mxCell id="rF-1V-lk1p61Df600EiO-8" value="No" style="text;html=1;align=center;verticalAlign=middle;whiteSpace=wrap;rounded=0;fontSize=15;fontStyle=1" vertex="1" parent="1">
          <mxGeometry x="1350" y="167.5" width="20" height="10" as="geometry" />
        </mxCell>
        <mxCell id="rF-1V-lk1p61Df600EiO-11" value="" style="edgeStyle=orthogonalEdgeStyle;rounded=0;orthogonalLoop=1;jettySize=auto;html=1;fontSize=15;fontStyle=1" edge="1" parent="1" source="rF-1V-lk1p61Df600EiO-9" target="eY0PRwOaqo32yvLHCETA-21">
          <mxGeometry relative="1" as="geometry" />
        </mxCell>
        <mxCell id="rF-1V-lk1p61Df600EiO-9" value="&lt;span style=&quot;color: rgb(0, 0, 0); font-family: Helvetica; font-style: normal; font-variant-ligatures: normal; font-variant-caps: normal; letter-spacing: normal; orphans: 2; text-align: center; text-indent: 0px; text-transform: none; widows: 2; word-spacing: 0px; -webkit-text-stroke-width: 0px; white-space: normal; background-color: rgb(251, 251, 251); text-decoration-thickness: initial; text-decoration-style: initial; text-decoration-color: initial; float: none; display: inline !important;&quot;&gt;Inisialisasi Key dan&lt;/span&gt;&lt;div&gt;&lt;span style=&quot;color: rgb(0, 0, 0); font-family: Helvetica; font-style: normal; font-variant-ligatures: normal; font-variant-caps: normal; letter-spacing: normal; orphans: 2; text-align: center; text-indent: 0px; text-transform: none; widows: 2; word-spacing: 0px; -webkit-text-stroke-width: 0px; white-space: normal; background-color: rgb(251, 251, 251); text-decoration-thickness: initial; text-decoration-style: initial; text-decoration-color: initial; float: none; display: inline !important;&quot;&gt;&amp;nbsp;Nonce&lt;/span&gt;&lt;/div&gt;" style="shape=rectangle;whiteSpace=wrap;html=1;fixedSize=1;strokeWidth=2;fontSize=15;fontStyle=1" vertex="1" parent="1">
          <mxGeometry x="1040" y="5" width="150" height="80" as="geometry" />
        </mxCell>
        <mxCell id="78xvlDl5y5J7OzJtUHnn-50" value="" style="edgeStyle=orthogonalEdgeStyle;rounded=0;orthogonalLoop=1;jettySize=auto;html=1;exitX=0.5;exitY=1;exitDx=0;exitDy=0;fontSize=15;fontStyle=1" edge="1" parent="1" source="78xvlDl5y5J7OzJtUHnn-66" target="78xvlDl5y5J7OzJtUHnn-49">
          <mxGeometry relative="1" as="geometry">
            <mxPoint x="1115.6385714285714" y="725" as="sourcePoint" />
          </mxGeometry>
        </mxCell>
        <mxCell id="rF-1V-lk1p61Df600EiO-17" style="edgeStyle=orthogonalEdgeStyle;rounded=0;orthogonalLoop=1;jettySize=auto;html=1;entryX=0.5;entryY=0;entryDx=0;entryDy=0;fontSize=15;fontStyle=1" edge="1" parent="1" source="rF-1V-lk1p61Df600EiO-14" target="78xvlDl5y5J7OzJtUHnn-66">
          <mxGeometry relative="1" as="geometry">
            <mxPoint x="1115.625" y="635" as="targetPoint" />
          </mxGeometry>
        </mxCell>
        <mxCell id="rF-1V-lk1p61Df600EiO-14" value="&lt;span style=&quot;color: rgb(0, 0, 0); font-family: Helvetica; font-style: normal; font-variant-ligatures: normal; font-variant-caps: normal; letter-spacing: normal; orphans: 2; text-align: center; text-indent: 0px; text-transform: none; widows: 2; word-spacing: 0px; -webkit-text-stroke-width: 0px; white-space: normal; background-color: rgb(251, 251, 251); text-decoration-thickness: initial; text-decoration-style: initial; text-decoration-color: initial; float: none; display: inline !important;&quot;&gt;Inisialisasi State ChaCha20&lt;/span&gt;" style="shape=rectangle;whiteSpace=wrap;html=1;fixedSize=1;strokeWidth=2;fontSize=15;fontStyle=1" vertex="1" parent="1">
          <mxGeometry x="1051.1000000000001" y="515" width="127.79" height="80" as="geometry" />
        </mxCell>
        <mxCell id="rF-1V-lk1p61Df600EiO-18" value="End" style="strokeWidth=2;html=1;shape=mxgraph.flowchart.terminator;whiteSpace=wrap;fontSize=15;fontStyle=1" vertex="1" parent="1">
          <mxGeometry x="1296.8800000000003" y="740" width="100" height="60" as="geometry" />
        </mxCell>
        <mxCell id="rF-1V-lk1p61Df600EiO-23" value="" style="edgeStyle=orthogonalEdgeStyle;rounded=0;orthogonalLoop=1;jettySize=auto;html=1;fontSize=15;fontStyle=1" edge="1" parent="1" source="rF-1V-lk1p61Df600EiO-21" target="rF-1V-lk1p61Df600EiO-22">
          <mxGeometry relative="1" as="geometry" />
        </mxCell>
        <mxCell id="Rq6ZFsT-w6Li2f2uArt0-126" style="edgeStyle=orthogonalEdgeStyle;rounded=0;orthogonalLoop=1;jettySize=auto;html=1;fontSize=15;fontStyle=1" edge="1" parent="1" source="rF-1V-lk1p61Df600EiO-21">
          <mxGeometry relative="1" as="geometry">
            <mxPoint x="1345.6250000000002" y="490" as="targetPoint" />
          </mxGeometry>
        </mxCell>
        <mxCell id="rF-1V-lk1p61Df600EiO-21" value="&lt;div&gt;Data Terkirim&amp;nbsp;&lt;/div&gt;&lt;div&gt;Semua?&lt;/div&gt;" style="rhombus;whiteSpace=wrap;html=1;strokeWidth=2;rounded=0;arcSize=12;fontSize=15;fontStyle=1" vertex="1" parent="1">
          <mxGeometry x="1270.0000000000002" y="310" width="151.25" height="130" as="geometry" />
        </mxCell>
        <mxCell id="Rq6ZFsT-w6Li2f2uArt0-206" style="edgeStyle=orthogonalEdgeStyle;rounded=0;orthogonalLoop=1;jettySize=auto;html=1;entryX=1;entryY=0.5;entryDx=0;entryDy=0;fontSize=15;fontStyle=1" edge="1" parent="1" source="rF-1V-lk1p61Df600EiO-22" target="Rq6ZFsT-w6Li2f2uArt0-124">
          <mxGeometry relative="1" as="geometry">
            <Array as="points">
              <mxPoint x="1551" y="538" />
            </Array>
          </mxGeometry>
        </mxCell>
        <mxCell id="rF-1V-lk1p61Df600EiO-22" value="Menampilkan Status&lt;div&gt;Gagal Pengiriman&lt;/div&gt;" style="whiteSpace=wrap;html=1;strokeWidth=2;rounded=0;arcSize=12;fontSize=15;fontStyle=1" vertex="1" parent="1">
          <mxGeometry x="1486.27" y="342.5" width="130" height="65" as="geometry" />
        </mxCell>
        <mxCell id="rF-1V-lk1p61Df600EiO-26" value="" style="edgeStyle=orthogonalEdgeStyle;rounded=0;orthogonalLoop=1;jettySize=auto;html=1;fontSize=15;fontStyle=1" edge="1" parent="1" source="rF-1V-lk1p61Df600EiO-24" target="rF-1V-lk1p61Df600EiO-18">
          <mxGeometry relative="1" as="geometry" />
        </mxCell>
        <mxCell id="rF-1V-lk1p61Df600EiO-24" value="Membebaskan Memori Untuk Proses&lt;div&gt;Selanjutnya&lt;/div&gt;" style="whiteSpace=wrap;html=1;strokeWidth=2;rounded=0;arcSize=12;fontSize=15;fontStyle=1" vertex="1" parent="1">
          <mxGeometry x="1281.5600000000002" y="630" width="130.64" height="80" as="geometry" />
        </mxCell>
        <mxCell id="78xvlDl5y5J7OzJtUHnn-51" value="" style="edgeStyle=orthogonalEdgeStyle;rounded=0;orthogonalLoop=1;jettySize=auto;html=1;fontSize=15;fontStyle=1" edge="1" parent="1" source="78xvlDl5y5J7OzJtUHnn-48" target="rF-1V-lk1p61Df600EiO-3">
          <mxGeometry relative="1" as="geometry" />
        </mxCell>
        <mxCell id="78xvlDl5y5J7OzJtUHnn-48" value="&lt;span&gt;1&lt;/span&gt;" style="ellipse;whiteSpace=wrap;html=1;aspect=fixed;strokeWidth=2;fontSize=15;fontStyle=1" vertex="1" parent="1">
          <mxGeometry x="1311.8899999999999" y="-105" width="70" height="70" as="geometry" />
        </mxCell>
        <mxCell id="78xvlDl5y5J7OzJtUHnn-49" value="&lt;span&gt;1&lt;/span&gt;" style="ellipse;whiteSpace=wrap;html=1;aspect=fixed;strokeWidth=2;fontSize=15;fontStyle=1" vertex="1" parent="1">
          <mxGeometry x="1079.3700000000001" y="760" width="70" height="70" as="geometry" />
        </mxCell>
        <mxCell id="78xvlDl5y5J7OzJtUHnn-65" value="&lt;br&gt;&lt;div&gt;Alokasi Memori&amp;nbsp;&lt;div&gt;Berdasarkan Data Sensor&lt;/div&gt;&lt;br&gt;&lt;/div&gt;" style="whiteSpace=wrap;html=1;strokeWidth=2;rounded=0;arcSize=12;fontSize=15;fontStyle=1" vertex="1" parent="1">
          <mxGeometry x="1051.1" y="395" width="130.64" height="80" as="geometry" />
        </mxCell>
        <mxCell id="78xvlDl5y5J7OzJtUHnn-66" value="&lt;div&gt;Enkripsi Dengan ChaCha20 dan Menghitung Waktu Komputasi&lt;/div&gt;" style="whiteSpace=wrap;html=1;strokeWidth=2;rounded=0;arcSize=12;fontSize=15;fontStyle=1" vertex="1" parent="1">
          <mxGeometry x="1044.3700000000001" y="635" width="140" height="85" as="geometry" />
        </mxCell>
        <mxCell id="78xvlDl5y5J7OzJtUHnn-68" value="" style="edgeStyle=orthogonalEdgeStyle;rounded=0;orthogonalLoop=1;jettySize=auto;html=1;fontSize=15;fontStyle=1" edge="1" parent="1" source="78xvlDl5y5J7OzJtUHnn-69" target="78xvlDl5y5J7OzJtUHnn-85">
          <mxGeometry relative="1" as="geometry" />
        </mxCell>
        <mxCell id="78xvlDl5y5J7OzJtUHnn-69" value="Start" style="strokeWidth=2;html=1;shape=mxgraph.flowchart.terminator;whiteSpace=wrap;fontSize=15;fontStyle=1" vertex="1" parent="1">
          <mxGeometry x="2844.37" y="-120" width="100" height="60" as="geometry" />
        </mxCell>
        <mxCell id="78xvlDl5y5J7OzJtUHnn-70" value="" style="edgeStyle=orthogonalEdgeStyle;rounded=0;orthogonalLoop=1;jettySize=auto;html=1;fontSize=15;fontStyle=1" edge="1" parent="1" source="78xvlDl5y5J7OzJtUHnn-71">
          <mxGeometry relative="1" as="geometry">
            <mxPoint x="2895.01" y="250" as="targetPoint" />
          </mxGeometry>
        </mxCell>
        <mxCell id="78xvlDl5y5J7OzJtUHnn-71" value="&lt;span style=&quot;color: rgb(0, 0, 0); font-family: Helvetica; font-style: normal; font-variant-ligatures: normal; font-variant-caps: normal; letter-spacing: normal; orphans: 2; text-align: center; text-indent: 0px; text-transform: none; widows: 2; word-spacing: 0px; -webkit-text-stroke-width: 0px; white-space: normal; background-color: rgb(251, 251, 251); text-decoration-thickness: initial; text-decoration-style: initial; text-decoration-color: initial; float: none; display: inline !important;&quot;&gt;Inisialisasi ESP-NOW&lt;/span&gt;&lt;div style=&quot;forced-color-adjust: none; color: rgb(0, 0, 0); font-family: Helvetica; font-style: normal; font-variant-ligatures: normal; font-variant-caps: normal; letter-spacing: normal; orphans: 2; text-align: center; text-indent: 0px; text-transform: none; widows: 2; word-spacing: 0px; -webkit-text-stroke-width: 0px; white-space: normal; background-color: rgb(251, 251, 251); text-decoration-thickness: initial; text-decoration-style: initial; text-decoration-color: initial;&quot;&gt;dan Pairing&lt;/div&gt;" style="shape=rectangle;whiteSpace=wrap;html=1;fixedSize=1;strokeWidth=2;fontSize=15;fontStyle=1" vertex="1" parent="1">
          <mxGeometry x="2820.01" y="120" width="150" height="80" as="geometry" />
        </mxCell>
        <mxCell id="78xvlDl5y5J7OzJtUHnn-72" value="" style="edgeStyle=orthogonalEdgeStyle;rounded=0;orthogonalLoop=1;jettySize=auto;html=1;fontSize=15;fontStyle=1" edge="1" parent="1" source="78xvlDl5y5J7OzJtUHnn-73">
          <mxGeometry relative="1" as="geometry">
            <mxPoint x="2895.01" y="380" as="targetPoint" />
          </mxGeometry>
        </mxCell>
        <mxCell id="78xvlDl5y5J7OzJtUHnn-73" value="Input&amp;nbsp;&lt;div&gt;Data Sensor&lt;/div&gt;" style="shape=parallelogram;html=1;strokeWidth=2;perimeter=parallelogramPerimeter;whiteSpace=wrap;rounded=0;arcSize=12;size=0.23;fontSize=15;fontStyle=1" vertex="1" parent="1">
          <mxGeometry x="2805.0200000000004" y="250" width="179.99" height="80" as="geometry" />
        </mxCell>
        <mxCell id="78xvlDl5y5J7OzJtUHnn-74" value="" style="edgeStyle=orthogonalEdgeStyle;rounded=0;orthogonalLoop=1;jettySize=auto;html=1;fontSize=15;fontStyle=1" edge="1" parent="1">
          <mxGeometry relative="1" as="geometry">
            <mxPoint x="2895.01" y="450" as="sourcePoint" />
            <mxPoint x="2895.01" y="500" as="targetPoint" />
          </mxGeometry>
        </mxCell>
        <mxCell id="78xvlDl5y5J7OzJtUHnn-75" value="" style="edgeStyle=orthogonalEdgeStyle;rounded=0;orthogonalLoop=1;jettySize=auto;html=1;fontSize=15;fontStyle=1" edge="1" parent="1" source="78xvlDl5y5J7OzJtUHnn-77" target="78xvlDl5y5J7OzJtUHnn-79">
          <mxGeometry relative="1" as="geometry" />
        </mxCell>
        <mxCell id="78xvlDl5y5J7OzJtUHnn-76" value="" style="edgeStyle=orthogonalEdgeStyle;rounded=0;orthogonalLoop=1;jettySize=auto;html=1;fontSize=15;fontStyle=1" edge="1" parent="1" source="78xvlDl5y5J7OzJtUHnn-77" target="78xvlDl5y5J7OzJtUHnn-81">
          <mxGeometry relative="1" as="geometry" />
        </mxCell>
        <mxCell id="78xvlDl5y5J7OzJtUHnn-77" value="&lt;div&gt;&lt;span style=&quot;background-color: initial;&quot;&gt;Size Data &amp;gt;&amp;nbsp;&lt;/span&gt;&lt;/div&gt;&lt;div&gt;&lt;span style=&quot;background-color: initial;&quot;&gt;Payload&amp;nbsp;&lt;/span&gt;&lt;/div&gt;&lt;div&gt;ESP-NOW?&lt;/div&gt;" style="rhombus;whiteSpace=wrap;html=1;strokeWidth=2;rounded=0;arcSize=12;fontSize=15;fontStyle=1" vertex="1" parent="1">
          <mxGeometry x="3051.26" y="5" width="151.25" height="130" as="geometry" />
        </mxCell>
        <mxCell id="78xvlDl5y5J7OzJtUHnn-78" value="" style="edgeStyle=orthogonalEdgeStyle;rounded=0;orthogonalLoop=1;jettySize=auto;html=1;entryX=0.5;entryY=0;entryDx=0;entryDy=0;fontSize=15;fontStyle=1" edge="1" parent="1" source="78xvlDl5y5J7OzJtUHnn-79" target="78xvlDl5y5J7OzJtUHnn-92">
          <mxGeometry relative="1" as="geometry">
            <mxPoint x="3126.255" y="315" as="targetPoint" />
          </mxGeometry>
        </mxCell>
        <mxCell id="78xvlDl5y5J7OzJtUHnn-79" value="Mengirim Data ke Node Penerima" style="whiteSpace=wrap;html=1;strokeWidth=2;rounded=0;arcSize=12;fontSize=15;fontStyle=1" vertex="1" parent="1">
          <mxGeometry x="3066.255" y="185" width="120" height="60" as="geometry" />
        </mxCell>
        <mxCell id="78xvlDl5y5J7OzJtUHnn-80" style="edgeStyle=orthogonalEdgeStyle;rounded=0;orthogonalLoop=1;jettySize=auto;html=1;entryX=1;entryY=0.5;entryDx=0;entryDy=0;fontSize=15;fontStyle=1" edge="1" parent="1" source="78xvlDl5y5J7OzJtUHnn-81" target="78xvlDl5y5J7OzJtUHnn-79">
          <mxGeometry relative="1" as="geometry">
            <Array as="points">
              <mxPoint x="3326.26" y="215" />
            </Array>
          </mxGeometry>
        </mxCell>
        <mxCell id="78xvlDl5y5J7OzJtUHnn-81" value="Fragmentasi Data&lt;div&gt;Sesuai Batas Payload&lt;/div&gt;" style="whiteSpace=wrap;html=1;strokeWidth=2;rounded=0;arcSize=12;fontSize=15;fontStyle=1" vertex="1" parent="1">
          <mxGeometry x="3266.27" y="37.5" width="130" height="65" as="geometry" />
        </mxCell>
        <mxCell id="78xvlDl5y5J7OzJtUHnn-82" value="Yes" style="text;html=1;align=center;verticalAlign=middle;whiteSpace=wrap;rounded=0;fontSize=15;fontStyle=1" vertex="1" parent="1">
          <mxGeometry x="3220" y="52.5" width="20" height="10" as="geometry" />
        </mxCell>
        <mxCell id="78xvlDl5y5J7OzJtUHnn-83" value="No" style="text;html=1;align=center;verticalAlign=middle;whiteSpace=wrap;rounded=0;fontSize=15;fontStyle=1" vertex="1" parent="1">
          <mxGeometry x="3130" y="150" width="20" height="10" as="geometry" />
        </mxCell>
        <mxCell id="78xvlDl5y5J7OzJtUHnn-84" value="" style="edgeStyle=orthogonalEdgeStyle;rounded=0;orthogonalLoop=1;jettySize=auto;html=1;fontSize=15;fontStyle=1" edge="1" parent="1" source="78xvlDl5y5J7OzJtUHnn-85" target="78xvlDl5y5J7OzJtUHnn-71">
          <mxGeometry relative="1" as="geometry" />
        </mxCell>
        <mxCell id="78xvlDl5y5J7OzJtUHnn-85" value="&lt;span style=&quot;color: rgb(0, 0, 0); font-family: Helvetica; font-style: normal; font-variant-ligatures: normal; font-variant-caps: normal; letter-spacing: normal; orphans: 2; text-align: center; text-indent: 0px; text-transform: none; widows: 2; word-spacing: 0px; -webkit-text-stroke-width: 0px; white-space: normal; background-color: rgb(251, 251, 251); text-decoration-thickness: initial; text-decoration-style: initial; text-decoration-color: initial; float: none; display: inline !important;&quot;&gt;Inisialisasi AES Key dan Vektor IV&amp;nbsp;&lt;/span&gt;" style="shape=rectangle;whiteSpace=wrap;html=1;fixedSize=1;strokeWidth=2;fontSize=15;fontStyle=1" vertex="1" parent="1">
          <mxGeometry x="2820" y="-10" width="150" height="80" as="geometry" />
        </mxCell>
        <mxCell id="78xvlDl5y5J7OzJtUHnn-86" value="" style="edgeStyle=orthogonalEdgeStyle;rounded=0;orthogonalLoop=1;jettySize=auto;html=1;exitX=0.5;exitY=1;exitDx=0;exitDy=0;fontSize=15;fontStyle=1" edge="1" parent="1" source="78xvlDl5y5J7OzJtUHnn-132" target="78xvlDl5y5J7OzJtUHnn-118">
          <mxGeometry relative="1" as="geometry">
            <mxPoint x="2897.688571428572" y="710" as="sourcePoint" />
          </mxGeometry>
        </mxCell>
        <mxCell id="78xvlDl5y5J7OzJtUHnn-89" value="End" style="strokeWidth=2;html=1;shape=mxgraph.flowchart.terminator;whiteSpace=wrap;fontSize=15;fontStyle=1" vertex="1" parent="1">
          <mxGeometry x="3077.05" y="730" width="100" height="60" as="geometry" />
        </mxCell>
        <mxCell id="78xvlDl5y5J7OzJtUHnn-90" value="" style="edgeStyle=orthogonalEdgeStyle;rounded=0;orthogonalLoop=1;jettySize=auto;html=1;fontSize=15;fontStyle=1" edge="1" parent="1" source="78xvlDl5y5J7OzJtUHnn-92" target="78xvlDl5y5J7OzJtUHnn-94">
          <mxGeometry relative="1" as="geometry" />
        </mxCell>
        <mxCell id="Rq6ZFsT-w6Li2f2uArt0-39" value="" style="edgeStyle=orthogonalEdgeStyle;rounded=0;orthogonalLoop=1;jettySize=auto;html=1;fontSize=15;fontStyle=1" edge="1" parent="1" source="78xvlDl5y5J7OzJtUHnn-92" target="Rq6ZFsT-w6Li2f2uArt0-38">
          <mxGeometry relative="1" as="geometry" />
        </mxCell>
        <mxCell id="78xvlDl5y5J7OzJtUHnn-92" value="&lt;div&gt;Data Terkirim&amp;nbsp;&lt;/div&gt;&lt;div&gt;Semua?&lt;/div&gt;" style="rhombus;whiteSpace=wrap;html=1;strokeWidth=2;rounded=0;arcSize=12;fontSize=15;fontStyle=1" vertex="1" parent="1">
          <mxGeometry x="3050" y="295" width="151.25" height="130" as="geometry" />
        </mxCell>
        <mxCell id="78xvlDl5y5J7OzJtUHnn-93" style="edgeStyle=orthogonalEdgeStyle;rounded=0;orthogonalLoop=1;jettySize=auto;html=1;entryX=0.897;entryY=0.505;entryDx=0;entryDy=0;entryPerimeter=0;fontSize=15;fontStyle=1" edge="1" parent="1" source="78xvlDl5y5J7OzJtUHnn-94" target="Rq6ZFsT-w6Li2f2uArt0-38">
          <mxGeometry relative="1" as="geometry">
            <Array as="points">
              <mxPoint x="3331" y="523" />
            </Array>
            <mxPoint x="3240" y="540" as="targetPoint" />
          </mxGeometry>
        </mxCell>
        <mxCell id="78xvlDl5y5J7OzJtUHnn-94" value="Menampilkan Status&lt;div&gt;Gagal Pengiriman&lt;/div&gt;" style="whiteSpace=wrap;html=1;strokeWidth=2;rounded=0;arcSize=12;fontSize=15;fontStyle=1" vertex="1" parent="1">
          <mxGeometry x="3266.27" y="327.5" width="130" height="65" as="geometry" />
        </mxCell>
        <mxCell id="78xvlDl5y5J7OzJtUHnn-95" value="" style="edgeStyle=orthogonalEdgeStyle;rounded=0;orthogonalLoop=1;jettySize=auto;html=1;fontSize=15;fontStyle=1" edge="1" parent="1" source="78xvlDl5y5J7OzJtUHnn-96" target="78xvlDl5y5J7OzJtUHnn-89">
          <mxGeometry relative="1" as="geometry" />
        </mxCell>
        <mxCell id="78xvlDl5y5J7OzJtUHnn-96" value="Membebaskan Memori Untuk Proses&lt;div&gt;Selanjutnya&lt;/div&gt;" style="whiteSpace=wrap;html=1;strokeWidth=2;rounded=0;arcSize=12;fontSize=15;fontStyle=1" vertex="1" parent="1">
          <mxGeometry x="3060.9300000000003" y="610" width="130.64" height="80" as="geometry" />
        </mxCell>
        <mxCell id="78xvlDl5y5J7OzJtUHnn-97" value="" style="edgeStyle=orthogonalEdgeStyle;rounded=0;orthogonalLoop=1;jettySize=auto;html=1;fontSize=15;fontStyle=1" edge="1" parent="1" source="78xvlDl5y5J7OzJtUHnn-98" target="78xvlDl5y5J7OzJtUHnn-105">
          <mxGeometry relative="1" as="geometry" />
        </mxCell>
        <mxCell id="78xvlDl5y5J7OzJtUHnn-98" value="Start" style="strokeWidth=2;html=1;shape=mxgraph.flowchart.terminator;whiteSpace=wrap;fontSize=15;fontStyle=1" vertex="1" parent="1">
          <mxGeometry x="3794.37" y="-120" width="100" height="60" as="geometry" />
        </mxCell>
        <mxCell id="78xvlDl5y5J7OzJtUHnn-99" value="" style="edgeStyle=orthogonalEdgeStyle;rounded=0;orthogonalLoop=1;jettySize=auto;html=1;fontSize=15;fontStyle=1" edge="1" parent="1" source="78xvlDl5y5J7OzJtUHnn-100">
          <mxGeometry relative="1" as="geometry">
            <mxPoint x="3845.01" y="250" as="targetPoint" />
          </mxGeometry>
        </mxCell>
        <mxCell id="78xvlDl5y5J7OzJtUHnn-100" value="&lt;span style=&quot;color: rgb(0, 0, 0); font-family: Helvetica; font-style: normal; font-variant-ligatures: normal; font-variant-caps: normal; letter-spacing: normal; orphans: 2; text-align: center; text-indent: 0px; text-transform: none; widows: 2; word-spacing: 0px; -webkit-text-stroke-width: 0px; white-space: normal; background-color: rgb(251, 251, 251); text-decoration-thickness: initial; text-decoration-style: initial; text-decoration-color: initial; float: none; display: inline !important;&quot;&gt;Inisialisasi ESP-NOW&lt;/span&gt;&lt;div style=&quot;forced-color-adjust: none; color: rgb(0, 0, 0); font-family: Helvetica; font-style: normal; font-variant-ligatures: normal; font-variant-caps: normal; letter-spacing: normal; orphans: 2; text-align: center; text-indent: 0px; text-transform: none; widows: 2; word-spacing: 0px; -webkit-text-stroke-width: 0px; white-space: normal; background-color: rgb(251, 251, 251); text-decoration-thickness: initial; text-decoration-style: initial; text-decoration-color: initial;&quot;&gt;dan Pairing&lt;/div&gt;" style="whiteSpace=wrap;html=1;strokeWidth=2;rounded=0;arcSize=12;fontSize=15;fontStyle=1" vertex="1" parent="1">
          <mxGeometry x="3770.01" y="120" width="150" height="80" as="geometry" />
        </mxCell>
        <mxCell id="78xvlDl5y5J7OzJtUHnn-101" value="" style="edgeStyle=orthogonalEdgeStyle;rounded=0;orthogonalLoop=1;jettySize=auto;html=1;entryX=0.5;entryY=0;entryDx=0;entryDy=0;fontSize=15;fontStyle=1" edge="1" parent="1">
          <mxGeometry relative="1" as="geometry">
            <mxPoint x="3844.7000000000007" y="492.5" as="targetPoint" />
            <mxPoint x="3844.7" y="442.5" as="sourcePoint" />
          </mxGeometry>
        </mxCell>
        <mxCell id="78xvlDl5y5J7OzJtUHnn-102" value="Input Data&amp;nbsp;&lt;div&gt;Terenkripsi&lt;/div&gt;" style="shape=parallelogram;html=1;strokeWidth=2;perimeter=parallelogramPerimeter;whiteSpace=wrap;rounded=0;arcSize=12;size=0.23;fontSize=15;fontStyle=1" vertex="1" parent="1">
          <mxGeometry x="3769.7" y="370" width="150" height="80" as="geometry" />
        </mxCell>
        <mxCell id="78xvlDl5y5J7OzJtUHnn-104" value="" style="edgeStyle=orthogonalEdgeStyle;rounded=0;orthogonalLoop=1;jettySize=auto;html=1;fontSize=15;fontStyle=1" edge="1" parent="1" source="78xvlDl5y5J7OzJtUHnn-105" target="78xvlDl5y5J7OzJtUHnn-100">
          <mxGeometry relative="1" as="geometry" />
        </mxCell>
        <mxCell id="78xvlDl5y5J7OzJtUHnn-105" value="&lt;span style=&quot;color: rgb(0, 0, 0); font-family: Helvetica; font-style: normal; font-variant-ligatures: normal; font-variant-caps: normal; letter-spacing: normal; orphans: 2; text-align: center; text-indent: 0px; text-transform: none; widows: 2; word-spacing: 0px; -webkit-text-stroke-width: 0px; white-space: normal; background-color: rgb(251, 251, 251); text-decoration-thickness: initial; text-decoration-style: initial; text-decoration-color: initial; float: none; display: inline !important;&quot;&gt;Inisialisasi AES Key, Vektor IV, dan&lt;/span&gt;&lt;div&gt;&lt;span style=&quot;color: rgb(0, 0, 0); font-family: Helvetica; font-style: normal; font-variant-ligatures: normal; font-variant-caps: normal; letter-spacing: normal; orphans: 2; text-align: center; text-indent: 0px; text-transform: none; widows: 2; word-spacing: 0px; -webkit-text-stroke-width: 0px; white-space: normal; background-color: rgb(251, 251, 251); text-decoration-thickness: initial; text-decoration-style: initial; text-decoration-color: initial; float: none; display: inline !important;&quot;&gt;Pin SD Card&lt;/span&gt;&lt;/div&gt;" style="whiteSpace=wrap;html=1;strokeWidth=2;rounded=0;arcSize=12;fontSize=15;fontStyle=1;html=1;strokeWidth=2;rounded=0;arcSize=12;fontSize=15;fontStyle=1" vertex="1" parent="1">
          <mxGeometry x="3770" y="-10" width="150" height="80" as="geometry" />
        </mxCell>
        <mxCell id="78xvlDl5y5J7OzJtUHnn-106" value="" style="edgeStyle=orthogonalEdgeStyle;rounded=0;orthogonalLoop=1;jettySize=auto;html=1;fontSize=15;fontStyle=1" edge="1" parent="1" source="78xvlDl5y5J7OzJtUHnn-107" target="78xvlDl5y5J7OzJtUHnn-102">
          <mxGeometry relative="1" as="geometry" />
        </mxCell>
        <mxCell id="78xvlDl5y5J7OzJtUHnn-107" value="Menunggu&lt;div&gt;&amp;nbsp;Data&amp;nbsp;&lt;span style=&quot;background-color: initial;&quot;&gt;Dikirimkan&lt;/span&gt;&lt;/div&gt;" style="whiteSpace=wrap;html=1;strokeWidth=2;fontSize=15;fontStyle=1" vertex="1" parent="1">
          <mxGeometry x="3777.51" y="250" width="134.99" height="70" as="geometry" />
        </mxCell>
        <mxCell id="78xvlDl5y5J7OzJtUHnn-116" value="" style="edgeStyle=orthogonalEdgeStyle;rounded=0;orthogonalLoop=1;jettySize=auto;html=1;fontSize=15;fontStyle=1" edge="1" parent="1" source="78xvlDl5y5J7OzJtUHnn-117" target="78xvlDl5y5J7OzJtUHnn-77">
          <mxGeometry relative="1" as="geometry" />
        </mxCell>
        <mxCell id="78xvlDl5y5J7OzJtUHnn-117" value="&lt;span&gt;1&lt;/span&gt;" style="ellipse;whiteSpace=wrap;html=1;aspect=fixed;strokeWidth=2;fontSize=15;fontStyle=1" vertex="1" parent="1">
          <mxGeometry x="3091.89" y="-120" width="70" height="70" as="geometry" />
        </mxCell>
        <mxCell id="78xvlDl5y5J7OzJtUHnn-118" value="&lt;span&gt;1&lt;/span&gt;" style="ellipse;whiteSpace=wrap;html=1;aspect=fixed;strokeWidth=2;fontSize=15;fontStyle=1" vertex="1" parent="1">
          <mxGeometry x="2861.42" y="745" width="70" height="70" as="geometry" />
        </mxCell>
        <mxCell id="78xvlDl5y5J7OzJtUHnn-121" value="End" style="strokeWidth=2;html=1;shape=mxgraph.flowchart.terminator;whiteSpace=wrap;fontSize=15;fontStyle=1" vertex="1" parent="1">
          <mxGeometry x="4025.7500000000005" y="568.75" width="100" height="60" as="geometry" />
        </mxCell>
        <mxCell id="78xvlDl5y5J7OzJtUHnn-122" value="" style="edgeStyle=orthogonalEdgeStyle;rounded=0;orthogonalLoop=1;jettySize=auto;html=1;fontSize=15;fontStyle=1" edge="1" parent="1" source="78xvlDl5y5J7OzJtUHnn-123" target="78xvlDl5y5J7OzJtUHnn-121">
          <mxGeometry relative="1" as="geometry" />
        </mxCell>
        <mxCell id="78xvlDl5y5J7OzJtUHnn-123" value="Membebaskan Memori Untuk Proses&lt;div&gt;Selanjutnya&lt;/div&gt;" style="whiteSpace=wrap;html=1;strokeWidth=2;rounded=0;arcSize=12;fontSize=15;fontStyle=1" vertex="1" parent="1">
          <mxGeometry x="4009.6600000000003" y="456.25" width="130.64" height="80" as="geometry" />
        </mxCell>
        <mxCell id="Rq6ZFsT-w6Li2f2uArt0-2" value="" style="edgeStyle=orthogonalEdgeStyle;rounded=0;orthogonalLoop=1;jettySize=auto;html=1;fontSize=15;fontStyle=1" edge="1" parent="1" source="78xvlDl5y5J7OzJtUHnn-125" target="Rq6ZFsT-w6Li2f2uArt0-1">
          <mxGeometry relative="1" as="geometry" />
        </mxCell>
        <mxCell id="78xvlDl5y5J7OzJtUHnn-125" value="Menyimpan Data Terdekripsi Pada Micro SD sesuai index" style="whiteSpace=wrap;html=1;strokeWidth=2;rounded=0;arcSize=12;fontSize=15;fontStyle=1" vertex="1" parent="1">
          <mxGeometry x="4004.1200000000003" y="216.25" width="142.97" height="80" as="geometry" />
        </mxCell>
        <mxCell id="78xvlDl5y5J7OzJtUHnn-126" style="edgeStyle=orthogonalEdgeStyle;rounded=0;orthogonalLoop=1;jettySize=auto;html=1;entryX=0.5;entryY=0;entryDx=0;entryDy=0;fontSize=15;fontStyle=1" edge="1" parent="1" source="78xvlDl5y5J7OzJtUHnn-127" target="78xvlDl5y5J7OzJtUHnn-125">
          <mxGeometry relative="1" as="geometry" />
        </mxCell>
        <mxCell id="78xvlDl5y5J7OzJtUHnn-127" value="Dekripsi dengan AES dan Menghitung Waktu Komputasi" style="rounded=0;whiteSpace=wrap;html=1;strokeWidth=2;fontSize=15;fontStyle=1" vertex="1" parent="1">
          <mxGeometry x="4009.6600000000008" y="101.25" width="130" height="75" as="geometry" />
        </mxCell>
        <mxCell id="78xvlDl5y5J7OzJtUHnn-128" value="&lt;span&gt;1&lt;/span&gt;" style="ellipse;whiteSpace=wrap;html=1;aspect=fixed;strokeWidth=2;fontSize=15;fontStyle=1" vertex="1" parent="1">
          <mxGeometry x="3810.0099999999998" y="792.5" width="70" height="70" as="geometry" />
        </mxCell>
        <mxCell id="78xvlDl5y5J7OzJtUHnn-139" value="" style="edgeStyle=orthogonalEdgeStyle;rounded=0;orthogonalLoop=1;jettySize=auto;html=1;fontSize=15;fontStyle=1" edge="1" parent="1" source="78xvlDl5y5J7OzJtUHnn-130">
          <mxGeometry relative="1" as="geometry">
            <mxPoint x="4075.304347826087" y="-10" as="targetPoint" />
          </mxGeometry>
        </mxCell>
        <mxCell id="78xvlDl5y5J7OzJtUHnn-130" value="&lt;span&gt;1&lt;/span&gt;" style="ellipse;whiteSpace=wrap;html=1;aspect=fixed;strokeWidth=2;fontSize=15;fontStyle=1" vertex="1" parent="1">
          <mxGeometry x="4040.3" y="-120" width="70" height="70" as="geometry" />
        </mxCell>
        <mxCell id="78xvlDl5y5J7OzJtUHnn-131" value="&lt;br&gt;&lt;div&gt;Alokasi Buffer Memori&amp;nbsp;&lt;div&gt;Berdasarkan Data Sensor&lt;/div&gt;&lt;br&gt;&lt;/div&gt;" style="whiteSpace=wrap;html=1;strokeWidth=2;rounded=0;arcSize=12;fontSize=15;fontStyle=1" vertex="1" parent="1">
          <mxGeometry x="2831.1" y="380" width="130.64" height="80" as="geometry" />
        </mxCell>
        <mxCell id="78xvlDl5y5J7OzJtUHnn-132" value="&lt;div&gt;Enkripsi dengan AES dan Menghitung Waktu Komputasi&lt;/div&gt;" style="whiteSpace=wrap;html=1;strokeWidth=2;rounded=0;arcSize=12;fontSize=15;fontStyle=1" vertex="1" parent="1">
          <mxGeometry x="2826.42" y="620" width="140" height="85" as="geometry" />
        </mxCell>
        <mxCell id="78xvlDl5y5J7OzJtUHnn-133" value="" style="endArrow=none;html=1;rounded=0;" edge="1" parent="1">
          <mxGeometry width="50" height="50" relative="1" as="geometry">
            <mxPoint x="2600" y="910" as="sourcePoint" />
            <mxPoint x="2590" y="-240" as="targetPoint" />
          </mxGeometry>
        </mxCell>
        <mxCell id="78xvlDl5y5J7OzJtUHnn-134" value="&lt;font style=&quot;font-size: 55px;&quot;&gt;Chacha&lt;/font&gt;" style="text;html=1;align=center;verticalAlign=middle;whiteSpace=wrap;rounded=0;" vertex="1" parent="1">
          <mxGeometry x="1670" y="-230" width="60" height="30" as="geometry" />
        </mxCell>
        <mxCell id="78xvlDl5y5J7OzJtUHnn-135" value="&lt;font style=&quot;font-size: 55px;&quot;&gt;AES&lt;/font&gt;" style="text;html=1;align=center;verticalAlign=middle;whiteSpace=wrap;rounded=0;" vertex="1" parent="1">
          <mxGeometry x="3540" y="-240" width="60" height="30" as="geometry" />
        </mxCell>
        <mxCell id="Rq6ZFsT-w6Li2f2uArt0-37" value="" style="edgeStyle=orthogonalEdgeStyle;rounded=0;orthogonalLoop=1;jettySize=auto;html=1;fontSize=15;fontStyle=1" edge="1" parent="1" source="78xvlDl5y5J7OzJtUHnn-136" target="78xvlDl5y5J7OzJtUHnn-132">
          <mxGeometry relative="1" as="geometry" />
        </mxCell>
        <mxCell id="78xvlDl5y5J7OzJtUHnn-136" value="Penerapan Padding&amp;nbsp;&lt;div&gt;Pada Data&lt;/div&gt;" style="whiteSpace=wrap;html=1;strokeWidth=2;rounded=0;arcSize=12;fontSize=15;fontStyle=1" vertex="1" parent="1">
          <mxGeometry x="2831.1" y="500" width="130.64" height="80" as="geometry" />
        </mxCell>
        <mxCell id="Rq6ZFsT-w6Li2f2uArt0-46" value="" style="edgeStyle=orthogonalEdgeStyle;rounded=0;orthogonalLoop=1;jettySize=auto;html=1;fontSize=15;fontStyle=1" edge="1" parent="1" source="Rq6ZFsT-w6Li2f2uArt0-1" target="78xvlDl5y5J7OzJtUHnn-123">
          <mxGeometry relative="1" as="geometry" />
        </mxCell>
        <mxCell id="Rq6ZFsT-w6Li2f2uArt0-1" value="Menampilkan Data&amp;nbsp;&lt;div&gt;Terdekripsi,&amp;nbsp;&lt;/div&gt;&lt;div&gt;Waktu Komputasi&lt;/div&gt;" style="shape=parallelogram;html=1;strokeWidth=2;perimeter=parallelogramPerimeter;whiteSpace=wrap;rounded=0;arcSize=12;size=0.23;fontSize=15;fontStyle=1" vertex="1" parent="1">
          <mxGeometry x="3969.8100000000004" y="327.5" width="209.7" height="95" as="geometry" />
        </mxCell>
        <mxCell id="Rq6ZFsT-w6Li2f2uArt0-3" value="" style="edgeStyle=orthogonalEdgeStyle;rounded=0;orthogonalLoop=1;jettySize=auto;html=1;fontSize=15;fontStyle=1" edge="1" parent="1" source="Rq6ZFsT-w6Li2f2uArt0-4" target="Rq6ZFsT-w6Li2f2uArt0-11">
          <mxGeometry relative="1" as="geometry" />
        </mxCell>
        <mxCell id="Rq6ZFsT-w6Li2f2uArt0-4" value="Start" style="strokeWidth=2;html=1;shape=mxgraph.flowchart.terminator;whiteSpace=wrap;fontSize=15;fontStyle=1" vertex="1" parent="1">
          <mxGeometry x="2025.62" y="-120" width="100" height="60" as="geometry" />
        </mxCell>
        <mxCell id="Rq6ZFsT-w6Li2f2uArt0-5" value="" style="edgeStyle=orthogonalEdgeStyle;rounded=0;orthogonalLoop=1;jettySize=auto;html=1;fontSize=15;fontStyle=1" edge="1" parent="1" source="Rq6ZFsT-w6Li2f2uArt0-6">
          <mxGeometry relative="1" as="geometry">
            <mxPoint x="2076.26" y="250" as="targetPoint" />
          </mxGeometry>
        </mxCell>
        <mxCell id="Rq6ZFsT-w6Li2f2uArt0-6" value="&lt;span style=&quot;color: rgb(0, 0, 0); font-family: Helvetica; font-style: normal; font-variant-ligatures: normal; font-variant-caps: normal; letter-spacing: normal; orphans: 2; text-align: center; text-indent: 0px; text-transform: none; widows: 2; word-spacing: 0px; -webkit-text-stroke-width: 0px; white-space: normal; background-color: rgb(251, 251, 251); text-decoration-thickness: initial; text-decoration-style: initial; text-decoration-color: initial; float: none; display: inline !important;&quot;&gt;Inisialisasi ESP-NOW&lt;/span&gt;&lt;div style=&quot;forced-color-adjust: none; color: rgb(0, 0, 0); font-family: Helvetica; font-style: normal; font-variant-ligatures: normal; font-variant-caps: normal; letter-spacing: normal; orphans: 2; text-align: center; text-indent: 0px; text-transform: none; widows: 2; word-spacing: 0px; -webkit-text-stroke-width: 0px; white-space: normal; background-color: rgb(251, 251, 251); text-decoration-thickness: initial; text-decoration-style: initial; text-decoration-color: initial;&quot;&gt;dan Pairing&lt;/div&gt;" style="shape=rectangle;whiteSpace=wrap;html=1;fixedSize=1;strokeWidth=2;fontSize=15;fontStyle=1" vertex="1" parent="1">
          <mxGeometry x="2001.2600000000002" y="120" width="150" height="80" as="geometry" />
        </mxCell>
        <mxCell id="Rq6ZFsT-w6Li2f2uArt0-7" value="" style="edgeStyle=orthogonalEdgeStyle;rounded=0;orthogonalLoop=1;jettySize=auto;html=1;fontSize=15;fontStyle=1" edge="1" parent="1" source="Rq6ZFsT-w6Li2f2uArt0-8">
          <mxGeometry relative="1" as="geometry">
            <mxPoint x="2077.52" y="490" as="targetPoint" />
          </mxGeometry>
        </mxCell>
        <mxCell id="Rq6ZFsT-w6Li2f2uArt0-8" value="Input Data&amp;nbsp;&lt;div&gt;Terenkripsi&lt;/div&gt;" style="shape=parallelogram;html=1;strokeWidth=2;perimeter=parallelogramPerimeter;whiteSpace=wrap;rounded=0;arcSize=12;size=0.23;fontSize=15;fontStyle=1" vertex="1" parent="1">
          <mxGeometry x="2002.1999999999998" y="370" width="150" height="80" as="geometry" />
        </mxCell>
        <mxCell id="Rq6ZFsT-w6Li2f2uArt0-9" value="" style="edgeStyle=orthogonalEdgeStyle;rounded=0;orthogonalLoop=1;jettySize=auto;html=1;fontSize=15;fontStyle=1" edge="1" parent="1">
          <mxGeometry relative="1" as="geometry">
            <mxPoint x="2076.59" y="860" as="sourcePoint" />
            <mxPoint x="2076.59" y="910" as="targetPoint" />
          </mxGeometry>
        </mxCell>
        <mxCell id="Rq6ZFsT-w6Li2f2uArt0-10" value="" style="edgeStyle=orthogonalEdgeStyle;rounded=0;orthogonalLoop=1;jettySize=auto;html=1;fontSize=15;fontStyle=1" edge="1" parent="1" source="Rq6ZFsT-w6Li2f2uArt0-11" target="Rq6ZFsT-w6Li2f2uArt0-6">
          <mxGeometry relative="1" as="geometry" />
        </mxCell>
        <mxCell id="Rq6ZFsT-w6Li2f2uArt0-11" value="&lt;span style=&quot;color: rgb(0, 0, 0); font-family: Helvetica; font-style: normal; font-variant-ligatures: normal; font-variant-caps: normal; letter-spacing: normal; orphans: 2; text-align: center; text-indent: 0px; text-transform: none; widows: 2; word-spacing: 0px; -webkit-text-stroke-width: 0px; white-space: normal; background-color: rgb(251, 251, 251); text-decoration-thickness: initial; text-decoration-style: initial; text-decoration-color: initial; float: none; display: inline !important;&quot;&gt;Inisialisasi Key&amp;nbsp;&lt;/span&gt;Nonce,&amp;nbsp;&lt;div&gt;dan Pin SD Card&lt;/div&gt;" style="shape=rectangle;whiteSpace=wrap;html=1;fixedSize=1;strokeWidth=2;fontSize=15;fontStyle=1" vertex="1" parent="1">
          <mxGeometry x="2001.25" y="-10" width="150" height="80" as="geometry" />
        </mxCell>
        <mxCell id="Rq6ZFsT-w6Li2f2uArt0-12" value="" style="edgeStyle=orthogonalEdgeStyle;rounded=0;orthogonalLoop=1;jettySize=auto;html=1;fontSize=15;fontStyle=1" edge="1" parent="1" source="Rq6ZFsT-w6Li2f2uArt0-13" target="Rq6ZFsT-w6Li2f2uArt0-8">
          <mxGeometry relative="1" as="geometry" />
        </mxCell>
        <mxCell id="Rq6ZFsT-w6Li2f2uArt0-13" value="Menunggu&lt;div&gt;&amp;nbsp;Data&amp;nbsp;&lt;span style=&quot;background-color: initial;&quot;&gt;Dikirimkan&lt;/span&gt;&lt;/div&gt;" style="whiteSpace=wrap;html=1;strokeWidth=2;fontSize=15;fontStyle=1" vertex="1" parent="1">
          <mxGeometry x="2016.2600000000002" y="250" width="120" height="60" as="geometry" />
        </mxCell>
        <mxCell id="Rq6ZFsT-w6Li2f2uArt0-14" value="" style="edgeStyle=orthogonalEdgeStyle;rounded=0;orthogonalLoop=1;jettySize=auto;html=1;fontSize=15;fontStyle=1" edge="1" parent="1" source="Rq6ZFsT-w6Li2f2uArt0-16">
          <mxGeometry relative="1" as="geometry">
            <mxPoint x="2075.9124137931035" y="790" as="targetPoint" />
          </mxGeometry>
        </mxCell>
        <mxCell id="Rq6ZFsT-w6Li2f2uArt0-15" value="" style="edgeStyle=orthogonalEdgeStyle;rounded=0;orthogonalLoop=1;jettySize=auto;html=1;entryX=1;entryY=0.5;entryDx=0;entryDy=0;fontSize=15;fontStyle=1" edge="1" parent="1" source="Rq6ZFsT-w6Li2f2uArt0-16" target="Rq6ZFsT-w6Li2f2uArt0-20">
          <mxGeometry relative="1" as="geometry">
            <mxPoint x="2215.955" y="675" as="targetPoint" />
          </mxGeometry>
        </mxCell>
        <mxCell id="Rq6ZFsT-w6Li2f2uArt0-16" value="&lt;div&gt;Fragmen Data &amp;gt; 1?&lt;/div&gt;" style="rhombus;whiteSpace=wrap;html=1;strokeWidth=2;rounded=0;arcSize=12;fontSize=15;fontStyle=1" vertex="1" parent="1">
          <mxGeometry x="2000.9499999999998" y="610" width="151.25" height="130" as="geometry" />
        </mxCell>
        <mxCell id="Rq6ZFsT-w6Li2f2uArt0-17" value="Yes" style="text;html=1;align=center;verticalAlign=middle;whiteSpace=wrap;rounded=0;fontSize=15;fontStyle=1" vertex="1" parent="1">
          <mxGeometry x="1960" y="660" width="20" height="10" as="geometry" />
        </mxCell>
        <mxCell id="Rq6ZFsT-w6Li2f2uArt0-18" value="No" style="text;html=1;align=center;verticalAlign=middle;whiteSpace=wrap;rounded=0;fontSize=15;fontStyle=1" vertex="1" parent="1">
          <mxGeometry x="2076.58" y="760" width="20" height="10" as="geometry" />
        </mxCell>
        <mxCell id="Rq6ZFsT-w6Li2f2uArt0-19" style="edgeStyle=orthogonalEdgeStyle;rounded=0;orthogonalLoop=1;jettySize=auto;html=1;fontSize=15;fontStyle=1" edge="1" parent="1" source="Rq6ZFsT-w6Li2f2uArt0-20">
          <mxGeometry relative="1" as="geometry">
            <mxPoint x="2010" y="830" as="targetPoint" />
            <Array as="points">
              <mxPoint x="1870" y="830" />
            </Array>
          </mxGeometry>
        </mxCell>
        <mxCell id="Rq6ZFsT-w6Li2f2uArt0-20" value="Integrasi Data Keseluruhan" style="whiteSpace=wrap;html=1;strokeWidth=2;rounded=0;arcSize=12;fontSize=15;fontStyle=1" vertex="1" parent="1">
          <mxGeometry x="1809.995" y="645" width="120" height="60" as="geometry" />
        </mxCell>
        <mxCell id="Rq6ZFsT-w6Li2f2uArt0-21" value="&lt;br&gt;&lt;div&gt;Alokasi Memori&amp;nbsp;&lt;div&gt;Berdasarkan Data Sensor&lt;/div&gt;&lt;br&gt;&lt;/div&gt;" style="rounded=0;whiteSpace=wrap;html=1;strokeWidth=2;fontSize=15;fontStyle=1" vertex="1" parent="1">
          <mxGeometry x="2011.58" y="790" width="130" height="75" as="geometry" />
        </mxCell>
        <mxCell id="Rq6ZFsT-w6Li2f2uArt0-22" style="edgeStyle=orthogonalEdgeStyle;rounded=0;orthogonalLoop=1;jettySize=auto;html=1;entryX=0.5;entryY=0;entryDx=0;entryDy=0;fontSize=15;fontStyle=1" edge="1" parent="1" source="Rq6ZFsT-w6Li2f2uArt0-23" target="Rq6ZFsT-w6Li2f2uArt0-30">
          <mxGeometry relative="1" as="geometry" />
        </mxCell>
        <mxCell id="Rq6ZFsT-w6Li2f2uArt0-23" value="&lt;span style=&quot;color: rgb(0, 0, 0); font-family: Helvetica; font-style: normal; font-variant-ligatures: normal; font-variant-caps: normal; letter-spacing: normal; orphans: 2; text-align: center; text-indent: 0px; text-transform: none; widows: 2; word-spacing: 0px; -webkit-text-stroke-width: 0px; white-space: normal; background-color: rgb(251, 251, 251); text-decoration-thickness: initial; text-decoration-style: initial; text-decoration-color: initial; float: none; display: inline !important;&quot;&gt;Inisialisasi State ChaCha20&lt;/span&gt;" style="shape=rectangle;whiteSpace=wrap;html=1;fixedSize=1;strokeWidth=2;fontSize=15;fontStyle=1" vertex="1" parent="1">
          <mxGeometry x="2242.6600000000003" y="-10" width="127.79" height="80" as="geometry" />
        </mxCell>
        <mxCell id="Rq6ZFsT-w6Li2f2uArt0-24" value="End" style="strokeWidth=2;html=1;shape=mxgraph.flowchart.terminator;whiteSpace=wrap;fontSize=15;fontStyle=1" vertex="1" parent="1">
          <mxGeometry x="2257.32" y="595" width="100" height="60" as="geometry" />
        </mxCell>
        <mxCell id="Rq6ZFsT-w6Li2f2uArt0-25" value="" style="edgeStyle=orthogonalEdgeStyle;rounded=0;orthogonalLoop=1;jettySize=auto;html=1;fontSize=15;fontStyle=1" edge="1" parent="1" source="Rq6ZFsT-w6Li2f2uArt0-26" target="Rq6ZFsT-w6Li2f2uArt0-24">
          <mxGeometry relative="1" as="geometry" />
        </mxCell>
        <mxCell id="Rq6ZFsT-w6Li2f2uArt0-26" value="Membebaskan Memori Untuk Proses&lt;div&gt;Selanjutnya&lt;/div&gt;" style="whiteSpace=wrap;html=1;strokeWidth=2;rounded=0;arcSize=12;fontSize=15;fontStyle=1" vertex="1" parent="1">
          <mxGeometry x="2241.23" y="475" width="130.64" height="80" as="geometry" />
        </mxCell>
        <mxCell id="Rq6ZFsT-w6Li2f2uArt0-27" value="" style="edgeStyle=orthogonalEdgeStyle;rounded=0;orthogonalLoop=1;jettySize=auto;html=1;fontSize=15;fontStyle=1" edge="1" parent="1" source="Rq6ZFsT-w6Li2f2uArt0-28" target="Rq6ZFsT-w6Li2f2uArt0-36">
          <mxGeometry relative="1" as="geometry" />
        </mxCell>
        <mxCell id="Rq6ZFsT-w6Li2f2uArt0-28" value="Menyimpan Data Terdekripsi Pada Micro SD sesuai index" style="whiteSpace=wrap;html=1;strokeWidth=2;rounded=0;arcSize=12;fontSize=15;fontStyle=1" vertex="1" parent="1">
          <mxGeometry x="2235.07" y="230" width="142.97" height="80" as="geometry" />
        </mxCell>
        <mxCell id="Rq6ZFsT-w6Li2f2uArt0-29" style="edgeStyle=orthogonalEdgeStyle;rounded=0;orthogonalLoop=1;jettySize=auto;html=1;entryX=0.5;entryY=0;entryDx=0;entryDy=0;fontSize=15;fontStyle=1" edge="1" parent="1" source="Rq6ZFsT-w6Li2f2uArt0-30" target="Rq6ZFsT-w6Li2f2uArt0-28">
          <mxGeometry relative="1" as="geometry" />
        </mxCell>
        <mxCell id="Rq6ZFsT-w6Li2f2uArt0-30" value="Dekripsi Dengan ChaCha20 dan Menghitung Waktu Komputasi" style="rounded=0;whiteSpace=wrap;html=1;strokeWidth=2;fontSize=15;fontStyle=1" vertex="1" parent="1">
          <mxGeometry x="2222.95" y="112.5" width="168.75" height="75" as="geometry" />
        </mxCell>
        <mxCell id="Rq6ZFsT-w6Li2f2uArt0-31" value="&lt;span&gt;1&lt;/span&gt;" style="ellipse;whiteSpace=wrap;html=1;aspect=fixed;strokeWidth=2;fontSize=15;fontStyle=1" vertex="1" parent="1">
          <mxGeometry x="2039.37" y="910" width="70" height="70" as="geometry" />
        </mxCell>
        <mxCell id="Rq6ZFsT-w6Li2f2uArt0-32" value="" style="edgeStyle=orthogonalEdgeStyle;rounded=0;orthogonalLoop=1;jettySize=auto;html=1;fontSize=15;fontStyle=1" edge="1" parent="1" source="Rq6ZFsT-w6Li2f2uArt0-33" target="Rq6ZFsT-w6Li2f2uArt0-23">
          <mxGeometry relative="1" as="geometry" />
        </mxCell>
        <mxCell id="Rq6ZFsT-w6Li2f2uArt0-33" value="&lt;span&gt;1&lt;/span&gt;" style="ellipse;whiteSpace=wrap;html=1;aspect=fixed;strokeWidth=2;fontSize=15;fontStyle=1" vertex="1" parent="1">
          <mxGeometry x="2271.55" y="-120" width="70" height="70" as="geometry" />
        </mxCell>
        <mxCell id="Rq6ZFsT-w6Li2f2uArt0-34" value="" style="edgeStyle=orthogonalEdgeStyle;rounded=0;orthogonalLoop=1;jettySize=auto;html=1;fontSize=15;fontStyle=1" edge="1" parent="1" source="Rq6ZFsT-w6Li2f2uArt0-35" target="Rq6ZFsT-w6Li2f2uArt0-16">
          <mxGeometry relative="1" as="geometry" />
        </mxCell>
        <mxCell id="Rq6ZFsT-w6Li2f2uArt0-35" value="&lt;br&gt;&lt;div&gt;Alokasi Buffer Memori&amp;nbsp;&lt;div&gt;Berdasarkan Data Sensor&lt;/div&gt;&lt;br&gt;&lt;/div&gt;" style="whiteSpace=wrap;html=1;strokeWidth=2;rounded=0;arcSize=12;fontSize=15;fontStyle=1" vertex="1" parent="1">
          <mxGeometry x="2011.88" y="490" width="130.64" height="80" as="geometry" />
        </mxCell>
        <mxCell id="Rq6ZFsT-w6Li2f2uArt0-211" style="edgeStyle=orthogonalEdgeStyle;rounded=0;orthogonalLoop=1;jettySize=auto;html=1;entryX=0.5;entryY=0;entryDx=0;entryDy=0;fontSize=15;fontStyle=1" edge="1" parent="1" source="Rq6ZFsT-w6Li2f2uArt0-36" target="Rq6ZFsT-w6Li2f2uArt0-26">
          <mxGeometry relative="1" as="geometry" />
        </mxCell>
        <mxCell id="Rq6ZFsT-w6Li2f2uArt0-36" value="Menampilkan Data&amp;nbsp;&lt;div&gt;Terdekripsi,&amp;nbsp;&lt;/div&gt;&lt;div&gt;Waktu Komputasi&lt;/div&gt;" style="shape=parallelogram;html=1;strokeWidth=2;perimeter=parallelogramPerimeter;whiteSpace=wrap;rounded=0;arcSize=12;size=0.23;fontSize=15;fontStyle=1" vertex="1" parent="1">
          <mxGeometry x="2202.95" y="342.5" width="208.75" height="95" as="geometry" />
        </mxCell>
        <mxCell id="Rq6ZFsT-w6Li2f2uArt0-40" value="" style="edgeStyle=orthogonalEdgeStyle;rounded=0;orthogonalLoop=1;jettySize=auto;html=1;fontSize=15;fontStyle=1" edge="1" parent="1" source="Rq6ZFsT-w6Li2f2uArt0-38" target="78xvlDl5y5J7OzJtUHnn-96">
          <mxGeometry relative="1" as="geometry" />
        </mxCell>
        <mxCell id="Rq6ZFsT-w6Li2f2uArt0-38" value="Menampilkan Data&amp;nbsp;&lt;div&gt;Ter-enkripsi dan&lt;/div&gt;&lt;div&gt;&lt;span style=&quot;background-color: initial;&quot;&gt;Waktu Komputasi&lt;/span&gt;&lt;/div&gt;" style="shape=parallelogram;html=1;strokeWidth=2;perimeter=parallelogramPerimeter;whiteSpace=wrap;rounded=0;arcSize=12;size=0.23;fontSize=15;fontStyle=1" vertex="1" parent="1">
          <mxGeometry x="3021.5699999999997" y="475" width="209.38" height="95" as="geometry" />
        </mxCell>
        <mxCell id="Rq6ZFsT-w6Li2f2uArt0-41" value="Yes" style="text;html=1;align=center;verticalAlign=middle;whiteSpace=wrap;rounded=0;fontSize=15;fontStyle=1" vertex="1" parent="1">
          <mxGeometry x="3131.26" y="440" width="20" height="10" as="geometry" />
        </mxCell>
        <mxCell id="Rq6ZFsT-w6Li2f2uArt0-42" value="No" style="text;html=1;align=center;verticalAlign=middle;whiteSpace=wrap;rounded=0;fontSize=15;fontStyle=1" vertex="1" parent="1">
          <mxGeometry x="3220.0000000000005" y="345" width="20" height="10" as="geometry" />
        </mxCell>
        <mxCell id="Rq6ZFsT-w6Li2f2uArt0-47" value="" style="endArrow=none;html=1;rounded=0;" edge="1" parent="1">
          <mxGeometry width="50" height="50" relative="1" as="geometry">
            <mxPoint x="4510" y="900" as="sourcePoint" />
            <mxPoint x="4500" y="-250" as="targetPoint" />
          </mxGeometry>
        </mxCell>
        <mxCell id="Rq6ZFsT-w6Li2f2uArt0-48" value="" style="edgeStyle=orthogonalEdgeStyle;rounded=0;orthogonalLoop=1;jettySize=auto;html=1;fontSize=15;fontStyle=1" edge="1" parent="1" source="Rq6ZFsT-w6Li2f2uArt0-49" target="Rq6ZFsT-w6Li2f2uArt0-65">
          <mxGeometry relative="1" as="geometry" />
        </mxCell>
        <mxCell id="Rq6ZFsT-w6Li2f2uArt0-49" value="Start" style="strokeWidth=2;html=1;shape=mxgraph.flowchart.terminator;whiteSpace=wrap;fontSize=15;fontStyle=1" vertex="1" parent="1">
          <mxGeometry x="4684.37" y="-127.5" width="100" height="60" as="geometry" />
        </mxCell>
        <mxCell id="Rq6ZFsT-w6Li2f2uArt0-50" value="" style="edgeStyle=orthogonalEdgeStyle;rounded=0;orthogonalLoop=1;jettySize=auto;html=1;fontSize=15;fontStyle=1" edge="1" parent="1" source="Rq6ZFsT-w6Li2f2uArt0-51">
          <mxGeometry relative="1" as="geometry">
            <mxPoint x="4735.01" y="242.5" as="targetPoint" />
          </mxGeometry>
        </mxCell>
        <mxCell id="Rq6ZFsT-w6Li2f2uArt0-51" value="&lt;span style=&quot;color: rgb(0, 0, 0); font-family: Helvetica; font-style: normal; font-variant-ligatures: normal; font-variant-caps: normal; letter-spacing: normal; orphans: 2; text-align: center; text-indent: 0px; text-transform: none; widows: 2; word-spacing: 0px; -webkit-text-stroke-width: 0px; white-space: normal; background-color: rgb(251, 251, 251); text-decoration-thickness: initial; text-decoration-style: initial; text-decoration-color: initial; float: none; display: inline !important;&quot;&gt;Inisialisasi ESP-NOW&lt;/span&gt;&lt;div style=&quot;forced-color-adjust: none; color: rgb(0, 0, 0); font-family: Helvetica; font-style: normal; font-variant-ligatures: normal; font-variant-caps: normal; letter-spacing: normal; orphans: 2; text-align: center; text-indent: 0px; text-transform: none; widows: 2; word-spacing: 0px; -webkit-text-stroke-width: 0px; white-space: normal; background-color: rgb(251, 251, 251); text-decoration-thickness: initial; text-decoration-style: initial; text-decoration-color: initial;&quot;&gt;dan Pairing&lt;/div&gt;" style="whiteSpace=wrap;html=1;strokeWidth=2;rounded=0;arcSize=12;fontSize=15;fontStyle=1" vertex="1" parent="1">
          <mxGeometry x="4660.01" y="112.5" width="150" height="80" as="geometry" />
        </mxCell>
        <mxCell id="Rq6ZFsT-w6Li2f2uArt0-52" value="" style="edgeStyle=orthogonalEdgeStyle;rounded=0;orthogonalLoop=1;jettySize=auto;html=1;fontSize=15;fontStyle=1" edge="1" parent="1" source="Rq6ZFsT-w6Li2f2uArt0-53">
          <mxGeometry relative="1" as="geometry">
            <mxPoint x="4740.78" y="472.5" as="targetPoint" />
          </mxGeometry>
        </mxCell>
        <mxCell id="Rq6ZFsT-w6Li2f2uArt0-53" value="Input&amp;nbsp;&lt;div&gt;Data Sensor&lt;/div&gt;" style="shape=parallelogram;html=1;strokeWidth=2;perimeter=parallelogramPerimeter;whiteSpace=wrap;rounded=0;arcSize=12;size=0.23;fontSize=15;fontStyle=1" vertex="1" parent="1">
          <mxGeometry x="4665.78" y="342.5" width="150" height="80" as="geometry" />
        </mxCell>
        <mxCell id="Rq6ZFsT-w6Li2f2uArt0-54" value="" style="edgeStyle=orthogonalEdgeStyle;rounded=0;orthogonalLoop=1;jettySize=auto;html=1;entryX=0.5;entryY=0;entryDx=0;entryDy=0;fontSize=15;fontStyle=1" edge="1" parent="1" target="Rq6ZFsT-w6Li2f2uArt0-110">
          <mxGeometry relative="1" as="geometry">
            <mxPoint x="4740.78" y="542.5" as="sourcePoint" />
            <mxPoint x="4740.78" y="592.5" as="targetPoint" />
          </mxGeometry>
        </mxCell>
        <mxCell id="Rq6ZFsT-w6Li2f2uArt0-55" value="" style="edgeStyle=orthogonalEdgeStyle;rounded=0;orthogonalLoop=1;jettySize=auto;html=1;fontSize=15;fontStyle=1" edge="1" parent="1" source="Rq6ZFsT-w6Li2f2uArt0-57" target="Rq6ZFsT-w6Li2f2uArt0-59">
          <mxGeometry relative="1" as="geometry" />
        </mxCell>
        <mxCell id="Rq6ZFsT-w6Li2f2uArt0-56" value="" style="edgeStyle=orthogonalEdgeStyle;rounded=0;orthogonalLoop=1;jettySize=auto;html=1;fontSize=15;fontStyle=1" edge="1" parent="1" source="Rq6ZFsT-w6Li2f2uArt0-57" target="Rq6ZFsT-w6Li2f2uArt0-61">
          <mxGeometry relative="1" as="geometry" />
        </mxCell>
        <mxCell id="Rq6ZFsT-w6Li2f2uArt0-57" value="&lt;div&gt;&lt;div style=&quot;&quot;&gt;&lt;span style=&quot;background-color: initial;&quot;&gt;Size Data &amp;gt;&amp;nbsp;&lt;/span&gt;&lt;/div&gt;&lt;div style=&quot;&quot;&gt;&lt;span style=&quot;background-color: initial;&quot;&gt;Payload&amp;nbsp;&lt;/span&gt;&lt;/div&gt;&lt;div style=&quot;&quot;&gt;ESP-NOW?&lt;/div&gt;&lt;/div&gt;" style="rhombus;whiteSpace=wrap;html=1;strokeWidth=2;rounded=0;arcSize=12;fontSize=15;fontStyle=1" vertex="1" parent="1">
          <mxGeometry x="4891.26" y="-2.5" width="151.25" height="130" as="geometry" />
        </mxCell>
        <mxCell id="Rq6ZFsT-w6Li2f2uArt0-58" value="" style="edgeStyle=orthogonalEdgeStyle;rounded=0;orthogonalLoop=1;jettySize=auto;html=1;entryX=0.5;entryY=0;entryDx=0;entryDy=0;fontSize=15;fontStyle=1" edge="1" parent="1" source="Rq6ZFsT-w6Li2f2uArt0-59" target="Rq6ZFsT-w6Li2f2uArt0-70">
          <mxGeometry relative="1" as="geometry">
            <mxPoint x="4966.255" y="307.5" as="targetPoint" />
          </mxGeometry>
        </mxCell>
        <mxCell id="Rq6ZFsT-w6Li2f2uArt0-59" value="Mengirim Data ke Node Penerima" style="whiteSpace=wrap;html=1;strokeWidth=2;rounded=0;arcSize=12;fontSize=15;fontStyle=1" vertex="1" parent="1">
          <mxGeometry x="4906.255" y="177.5" width="120" height="60" as="geometry" />
        </mxCell>
        <mxCell id="Rq6ZFsT-w6Li2f2uArt0-60" style="edgeStyle=orthogonalEdgeStyle;rounded=0;orthogonalLoop=1;jettySize=auto;html=1;entryX=1;entryY=0.5;entryDx=0;entryDy=0;fontSize=15;fontStyle=1" edge="1" parent="1" source="Rq6ZFsT-w6Li2f2uArt0-61" target="Rq6ZFsT-w6Li2f2uArt0-59">
          <mxGeometry relative="1" as="geometry">
            <Array as="points">
              <mxPoint x="5166.26" y="207.5" />
            </Array>
          </mxGeometry>
        </mxCell>
        <mxCell id="Rq6ZFsT-w6Li2f2uArt0-61" value="Fragmentasi Data&lt;div&gt;Sesuai Batas Payload&lt;/div&gt;" style="whiteSpace=wrap;html=1;strokeWidth=2;rounded=0;arcSize=12;fontSize=15;fontStyle=1" vertex="1" parent="1">
          <mxGeometry x="5106.27" y="30" width="130" height="65" as="geometry" />
        </mxCell>
        <mxCell id="Rq6ZFsT-w6Li2f2uArt0-62" value="Yes" style="text;html=1;align=center;verticalAlign=middle;whiteSpace=wrap;rounded=0;fontSize=15;fontStyle=1" vertex="1" parent="1">
          <mxGeometry x="5050.62" y="47.5" width="20" height="10" as="geometry" />
        </mxCell>
        <mxCell id="Rq6ZFsT-w6Li2f2uArt0-63" value="No" style="text;html=1;align=center;verticalAlign=middle;whiteSpace=wrap;rounded=0;fontSize=15;fontStyle=1" vertex="1" parent="1">
          <mxGeometry x="4971.26" y="133.75" width="20" height="10" as="geometry" />
        </mxCell>
        <mxCell id="Rq6ZFsT-w6Li2f2uArt0-64" value="" style="edgeStyle=orthogonalEdgeStyle;rounded=0;orthogonalLoop=1;jettySize=auto;html=1;fontSize=15;fontStyle=1" edge="1" parent="1" source="Rq6ZFsT-w6Li2f2uArt0-65" target="Rq6ZFsT-w6Li2f2uArt0-51">
          <mxGeometry relative="1" as="geometry" />
        </mxCell>
        <mxCell id="Rq6ZFsT-w6Li2f2uArt0-65" value="&lt;span style=&quot;color: rgb(0, 0, 0); font-family: Helvetica; font-style: normal; font-variant-ligatures: normal; font-variant-caps: normal; letter-spacing: normal; orphans: 2; text-align: center; text-indent: 0px; text-transform: none; widows: 2; word-spacing: 0px; -webkit-text-stroke-width: 0px; white-space: normal; background-color: rgb(251, 251, 251); text-decoration-thickness: initial; text-decoration-style: initial; text-decoration-color: initial; float: none; display: inline !important;&quot;&gt;Inisialisasi Key dan&lt;/span&gt;&lt;div&gt;&lt;span style=&quot;color: rgb(0, 0, 0); font-family: Helvetica; font-style: normal; font-variant-ligatures: normal; font-variant-caps: normal; letter-spacing: normal; orphans: 2; text-align: center; text-indent: 0px; text-transform: none; widows: 2; word-spacing: 0px; -webkit-text-stroke-width: 0px; white-space: normal; background-color: rgb(251, 251, 251); text-decoration-thickness: initial; text-decoration-style: initial; text-decoration-color: initial; float: none; display: inline !important;&quot;&gt;&amp;nbsp;Snow-V State&lt;/span&gt;&lt;/div&gt;" style="whiteSpace=wrap;html=1;strokeWidth=2;rounded=0;arcSize=12;fontSize=15;fontStyle=1" vertex="1" parent="1">
          <mxGeometry x="4660" y="-17.5" width="150" height="80" as="geometry" />
        </mxCell>
        <mxCell id="Rq6ZFsT-w6Li2f2uArt0-66" value="" style="edgeStyle=orthogonalEdgeStyle;rounded=0;orthogonalLoop=1;jettySize=auto;html=1;exitX=0.5;exitY=1;exitDx=0;exitDy=0;fontSize=15;fontStyle=1" edge="1" parent="1" source="Rq6ZFsT-w6Li2f2uArt0-110" target="Rq6ZFsT-w6Li2f2uArt0-96">
          <mxGeometry relative="1" as="geometry">
            <mxPoint x="4741.278571428571" y="687.5" as="sourcePoint" />
          </mxGeometry>
        </mxCell>
        <mxCell id="Rq6ZFsT-w6Li2f2uArt0-67" value="End" style="strokeWidth=2;html=1;shape=mxgraph.flowchart.terminator;whiteSpace=wrap;fontSize=15;fontStyle=1" vertex="1" parent="1">
          <mxGeometry x="4917.05" y="722.5" width="100" height="60" as="geometry" />
        </mxCell>
        <mxCell id="Rq6ZFsT-w6Li2f2uArt0-68" value="" style="edgeStyle=orthogonalEdgeStyle;rounded=0;orthogonalLoop=1;jettySize=auto;html=1;fontSize=15;fontStyle=1" edge="1" parent="1" source="Rq6ZFsT-w6Li2f2uArt0-70" target="Rq6ZFsT-w6Li2f2uArt0-72">
          <mxGeometry relative="1" as="geometry" />
        </mxCell>
        <mxCell id="Rq6ZFsT-w6Li2f2uArt0-69" value="" style="edgeStyle=orthogonalEdgeStyle;rounded=0;orthogonalLoop=1;jettySize=auto;html=1;fontSize=15;fontStyle=1" edge="1" parent="1" source="Rq6ZFsT-w6Li2f2uArt0-70" target="Rq6ZFsT-w6Li2f2uArt0-118">
          <mxGeometry relative="1" as="geometry" />
        </mxCell>
        <mxCell id="Rq6ZFsT-w6Li2f2uArt0-70" value="&lt;div&gt;Data Terkirim&amp;nbsp;&lt;/div&gt;&lt;div&gt;Semua?&lt;/div&gt;" style="rhombus;whiteSpace=wrap;html=1;strokeWidth=2;rounded=0;arcSize=12;fontSize=15;fontStyle=1" vertex="1" parent="1">
          <mxGeometry x="4890" y="287.5" width="151.25" height="130" as="geometry" />
        </mxCell>
        <mxCell id="Rq6ZFsT-w6Li2f2uArt0-71" style="edgeStyle=orthogonalEdgeStyle;rounded=0;orthogonalLoop=1;jettySize=auto;html=1;entryX=0.897;entryY=0.505;entryDx=0;entryDy=0;entryPerimeter=0;fontSize=15;fontStyle=1" edge="1" parent="1" source="Rq6ZFsT-w6Li2f2uArt0-72" target="Rq6ZFsT-w6Li2f2uArt0-118">
          <mxGeometry relative="1" as="geometry">
            <Array as="points">
              <mxPoint x="5171" y="515.5" />
            </Array>
            <mxPoint x="5080" y="532.5" as="targetPoint" />
          </mxGeometry>
        </mxCell>
        <mxCell id="Rq6ZFsT-w6Li2f2uArt0-72" value="Menampilkan Status&lt;div&gt;Gagal Pengiriman&lt;/div&gt;" style="whiteSpace=wrap;html=1;strokeWidth=2;rounded=0;arcSize=12;fontSize=15;fontStyle=1" vertex="1" parent="1">
          <mxGeometry x="5106.27" y="320" width="130" height="65" as="geometry" />
        </mxCell>
        <mxCell id="Rq6ZFsT-w6Li2f2uArt0-73" value="" style="edgeStyle=orthogonalEdgeStyle;rounded=0;orthogonalLoop=1;jettySize=auto;html=1;fontSize=15;fontStyle=1" edge="1" parent="1" source="Rq6ZFsT-w6Li2f2uArt0-74" target="Rq6ZFsT-w6Li2f2uArt0-67">
          <mxGeometry relative="1" as="geometry" />
        </mxCell>
        <mxCell id="Rq6ZFsT-w6Li2f2uArt0-74" value="Membebaskan Memori Untuk Proses&lt;div&gt;Selanjutnya&lt;/div&gt;" style="whiteSpace=wrap;html=1;strokeWidth=2;rounded=0;arcSize=12;fontSize=15;fontStyle=1" vertex="1" parent="1">
          <mxGeometry x="4900.93" y="602.5" width="130.64" height="80" as="geometry" />
        </mxCell>
        <mxCell id="Rq6ZFsT-w6Li2f2uArt0-75" value="" style="edgeStyle=orthogonalEdgeStyle;rounded=0;orthogonalLoop=1;jettySize=auto;html=1;fontSize=15;fontStyle=1" edge="1" parent="1" source="Rq6ZFsT-w6Li2f2uArt0-76" target="Rq6ZFsT-w6Li2f2uArt0-83">
          <mxGeometry relative="1" as="geometry" />
        </mxCell>
        <mxCell id="Rq6ZFsT-w6Li2f2uArt0-76" value="Start" style="strokeWidth=2;html=1;shape=mxgraph.flowchart.terminator;whiteSpace=wrap;fontSize=15;fontStyle=1" vertex="1" parent="1">
          <mxGeometry x="5634.37" y="-127.5" width="100" height="60" as="geometry" />
        </mxCell>
        <mxCell id="Rq6ZFsT-w6Li2f2uArt0-77" value="" style="edgeStyle=orthogonalEdgeStyle;rounded=0;orthogonalLoop=1;jettySize=auto;html=1;fontSize=15;fontStyle=1" edge="1" parent="1" source="Rq6ZFsT-w6Li2f2uArt0-78">
          <mxGeometry relative="1" as="geometry">
            <mxPoint x="5685.01" y="242.5" as="targetPoint" />
          </mxGeometry>
        </mxCell>
        <mxCell id="Rq6ZFsT-w6Li2f2uArt0-78" value="&lt;span style=&quot;color: rgb(0, 0, 0); font-family: Helvetica; font-style: normal; font-variant-ligatures: normal; font-variant-caps: normal; letter-spacing: normal; orphans: 2; text-align: center; text-indent: 0px; text-transform: none; widows: 2; word-spacing: 0px; -webkit-text-stroke-width: 0px; white-space: normal; background-color: rgb(251, 251, 251); text-decoration-thickness: initial; text-decoration-style: initial; text-decoration-color: initial; float: none; display: inline !important;&quot;&gt;Inisialisasi ESP-NOW&lt;/span&gt;&lt;div style=&quot;forced-color-adjust: none; color: rgb(0, 0, 0); font-family: Helvetica; font-style: normal; font-variant-ligatures: normal; font-variant-caps: normal; letter-spacing: normal; orphans: 2; text-align: center; text-indent: 0px; text-transform: none; widows: 2; word-spacing: 0px; -webkit-text-stroke-width: 0px; white-space: normal; background-color: rgb(251, 251, 251); text-decoration-thickness: initial; text-decoration-style: initial; text-decoration-color: initial;&quot;&gt;dan Pairing&lt;/div&gt;" style="whiteSpace=wrap;html=1;strokeWidth=2;rounded=0;arcSize=12;fontSize=15;fontStyle=1" vertex="1" parent="1">
          <mxGeometry x="5610.01" y="112.5" width="150" height="80" as="geometry" />
        </mxCell>
        <mxCell id="Rq6ZFsT-w6Li2f2uArt0-79" value="" style="edgeStyle=orthogonalEdgeStyle;rounded=0;orthogonalLoop=1;jettySize=auto;html=1;fontSize=15;fontStyle=1" edge="1" parent="1" source="Rq6ZFsT-w6Li2f2uArt0-80">
          <mxGeometry relative="1" as="geometry">
            <mxPoint x="5685.320000000001" y="482.5" as="targetPoint" />
          </mxGeometry>
        </mxCell>
        <mxCell id="Rq6ZFsT-w6Li2f2uArt0-80" value="Input Data&amp;nbsp;&lt;div&gt;Terenkripsi&lt;/div&gt;" style="shape=parallelogram;html=1;strokeWidth=2;perimeter=parallelogramPerimeter;whiteSpace=wrap;rounded=0;arcSize=12;size=0.23;fontSize=15;fontStyle=1" vertex="1" parent="1">
          <mxGeometry x="5610" y="362.5" width="150" height="80" as="geometry" />
        </mxCell>
        <mxCell id="Rq6ZFsT-w6Li2f2uArt0-81" value="" style="edgeStyle=orthogonalEdgeStyle;rounded=0;orthogonalLoop=1;jettySize=auto;html=1;fontSize=15;fontStyle=1" edge="1" parent="1">
          <mxGeometry relative="1" as="geometry">
            <mxPoint x="5684.39" y="852.5" as="sourcePoint" />
            <mxPoint x="5684.39" y="902.5" as="targetPoint" />
          </mxGeometry>
        </mxCell>
        <mxCell id="Rq6ZFsT-w6Li2f2uArt0-82" value="" style="edgeStyle=orthogonalEdgeStyle;rounded=0;orthogonalLoop=1;jettySize=auto;html=1;fontSize=15;fontStyle=1" edge="1" parent="1" source="Rq6ZFsT-w6Li2f2uArt0-83" target="Rq6ZFsT-w6Li2f2uArt0-78">
          <mxGeometry relative="1" as="geometry" />
        </mxCell>
        <mxCell id="Rq6ZFsT-w6Li2f2uArt0-83" value="&lt;span style=&quot;color: rgb(0, 0, 0); font-family: Helvetica; font-style: normal; font-variant-ligatures: normal; font-variant-caps: normal; letter-spacing: normal; orphans: 2; text-align: center; text-indent: 0px; text-transform: none; widows: 2; word-spacing: 0px; -webkit-text-stroke-width: 0px; white-space: normal; background-color: rgb(251, 251, 251); text-decoration-thickness: initial; text-decoration-style: initial; text-decoration-color: initial; float: none; display: inline !important;&quot;&gt;Inisialisasi Key,&amp;nbsp;&lt;/span&gt;Pin SD Card, dan&amp;nbsp;&lt;div&gt;Snow-V State&lt;/div&gt;" style="whiteSpace=wrap;html=1;strokeWidth=2;rounded=0;arcSize=12;fontSize=15;fontStyle=1" vertex="1" parent="1">
          <mxGeometry x="5610" y="-17.5" width="150" height="80" as="geometry" />
        </mxCell>
        <mxCell id="Rq6ZFsT-w6Li2f2uArt0-84" value="" style="edgeStyle=orthogonalEdgeStyle;rounded=0;orthogonalLoop=1;jettySize=auto;html=1;fontSize=15;fontStyle=1" edge="1" parent="1" source="Rq6ZFsT-w6Li2f2uArt0-85" target="Rq6ZFsT-w6Li2f2uArt0-80">
          <mxGeometry relative="1" as="geometry" />
        </mxCell>
        <mxCell id="Rq6ZFsT-w6Li2f2uArt0-85" value="Menunggu&lt;div&gt;&amp;nbsp;Data&amp;nbsp;&lt;span style=&quot;background-color: initial;&quot;&gt;Dikirimkan&lt;/span&gt;&lt;/div&gt;" style="whiteSpace=wrap;html=1;strokeWidth=2;fontSize=15;fontStyle=1" vertex="1" parent="1">
          <mxGeometry x="5625.01" y="242.5" width="120" height="60" as="geometry" />
        </mxCell>
        <mxCell id="Rq6ZFsT-w6Li2f2uArt0-86" value="" style="edgeStyle=orthogonalEdgeStyle;rounded=0;orthogonalLoop=1;jettySize=auto;html=1;fontSize=15;fontStyle=1" edge="1" parent="1" source="Rq6ZFsT-w6Li2f2uArt0-88">
          <mxGeometry relative="1" as="geometry">
            <mxPoint x="5683.712413793103" y="782.5" as="targetPoint" />
          </mxGeometry>
        </mxCell>
        <mxCell id="Rq6ZFsT-w6Li2f2uArt0-87" value="" style="edgeStyle=orthogonalEdgeStyle;rounded=0;orthogonalLoop=1;jettySize=auto;html=1;entryX=1;entryY=0.5;entryDx=0;entryDy=0;fontSize=15;fontStyle=1" edge="1" parent="1" source="Rq6ZFsT-w6Li2f2uArt0-88" target="Rq6ZFsT-w6Li2f2uArt0-92">
          <mxGeometry relative="1" as="geometry">
            <mxPoint x="5823.755" y="667.5" as="targetPoint" />
          </mxGeometry>
        </mxCell>
        <mxCell id="Rq6ZFsT-w6Li2f2uArt0-88" value="&lt;div&gt;Fragmen Data&amp;nbsp;&lt;/div&gt;&lt;div&gt;&amp;gt; 1?&lt;/div&gt;" style="rhombus;whiteSpace=wrap;html=1;strokeWidth=2;rounded=0;arcSize=12;fontSize=15;fontStyle=1" vertex="1" parent="1">
          <mxGeometry x="5608.75" y="602.5" width="151.25" height="130" as="geometry" />
        </mxCell>
        <mxCell id="Rq6ZFsT-w6Li2f2uArt0-89" value="Yes" style="text;html=1;align=center;verticalAlign=middle;whiteSpace=wrap;rounded=0;fontSize=15;fontStyle=1" vertex="1" parent="1">
          <mxGeometry x="5567.8" y="652.5" width="20" height="10" as="geometry" />
        </mxCell>
        <mxCell id="Rq6ZFsT-w6Li2f2uArt0-90" value="No" style="text;html=1;align=center;verticalAlign=middle;whiteSpace=wrap;rounded=0;fontSize=15;fontStyle=1" vertex="1" parent="1">
          <mxGeometry x="5684.38" y="752.5" width="20" height="10" as="geometry" />
        </mxCell>
        <mxCell id="Rq6ZFsT-w6Li2f2uArt0-91" style="edgeStyle=orthogonalEdgeStyle;rounded=0;orthogonalLoop=1;jettySize=auto;html=1;fontSize=15;fontStyle=1" edge="1" parent="1" source="Rq6ZFsT-w6Li2f2uArt0-92">
          <mxGeometry relative="1" as="geometry">
            <mxPoint x="5617.8" y="822.5" as="targetPoint" />
            <Array as="points">
              <mxPoint x="5477.8" y="822.5" />
            </Array>
          </mxGeometry>
        </mxCell>
        <mxCell id="Rq6ZFsT-w6Li2f2uArt0-92" value="Integrasi Data Keseluruhan" style="whiteSpace=wrap;html=1;strokeWidth=2;rounded=0;arcSize=12;fontSize=15;fontStyle=1" vertex="1" parent="1">
          <mxGeometry x="5417.795" y="637.5" width="120" height="60" as="geometry" />
        </mxCell>
        <mxCell id="Rq6ZFsT-w6Li2f2uArt0-93" value="&lt;br&gt;&lt;div&gt;Alokasi Memori&amp;nbsp;&lt;div&gt;Berdasarkan Data Sensor&lt;/div&gt;&lt;br&gt;&lt;/div&gt;" style="rounded=0;whiteSpace=wrap;html=1;strokeWidth=2;fontSize=15;fontStyle=1" vertex="1" parent="1">
          <mxGeometry x="5619.38" y="782.5" width="130" height="75" as="geometry" />
        </mxCell>
        <mxCell id="Rq6ZFsT-w6Li2f2uArt0-94" value="" style="edgeStyle=orthogonalEdgeStyle;rounded=0;orthogonalLoop=1;jettySize=auto;html=1;fontSize=15;fontStyle=1" edge="1" parent="1" source="Rq6ZFsT-w6Li2f2uArt0-95" target="Rq6ZFsT-w6Li2f2uArt0-57">
          <mxGeometry relative="1" as="geometry" />
        </mxCell>
        <mxCell id="Rq6ZFsT-w6Li2f2uArt0-95" value="&lt;span&gt;1&lt;/span&gt;" style="ellipse;whiteSpace=wrap;html=1;aspect=fixed;strokeWidth=2;fontSize=15;fontStyle=1" vertex="1" parent="1">
          <mxGeometry x="4931.889999999999" y="-127.5" width="70" height="70" as="geometry" />
        </mxCell>
        <mxCell id="Rq6ZFsT-w6Li2f2uArt0-96" value="&lt;span&gt;1&lt;/span&gt;" style="ellipse;whiteSpace=wrap;html=1;aspect=fixed;strokeWidth=2;fontSize=15;fontStyle=1" vertex="1" parent="1">
          <mxGeometry x="4705.78" y="722.5" width="70" height="70" as="geometry" />
        </mxCell>
        <mxCell id="Rq6ZFsT-w6Li2f2uArt0-99" value="End" style="strokeWidth=2;html=1;shape=mxgraph.flowchart.terminator;whiteSpace=wrap;fontSize=15;fontStyle=1" vertex="1" parent="1">
          <mxGeometry x="5865.750000000001" y="462.5" width="100" height="60" as="geometry" />
        </mxCell>
        <mxCell id="Rq6ZFsT-w6Li2f2uArt0-100" value="" style="edgeStyle=orthogonalEdgeStyle;rounded=0;orthogonalLoop=1;jettySize=auto;html=1;fontSize=15;fontStyle=1" edge="1" parent="1" source="Rq6ZFsT-w6Li2f2uArt0-101" target="Rq6ZFsT-w6Li2f2uArt0-99">
          <mxGeometry relative="1" as="geometry" />
        </mxCell>
        <mxCell id="Rq6ZFsT-w6Li2f2uArt0-101" value="Membebaskan Memori Untuk Proses&lt;div&gt;Selanjutnya&lt;/div&gt;" style="whiteSpace=wrap;html=1;strokeWidth=2;rounded=0;arcSize=12;fontSize=15;fontStyle=1" vertex="1" parent="1">
          <mxGeometry x="5849.660000000001" y="342.5" width="130.64" height="80" as="geometry" />
        </mxCell>
        <mxCell id="Rq6ZFsT-w6Li2f2uArt0-102" value="" style="edgeStyle=orthogonalEdgeStyle;rounded=0;orthogonalLoop=1;jettySize=auto;html=1;fontSize=15;fontStyle=1" edge="1" parent="1" source="Rq6ZFsT-w6Li2f2uArt0-103" target="Rq6ZFsT-w6Li2f2uArt0-116">
          <mxGeometry relative="1" as="geometry" />
        </mxCell>
        <mxCell id="Rq6ZFsT-w6Li2f2uArt0-103" value="Menyimpan Data Terdekripsi Pada Micro SD sesuai index" style="whiteSpace=wrap;html=1;strokeWidth=2;rounded=0;arcSize=12;fontSize=15;fontStyle=1" vertex="1" parent="1">
          <mxGeometry x="5844.12" y="102.5" width="142.97" height="80" as="geometry" />
        </mxCell>
        <mxCell id="Rq6ZFsT-w6Li2f2uArt0-104" style="edgeStyle=orthogonalEdgeStyle;rounded=0;orthogonalLoop=1;jettySize=auto;html=1;entryX=0.5;entryY=0;entryDx=0;entryDy=0;fontSize=15;fontStyle=1" edge="1" parent="1" source="Rq6ZFsT-w6Li2f2uArt0-105" target="Rq6ZFsT-w6Li2f2uArt0-103">
          <mxGeometry relative="1" as="geometry" />
        </mxCell>
        <mxCell id="Rq6ZFsT-w6Li2f2uArt0-105" value="Dekripsi dengan Snow-V dan Menghitung&amp;nbsp;&lt;div&gt;Waktu Komputasi&lt;/div&gt;" style="rounded=0;whiteSpace=wrap;html=1;strokeWidth=2;fontSize=15;fontStyle=1" vertex="1" parent="1">
          <mxGeometry x="5850.3" y="-17.5" width="130" height="75" as="geometry" />
        </mxCell>
        <mxCell id="Rq6ZFsT-w6Li2f2uArt0-106" value="&lt;span&gt;1&lt;/span&gt;" style="ellipse;whiteSpace=wrap;html=1;aspect=fixed;strokeWidth=2;fontSize=15;fontStyle=1" vertex="1" parent="1">
          <mxGeometry x="5647.17" y="902.5" width="70" height="70" as="geometry" />
        </mxCell>
        <mxCell id="Rq6ZFsT-w6Li2f2uArt0-107" value="" style="edgeStyle=orthogonalEdgeStyle;rounded=0;orthogonalLoop=1;jettySize=auto;html=1;fontSize=15;fontStyle=1" edge="1" parent="1" source="Rq6ZFsT-w6Li2f2uArt0-108">
          <mxGeometry relative="1" as="geometry">
            <mxPoint x="5915.285714285716" y="-17.5" as="targetPoint" />
          </mxGeometry>
        </mxCell>
        <mxCell id="Rq6ZFsT-w6Li2f2uArt0-108" value="&lt;span&gt;1&lt;/span&gt;" style="ellipse;whiteSpace=wrap;html=1;aspect=fixed;strokeWidth=2;fontSize=15;fontStyle=1" vertex="1" parent="1">
          <mxGeometry x="5880.3" y="-127.5" width="70" height="70" as="geometry" />
        </mxCell>
        <mxCell id="Rq6ZFsT-w6Li2f2uArt0-109" value="&lt;br&gt;&lt;div&gt;Alokasi Buffer Memori&amp;nbsp;&lt;div&gt;Berdasarkan Data Sensor&lt;/div&gt;&lt;br&gt;&lt;/div&gt;" style="whiteSpace=wrap;html=1;strokeWidth=2;rounded=0;arcSize=12;fontSize=15;fontStyle=1" vertex="1" parent="1">
          <mxGeometry x="4676.87" y="472.5" width="130.64" height="80" as="geometry" />
        </mxCell>
        <mxCell id="Rq6ZFsT-w6Li2f2uArt0-110" value="&lt;div&gt;Enkripsi dengan&amp;nbsp;&lt;/div&gt;&lt;div&gt;Snow-V dan Menghitung Waktu Komputasi&lt;/div&gt;" style="whiteSpace=wrap;html=1;strokeWidth=2;rounded=0;arcSize=12;fontSize=15;fontStyle=1" vertex="1" parent="1">
          <mxGeometry x="4674.38" y="600" width="133.13" height="75" as="geometry" />
        </mxCell>
        <mxCell id="Rq6ZFsT-w6Li2f2uArt0-113" value="" style="edgeStyle=orthogonalEdgeStyle;rounded=0;orthogonalLoop=1;jettySize=auto;html=1;fontSize=15;fontStyle=1" edge="1" parent="1" source="Rq6ZFsT-w6Li2f2uArt0-114" target="Rq6ZFsT-w6Li2f2uArt0-88">
          <mxGeometry relative="1" as="geometry" />
        </mxCell>
        <mxCell id="Rq6ZFsT-w6Li2f2uArt0-114" value="&lt;br&gt;&lt;div&gt;Alokasi Buffer Memori&amp;nbsp;&lt;div&gt;Berdasarkan Data Sensor&lt;/div&gt;&lt;br&gt;&lt;/div&gt;" style="whiteSpace=wrap;html=1;strokeWidth=2;rounded=0;arcSize=12;fontSize=15;fontStyle=1" vertex="1" parent="1">
          <mxGeometry x="5619.68" y="482.5" width="130.64" height="80" as="geometry" />
        </mxCell>
        <mxCell id="Rq6ZFsT-w6Li2f2uArt0-115" value="" style="edgeStyle=orthogonalEdgeStyle;rounded=0;orthogonalLoop=1;jettySize=auto;html=1;fontSize=15;fontStyle=1" edge="1" parent="1" source="Rq6ZFsT-w6Li2f2uArt0-116" target="Rq6ZFsT-w6Li2f2uArt0-101">
          <mxGeometry relative="1" as="geometry" />
        </mxCell>
        <mxCell id="Rq6ZFsT-w6Li2f2uArt0-116" value="Menampilkan Data&amp;nbsp;&lt;div&gt;Terdekripsi,&amp;nbsp;&lt;/div&gt;&lt;div&gt;Waktu Komputasi&lt;/div&gt;" style="shape=parallelogram;html=1;strokeWidth=2;perimeter=parallelogramPerimeter;whiteSpace=wrap;rounded=0;arcSize=12;size=0.23;fontSize=15;fontStyle=1" vertex="1" parent="1">
          <mxGeometry x="5810.13" y="215" width="209.7" height="95" as="geometry" />
        </mxCell>
        <mxCell id="Rq6ZFsT-w6Li2f2uArt0-117" value="" style="edgeStyle=orthogonalEdgeStyle;rounded=0;orthogonalLoop=1;jettySize=auto;html=1;fontSize=15;fontStyle=1" edge="1" parent="1" source="Rq6ZFsT-w6Li2f2uArt0-118" target="Rq6ZFsT-w6Li2f2uArt0-74">
          <mxGeometry relative="1" as="geometry" />
        </mxCell>
        <mxCell id="Rq6ZFsT-w6Li2f2uArt0-118" value="Menampilkan Data&amp;nbsp;&lt;div&gt;Ter-enkripsi dan&lt;/div&gt;&lt;div&gt;&lt;span style=&quot;background-color: initial;&quot;&gt;Waktu Komputasi&lt;/span&gt;&lt;/div&gt;" style="shape=parallelogram;html=1;strokeWidth=2;perimeter=parallelogramPerimeter;whiteSpace=wrap;rounded=0;arcSize=12;size=0.23;fontSize=15;fontStyle=1" vertex="1" parent="1">
          <mxGeometry x="4860.93" y="467.5" width="209.38" height="95" as="geometry" />
        </mxCell>
        <mxCell id="Rq6ZFsT-w6Li2f2uArt0-119" value="Yes" style="text;html=1;align=center;verticalAlign=middle;whiteSpace=wrap;rounded=0;fontSize=15;fontStyle=1" vertex="1" parent="1">
          <mxGeometry x="4971.26" y="432.5" width="20" height="10" as="geometry" />
        </mxCell>
        <mxCell id="Rq6ZFsT-w6Li2f2uArt0-120" value="No" style="text;html=1;align=center;verticalAlign=middle;whiteSpace=wrap;rounded=0;fontSize=15;fontStyle=1" vertex="1" parent="1">
          <mxGeometry x="5060" y="337.5" width="20" height="10" as="geometry" />
        </mxCell>
        <mxCell id="Rq6ZFsT-w6Li2f2uArt0-121" value="&lt;font style=&quot;font-size: 55px;&quot;&gt;Snow-V&lt;/font&gt;" style="text;html=1;align=center;verticalAlign=middle;whiteSpace=wrap;rounded=0;" vertex="1" parent="1">
          <mxGeometry x="5220" y="-252.5" width="220" height="30" as="geometry" />
        </mxCell>
        <mxCell id="Rq6ZFsT-w6Li2f2uArt0-123" style="edgeStyle=orthogonalEdgeStyle;rounded=0;orthogonalLoop=1;jettySize=auto;html=1;entryX=0.5;entryY=0;entryDx=0;entryDy=0;fontSize=15;fontStyle=1" edge="1" parent="1" source="Rq6ZFsT-w6Li2f2uArt0-122" target="Rq6ZFsT-w6Li2f2uArt0-53">
          <mxGeometry relative="1" as="geometry" />
        </mxCell>
        <mxCell id="Rq6ZFsT-w6Li2f2uArt0-122" value="Membuat Keystream" style="whiteSpace=wrap;html=1;strokeWidth=2;rounded=0;arcSize=12;fontSize=15;fontStyle=1" vertex="1" parent="1">
          <mxGeometry x="4675.780000000001" y="242.5" width="130" height="65" as="geometry" />
        </mxCell>
        <mxCell id="Rq6ZFsT-w6Li2f2uArt0-127" style="edgeStyle=orthogonalEdgeStyle;rounded=0;orthogonalLoop=1;jettySize=auto;html=1;entryX=0.5;entryY=0;entryDx=0;entryDy=0;fontSize=15;fontStyle=1" edge="1" parent="1" source="Rq6ZFsT-w6Li2f2uArt0-124" target="rF-1V-lk1p61Df600EiO-24">
          <mxGeometry relative="1" as="geometry" />
        </mxCell>
        <mxCell id="Rq6ZFsT-w6Li2f2uArt0-124" value="Menampilkan Data&amp;nbsp;&lt;div&gt;Ter-enkripsi dan&lt;/div&gt;&lt;div&gt;&lt;span style=&quot;background-color: initial;&quot;&gt;Waktu Komputasi&lt;/span&gt;&lt;/div&gt;" style="shape=parallelogram;html=1;strokeWidth=2;perimeter=parallelogramPerimeter;whiteSpace=wrap;rounded=0;arcSize=12;size=0.23;fontSize=15;fontStyle=1" vertex="1" parent="1">
          <mxGeometry x="1241.89" y="490" width="210" height="95" as="geometry" />
        </mxCell>
        <mxCell id="Rq6ZFsT-w6Li2f2uArt0-128" value="" style="edgeStyle=orthogonalEdgeStyle;rounded=0;orthogonalLoop=1;jettySize=auto;html=1;fontSize=15;fontStyle=1" edge="1" parent="1" source="Rq6ZFsT-w6Li2f2uArt0-129" target="Rq6ZFsT-w6Li2f2uArt0-145">
          <mxGeometry relative="1" as="geometry" />
        </mxCell>
        <mxCell id="Rq6ZFsT-w6Li2f2uArt0-129" value="Start" style="strokeWidth=2;html=1;shape=mxgraph.flowchart.terminator;whiteSpace=wrap;fontSize=15;fontStyle=1" vertex="1" parent="1">
          <mxGeometry x="6354.37" y="-155" width="100" height="60" as="geometry" />
        </mxCell>
        <mxCell id="Rq6ZFsT-w6Li2f2uArt0-130" value="" style="edgeStyle=orthogonalEdgeStyle;rounded=0;orthogonalLoop=1;jettySize=auto;html=1;fontSize=15;fontStyle=1" edge="1" parent="1" source="Rq6ZFsT-w6Li2f2uArt0-131">
          <mxGeometry relative="1" as="geometry">
            <mxPoint x="6405.01" y="215" as="targetPoint" />
          </mxGeometry>
        </mxCell>
        <mxCell id="Rq6ZFsT-w6Li2f2uArt0-131" value="&lt;span style=&quot;color: rgb(0, 0, 0); font-family: Helvetica; font-style: normal; font-variant-ligatures: normal; font-variant-caps: normal; letter-spacing: normal; orphans: 2; text-align: center; text-indent: 0px; text-transform: none; widows: 2; word-spacing: 0px; -webkit-text-stroke-width: 0px; white-space: normal; background-color: rgb(251, 251, 251); text-decoration-thickness: initial; text-decoration-style: initial; text-decoration-color: initial; float: none; display: inline !important;&quot;&gt;Inisialisasi ESP-NOW&lt;/span&gt;&lt;div style=&quot;forced-color-adjust: none; color: rgb(0, 0, 0); font-family: Helvetica; font-style: normal; font-variant-ligatures: normal; font-variant-caps: normal; letter-spacing: normal; orphans: 2; text-align: center; text-indent: 0px; text-transform: none; widows: 2; word-spacing: 0px; -webkit-text-stroke-width: 0px; white-space: normal; background-color: rgb(251, 251, 251); text-decoration-thickness: initial; text-decoration-style: initial; text-decoration-color: initial;&quot;&gt;dan Pairing&lt;/div&gt;" style="rounded=0;whiteSpace=wrap;html=1;strokeWidth=2;fontSize=15;fontStyle=1" vertex="1" parent="1">
          <mxGeometry x="6330.01" y="85" width="150" height="80" as="geometry" />
        </mxCell>
        <mxCell id="Rq6ZFsT-w6Li2f2uArt0-132" value="" style="edgeStyle=orthogonalEdgeStyle;rounded=0;orthogonalLoop=1;jettySize=auto;html=1;fontSize=15;fontStyle=1" edge="1" parent="1" source="Rq6ZFsT-w6Li2f2uArt0-133">
          <mxGeometry relative="1" as="geometry">
            <mxPoint x="6405.01" y="345" as="targetPoint" />
          </mxGeometry>
        </mxCell>
        <mxCell id="Rq6ZFsT-w6Li2f2uArt0-133" value="Input&amp;nbsp;&lt;div&gt;Data Sensor&lt;/div&gt;" style="shape=parallelogram;html=1;strokeWidth=2;perimeter=parallelogramPerimeter;whiteSpace=wrap;rounded=0;arcSize=12;size=0.23;fontSize=15;fontStyle=1" vertex="1" parent="1">
          <mxGeometry x="6330.01" y="215" width="150" height="80" as="geometry" />
        </mxCell>
        <mxCell id="Rq6ZFsT-w6Li2f2uArt0-135" value="" style="edgeStyle=orthogonalEdgeStyle;rounded=0;orthogonalLoop=1;jettySize=auto;html=1;fontSize=15;fontStyle=1" edge="1" parent="1" source="Rq6ZFsT-w6Li2f2uArt0-137" target="Rq6ZFsT-w6Li2f2uArt0-139">
          <mxGeometry relative="1" as="geometry" />
        </mxCell>
        <mxCell id="Rq6ZFsT-w6Li2f2uArt0-136" value="" style="edgeStyle=orthogonalEdgeStyle;rounded=0;orthogonalLoop=1;jettySize=auto;html=1;fontSize=15;fontStyle=1" edge="1" parent="1" source="Rq6ZFsT-w6Li2f2uArt0-137" target="Rq6ZFsT-w6Li2f2uArt0-141">
          <mxGeometry relative="1" as="geometry" />
        </mxCell>
        <mxCell id="Rq6ZFsT-w6Li2f2uArt0-137" value="&lt;div&gt;&lt;div style=&quot;&quot;&gt;&lt;span style=&quot;background-color: initial;&quot;&gt;Size Data &amp;gt;&amp;nbsp;&lt;/span&gt;&lt;/div&gt;&lt;div style=&quot;&quot;&gt;&lt;span style=&quot;background-color: initial;&quot;&gt;Payload&amp;nbsp;&lt;/span&gt;&lt;/div&gt;&lt;div style=&quot;&quot;&gt;ESP-NOW?&lt;/div&gt;&lt;/div&gt;" style="rhombus;whiteSpace=wrap;html=1;strokeWidth=2;rounded=0;arcSize=12;fontSize=15;fontStyle=1" vertex="1" parent="1">
          <mxGeometry x="6561.26" y="62.5" width="151.25" height="130" as="geometry" />
        </mxCell>
        <mxCell id="Rq6ZFsT-w6Li2f2uArt0-138" value="" style="edgeStyle=orthogonalEdgeStyle;rounded=0;orthogonalLoop=1;jettySize=auto;html=1;entryX=0.5;entryY=0;entryDx=0;entryDy=0;fontSize=15;fontStyle=1" edge="1" parent="1" source="Rq6ZFsT-w6Li2f2uArt0-139" target="Rq6ZFsT-w6Li2f2uArt0-150">
          <mxGeometry relative="1" as="geometry">
            <mxPoint x="6636.255" y="372.5" as="targetPoint" />
          </mxGeometry>
        </mxCell>
        <mxCell id="Rq6ZFsT-w6Li2f2uArt0-139" value="Mengirim Data ke Node Penerima" style="whiteSpace=wrap;html=1;strokeWidth=2;rounded=0;arcSize=12;fontSize=15;fontStyle=1" vertex="1" parent="1">
          <mxGeometry x="6576.255" y="242.5" width="120" height="60" as="geometry" />
        </mxCell>
        <mxCell id="Rq6ZFsT-w6Li2f2uArt0-140" style="edgeStyle=orthogonalEdgeStyle;rounded=0;orthogonalLoop=1;jettySize=auto;html=1;entryX=1;entryY=0.5;entryDx=0;entryDy=0;fontSize=15;fontStyle=1" edge="1" parent="1" source="Rq6ZFsT-w6Li2f2uArt0-141" target="Rq6ZFsT-w6Li2f2uArt0-139">
          <mxGeometry relative="1" as="geometry">
            <Array as="points">
              <mxPoint x="6836.26" y="272.5" />
            </Array>
          </mxGeometry>
        </mxCell>
        <mxCell id="Rq6ZFsT-w6Li2f2uArt0-141" value="Fragmentasi Data&lt;div&gt;Sesuai Batas Payload&lt;/div&gt;" style="whiteSpace=wrap;html=1;strokeWidth=2;rounded=0;arcSize=12;fontSize=15;fontStyle=1" vertex="1" parent="1">
          <mxGeometry x="6776.27" y="95" width="130" height="65" as="geometry" />
        </mxCell>
        <mxCell id="Rq6ZFsT-w6Li2f2uArt0-142" value="Yes" style="text;html=1;align=center;verticalAlign=middle;whiteSpace=wrap;rounded=0;fontSize=15;fontStyle=1" vertex="1" parent="1">
          <mxGeometry x="6720.62" y="112.5" width="20" height="10" as="geometry" />
        </mxCell>
        <mxCell id="Rq6ZFsT-w6Li2f2uArt0-143" value="No" style="text;html=1;align=center;verticalAlign=middle;whiteSpace=wrap;rounded=0;fontSize=15;fontStyle=1" vertex="1" parent="1">
          <mxGeometry x="6641.26" y="210" width="20" height="10" as="geometry" />
        </mxCell>
        <mxCell id="Rq6ZFsT-w6Li2f2uArt0-144" value="" style="edgeStyle=orthogonalEdgeStyle;rounded=0;orthogonalLoop=1;jettySize=auto;html=1;fontSize=15;fontStyle=1" edge="1" parent="1" source="Rq6ZFsT-w6Li2f2uArt0-145" target="Rq6ZFsT-w6Li2f2uArt0-131">
          <mxGeometry relative="1" as="geometry" />
        </mxCell>
        <mxCell id="Rq6ZFsT-w6Li2f2uArt0-145" value="&lt;span style=&quot;color: rgb(0, 0, 0); font-family: Helvetica; font-style: normal; font-variant-ligatures: normal; font-variant-caps: normal; letter-spacing: normal; orphans: 2; text-align: center; text-indent: 0px; text-transform: none; widows: 2; word-spacing: 0px; -webkit-text-stroke-width: 0px; white-space: normal; background-color: rgb(251, 251, 251); text-decoration-thickness: initial; text-decoration-style: initial; text-decoration-color: initial; float: none; display: inline !important;&quot;&gt;Inisialisasi Key&lt;/span&gt;" style="rounded=0;whiteSpace=wrap;html=1;strokeWidth=2;fontSize=15;fontStyle=1" vertex="1" parent="1">
          <mxGeometry x="6330" y="-45" width="150" height="80" as="geometry" />
        </mxCell>
        <mxCell id="Rq6ZFsT-w6Li2f2uArt0-146" value="" style="edgeStyle=orthogonalEdgeStyle;rounded=0;orthogonalLoop=1;jettySize=auto;html=1;exitX=0.5;exitY=1;exitDx=0;exitDy=0;fontSize=15;fontStyle=1" edge="1" parent="1" source="Rq6ZFsT-w6Li2f2uArt0-188" target="Rq6ZFsT-w6Li2f2uArt0-176">
          <mxGeometry relative="1" as="geometry">
            <mxPoint x="6406.7585714285715" y="762.5" as="sourcePoint" />
          </mxGeometry>
        </mxCell>
        <mxCell id="Rq6ZFsT-w6Li2f2uArt0-147" value="End" style="strokeWidth=2;html=1;shape=mxgraph.flowchart.terminator;whiteSpace=wrap;fontSize=15;fontStyle=1" vertex="1" parent="1">
          <mxGeometry x="6587.05" y="787.5" width="100" height="60" as="geometry" />
        </mxCell>
        <mxCell id="Rq6ZFsT-w6Li2f2uArt0-148" value="" style="edgeStyle=orthogonalEdgeStyle;rounded=0;orthogonalLoop=1;jettySize=auto;html=1;fontSize=15;fontStyle=1" edge="1" parent="1" source="Rq6ZFsT-w6Li2f2uArt0-150" target="Rq6ZFsT-w6Li2f2uArt0-152">
          <mxGeometry relative="1" as="geometry" />
        </mxCell>
        <mxCell id="Rq6ZFsT-w6Li2f2uArt0-149" value="" style="edgeStyle=orthogonalEdgeStyle;rounded=0;orthogonalLoop=1;jettySize=auto;html=1;fontSize=15;fontStyle=1" edge="1" parent="1" source="Rq6ZFsT-w6Li2f2uArt0-150" target="Rq6ZFsT-w6Li2f2uArt0-194">
          <mxGeometry relative="1" as="geometry" />
        </mxCell>
        <mxCell id="Rq6ZFsT-w6Li2f2uArt0-150" value="&lt;div&gt;Data Terkirim&amp;nbsp;&lt;/div&gt;&lt;div&gt;Semua?&lt;/div&gt;" style="rhombus;whiteSpace=wrap;html=1;strokeWidth=2;rounded=0;arcSize=12;fontSize=15;fontStyle=1" vertex="1" parent="1">
          <mxGeometry x="6560" y="352.5" width="151.25" height="130" as="geometry" />
        </mxCell>
        <mxCell id="Rq6ZFsT-w6Li2f2uArt0-151" style="edgeStyle=orthogonalEdgeStyle;rounded=0;orthogonalLoop=1;jettySize=auto;html=1;entryX=0.897;entryY=0.505;entryDx=0;entryDy=0;entryPerimeter=0;fontSize=15;fontStyle=1" edge="1" parent="1" source="Rq6ZFsT-w6Li2f2uArt0-152" target="Rq6ZFsT-w6Li2f2uArt0-194">
          <mxGeometry relative="1" as="geometry">
            <Array as="points">
              <mxPoint x="6841" y="580.5" />
            </Array>
            <mxPoint x="6750" y="597.5" as="targetPoint" />
          </mxGeometry>
        </mxCell>
        <mxCell id="Rq6ZFsT-w6Li2f2uArt0-152" value="Menampilkan Status&lt;div&gt;Gagal Pengiriman&lt;/div&gt;" style="whiteSpace=wrap;html=1;strokeWidth=2;rounded=0;arcSize=12;fontSize=15;fontStyle=1" vertex="1" parent="1">
          <mxGeometry x="6776.27" y="385" width="130" height="65" as="geometry" />
        </mxCell>
        <mxCell id="Rq6ZFsT-w6Li2f2uArt0-153" value="" style="edgeStyle=orthogonalEdgeStyle;rounded=0;orthogonalLoop=1;jettySize=auto;html=1;fontSize=15;fontStyle=1" edge="1" parent="1" source="Rq6ZFsT-w6Li2f2uArt0-154" target="Rq6ZFsT-w6Li2f2uArt0-147">
          <mxGeometry relative="1" as="geometry" />
        </mxCell>
        <mxCell id="Rq6ZFsT-w6Li2f2uArt0-154" value="Membebaskan Memori Untuk Proses&lt;div&gt;Selanjutnya&lt;/div&gt;" style="whiteSpace=wrap;html=1;strokeWidth=2;rounded=0;arcSize=12;fontSize=15;fontStyle=1" vertex="1" parent="1">
          <mxGeometry x="6570.93" y="667.5" width="130.64" height="80" as="geometry" />
        </mxCell>
        <mxCell id="Rq6ZFsT-w6Li2f2uArt0-155" value="" style="edgeStyle=orthogonalEdgeStyle;rounded=0;orthogonalLoop=1;jettySize=auto;html=1;fontSize=15;fontStyle=1" edge="1" parent="1" source="Rq6ZFsT-w6Li2f2uArt0-156" target="Rq6ZFsT-w6Li2f2uArt0-163">
          <mxGeometry relative="1" as="geometry" />
        </mxCell>
        <mxCell id="Rq6ZFsT-w6Li2f2uArt0-156" value="Start" style="strokeWidth=2;html=1;shape=mxgraph.flowchart.terminator;whiteSpace=wrap;fontSize=15;fontStyle=1" vertex="1" parent="1">
          <mxGeometry x="7304.37" y="-155" width="100" height="60" as="geometry" />
        </mxCell>
        <mxCell id="Rq6ZFsT-w6Li2f2uArt0-157" value="" style="edgeStyle=orthogonalEdgeStyle;rounded=0;orthogonalLoop=1;jettySize=auto;html=1;fontSize=15;fontStyle=1" edge="1" parent="1" source="Rq6ZFsT-w6Li2f2uArt0-158">
          <mxGeometry relative="1" as="geometry">
            <mxPoint x="7355.01" y="215" as="targetPoint" />
          </mxGeometry>
        </mxCell>
        <mxCell id="Rq6ZFsT-w6Li2f2uArt0-158" value="&lt;span style=&quot;color: rgb(0, 0, 0); font-family: Helvetica; font-style: normal; font-variant-ligatures: normal; font-variant-caps: normal; letter-spacing: normal; orphans: 2; text-align: center; text-indent: 0px; text-transform: none; widows: 2; word-spacing: 0px; -webkit-text-stroke-width: 0px; white-space: normal; background-color: rgb(251, 251, 251); text-decoration-thickness: initial; text-decoration-style: initial; text-decoration-color: initial; float: none; display: inline !important;&quot;&gt;Inisialisasi ESP-NOW&lt;/span&gt;&lt;div style=&quot;forced-color-adjust: none; color: rgb(0, 0, 0); font-family: Helvetica; font-style: normal; font-variant-ligatures: normal; font-variant-caps: normal; letter-spacing: normal; orphans: 2; text-align: center; text-indent: 0px; text-transform: none; widows: 2; word-spacing: 0px; -webkit-text-stroke-width: 0px; white-space: normal; background-color: rgb(251, 251, 251); text-decoration-thickness: initial; text-decoration-style: initial; text-decoration-color: initial;&quot;&gt;dan Pairing&lt;/div&gt;" style="whiteSpace=wrap;html=1;fontSize=15;strokeWidth=2;fontStyle=1;" vertex="1" parent="1">
          <mxGeometry x="7280.01" y="85" width="150" height="80" as="geometry" />
        </mxCell>
        <mxCell id="Rq6ZFsT-w6Li2f2uArt0-159" value="" style="edgeStyle=orthogonalEdgeStyle;rounded=0;orthogonalLoop=1;jettySize=auto;html=1;fontSize=15;fontStyle=1" edge="1" parent="1" source="Rq6ZFsT-w6Li2f2uArt0-160">
          <mxGeometry relative="1" as="geometry">
            <mxPoint x="7355.320000000001" y="455" as="targetPoint" />
          </mxGeometry>
        </mxCell>
        <mxCell id="Rq6ZFsT-w6Li2f2uArt0-160" value="Input Data&amp;nbsp;&lt;div&gt;Terenkripsi&lt;/div&gt;" style="shape=parallelogram;html=1;strokeWidth=2;perimeter=parallelogramPerimeter;whiteSpace=wrap;rounded=0;arcSize=12;size=0.23;fontSize=15;fontStyle=1" vertex="1" parent="1">
          <mxGeometry x="7280" y="335" width="150" height="80" as="geometry" />
        </mxCell>
        <mxCell id="Rq6ZFsT-w6Li2f2uArt0-161" value="" style="edgeStyle=orthogonalEdgeStyle;rounded=0;orthogonalLoop=1;jettySize=auto;html=1;fontSize=15;fontStyle=1" edge="1" parent="1">
          <mxGeometry relative="1" as="geometry">
            <mxPoint x="7354.39" y="825" as="sourcePoint" />
            <mxPoint x="7354.39" y="875" as="targetPoint" />
          </mxGeometry>
        </mxCell>
        <mxCell id="Rq6ZFsT-w6Li2f2uArt0-162" value="" style="edgeStyle=orthogonalEdgeStyle;rounded=0;orthogonalLoop=1;jettySize=auto;html=1;fontSize=15;fontStyle=1" edge="1" parent="1" source="Rq6ZFsT-w6Li2f2uArt0-163" target="Rq6ZFsT-w6Li2f2uArt0-158">
          <mxGeometry relative="1" as="geometry" />
        </mxCell>
        <mxCell id="Rq6ZFsT-w6Li2f2uArt0-163" value="Inisialisasi Key" style="whiteSpace=wrap;html=1;fontSize=15;strokeWidth=2;fontStyle=1;" vertex="1" parent="1">
          <mxGeometry x="7280" y="-45" width="150" height="80" as="geometry" />
        </mxCell>
        <mxCell id="Rq6ZFsT-w6Li2f2uArt0-164" value="" style="edgeStyle=orthogonalEdgeStyle;rounded=0;orthogonalLoop=1;jettySize=auto;html=1;fontSize=15;fontStyle=1" edge="1" parent="1" source="Rq6ZFsT-w6Li2f2uArt0-165" target="Rq6ZFsT-w6Li2f2uArt0-160">
          <mxGeometry relative="1" as="geometry" />
        </mxCell>
        <mxCell id="Rq6ZFsT-w6Li2f2uArt0-165" value="Menunggu&lt;div&gt;&amp;nbsp;Data&amp;nbsp;&lt;span style=&quot;background-color: initial;&quot;&gt;Dikirimkan&lt;/span&gt;&lt;/div&gt;" style="whiteSpace=wrap;html=1;strokeWidth=2;fontSize=15;fontStyle=1" vertex="1" parent="1">
          <mxGeometry x="7295.01" y="215" width="120" height="60" as="geometry" />
        </mxCell>
        <mxCell id="Rq6ZFsT-w6Li2f2uArt0-166" value="" style="edgeStyle=orthogonalEdgeStyle;rounded=0;orthogonalLoop=1;jettySize=auto;html=1;fontSize=15;fontStyle=1" edge="1" parent="1" source="Rq6ZFsT-w6Li2f2uArt0-168">
          <mxGeometry relative="1" as="geometry">
            <mxPoint x="7353.712413793103" y="755" as="targetPoint" />
          </mxGeometry>
        </mxCell>
        <mxCell id="Rq6ZFsT-w6Li2f2uArt0-167" value="" style="edgeStyle=orthogonalEdgeStyle;rounded=0;orthogonalLoop=1;jettySize=auto;html=1;entryX=1;entryY=0.5;entryDx=0;entryDy=0;fontSize=15;fontStyle=1" edge="1" parent="1" source="Rq6ZFsT-w6Li2f2uArt0-168" target="Rq6ZFsT-w6Li2f2uArt0-172">
          <mxGeometry relative="1" as="geometry">
            <mxPoint x="7493.755" y="640" as="targetPoint" />
          </mxGeometry>
        </mxCell>
        <mxCell id="Rq6ZFsT-w6Li2f2uArt0-168" value="&lt;div&gt;Fragmen Data &amp;gt; 1?&lt;/div&gt;" style="rhombus;whiteSpace=wrap;html=1;strokeWidth=2;rounded=0;arcSize=12;fontSize=15;fontStyle=1" vertex="1" parent="1">
          <mxGeometry x="7278.75" y="575" width="151.25" height="130" as="geometry" />
        </mxCell>
        <mxCell id="Rq6ZFsT-w6Li2f2uArt0-169" value="Yes" style="text;html=1;align=center;verticalAlign=middle;whiteSpace=wrap;rounded=0;fontSize=15;fontStyle=1" vertex="1" parent="1">
          <mxGeometry x="7237.8" y="625" width="20" height="10" as="geometry" />
        </mxCell>
        <mxCell id="Rq6ZFsT-w6Li2f2uArt0-170" value="No" style="text;html=1;align=center;verticalAlign=middle;whiteSpace=wrap;rounded=0;fontSize=15;fontStyle=1" vertex="1" parent="1">
          <mxGeometry x="7354.38" y="725" width="20" height="10" as="geometry" />
        </mxCell>
        <mxCell id="Rq6ZFsT-w6Li2f2uArt0-171" style="edgeStyle=orthogonalEdgeStyle;rounded=0;orthogonalLoop=1;jettySize=auto;html=1;fontSize=15;fontStyle=1" edge="1" parent="1" source="Rq6ZFsT-w6Li2f2uArt0-172">
          <mxGeometry relative="1" as="geometry">
            <mxPoint x="7287.8" y="795" as="targetPoint" />
            <Array as="points">
              <mxPoint x="7147.8" y="795" />
            </Array>
          </mxGeometry>
        </mxCell>
        <mxCell id="Rq6ZFsT-w6Li2f2uArt0-172" value="Integrasi Data Keseluruhan" style="whiteSpace=wrap;html=1;strokeWidth=2;rounded=0;arcSize=12;fontSize=15;fontStyle=1" vertex="1" parent="1">
          <mxGeometry x="7087.795" y="610" width="120" height="60" as="geometry" />
        </mxCell>
        <mxCell id="Rq6ZFsT-w6Li2f2uArt0-173" value="&lt;br&gt;&lt;div&gt;Alokasi Memori&amp;nbsp;&lt;div&gt;Berdasarkan Data Sensor&lt;/div&gt;&lt;br&gt;&lt;/div&gt;" style="rounded=0;whiteSpace=wrap;html=1;strokeWidth=2;fontSize=15;fontStyle=1" vertex="1" parent="1">
          <mxGeometry x="7289.38" y="755" width="130" height="75" as="geometry" />
        </mxCell>
        <mxCell id="u7DJEswDi7BvrUPU1qzr-9" value="" style="edgeStyle=orthogonalEdgeStyle;rounded=0;orthogonalLoop=1;jettySize=auto;html=1;" edge="1" parent="1" source="Rq6ZFsT-w6Li2f2uArt0-175" target="u7DJEswDi7BvrUPU1qzr-8">
          <mxGeometry relative="1" as="geometry" />
        </mxCell>
        <mxCell id="Rq6ZFsT-w6Li2f2uArt0-175" value="&lt;span&gt;1&lt;/span&gt;" style="ellipse;whiteSpace=wrap;html=1;aspect=fixed;strokeWidth=2;fontSize=15;fontStyle=1" vertex="1" parent="1">
          <mxGeometry x="6601.889999999999" y="-155" width="70" height="70" as="geometry" />
        </mxCell>
        <mxCell id="Rq6ZFsT-w6Li2f2uArt0-176" value="&lt;span&gt;1&lt;/span&gt;" style="ellipse;whiteSpace=wrap;html=1;aspect=fixed;strokeWidth=2;fontSize=15;fontStyle=1" vertex="1" parent="1">
          <mxGeometry x="6371.26" y="797.5" width="70" height="70" as="geometry" />
        </mxCell>
        <mxCell id="Rq6ZFsT-w6Li2f2uArt0-177" value="End" style="strokeWidth=2;html=1;shape=mxgraph.flowchart.terminator;whiteSpace=wrap;fontSize=15;fontStyle=1" vertex="1" parent="1">
          <mxGeometry x="7536.070000000001" y="860" width="100" height="60" as="geometry" />
        </mxCell>
        <mxCell id="Rq6ZFsT-w6Li2f2uArt0-178" value="" style="edgeStyle=orthogonalEdgeStyle;rounded=0;orthogonalLoop=1;jettySize=auto;html=1;fontSize=15;fontStyle=1" edge="1" parent="1" source="Rq6ZFsT-w6Li2f2uArt0-179" target="Rq6ZFsT-w6Li2f2uArt0-177">
          <mxGeometry relative="1" as="geometry" />
        </mxCell>
        <mxCell id="Rq6ZFsT-w6Li2f2uArt0-179" value="Membebaskan Memori Untuk Proses&lt;div&gt;Selanjutnya&lt;/div&gt;" style="whiteSpace=wrap;html=1;strokeWidth=2;rounded=0;arcSize=12;fontSize=15;fontStyle=1" vertex="1" parent="1">
          <mxGeometry x="7519.9800000000005" y="740" width="130.64" height="80" as="geometry" />
        </mxCell>
        <mxCell id="Rq6ZFsT-w6Li2f2uArt0-180" value="" style="edgeStyle=orthogonalEdgeStyle;rounded=0;orthogonalLoop=1;jettySize=auto;html=1;fontSize=15;fontStyle=1" edge="1" parent="1" source="Rq6ZFsT-w6Li2f2uArt0-181" target="Rq6ZFsT-w6Li2f2uArt0-192">
          <mxGeometry relative="1" as="geometry" />
        </mxCell>
        <mxCell id="Rq6ZFsT-w6Li2f2uArt0-181" value="Menyimpan Data Terdekripsi Pada Micro SD sesuai index" style="whiteSpace=wrap;html=1;strokeWidth=2;rounded=0;arcSize=12;fontSize=15;fontStyle=1" vertex="1" parent="1">
          <mxGeometry x="7513.69" y="500" width="142.97" height="80" as="geometry" />
        </mxCell>
        <mxCell id="u7DJEswDi7BvrUPU1qzr-18" value="" style="edgeStyle=orthogonalEdgeStyle;rounded=0;orthogonalLoop=1;jettySize=auto;html=1;fontSize=15;fontStyle=1" edge="1" parent="1" source="Rq6ZFsT-w6Li2f2uArt0-183" target="u7DJEswDi7BvrUPU1qzr-16">
          <mxGeometry relative="1" as="geometry" />
        </mxCell>
        <mxCell id="Rq6ZFsT-w6Li2f2uArt0-183" value="Dekripsi dengan Clefia dan Menghitung&amp;nbsp;&lt;div&gt;Waktu Komputasi&lt;/div&gt;" style="rounded=0;whiteSpace=wrap;html=1;strokeWidth=2;fontSize=15;fontStyle=1" vertex="1" parent="1">
          <mxGeometry x="7520.17" y="287.5" width="130" height="75" as="geometry" />
        </mxCell>
        <mxCell id="Rq6ZFsT-w6Li2f2uArt0-184" value="&lt;span&gt;1&lt;/span&gt;" style="ellipse;whiteSpace=wrap;html=1;aspect=fixed;strokeWidth=2;fontSize=15;fontStyle=1" vertex="1" parent="1">
          <mxGeometry x="7317.17" y="875" width="70" height="70" as="geometry" />
        </mxCell>
        <mxCell id="Rq6ZFsT-w6Li2f2uArt0-185" value="" style="edgeStyle=orthogonalEdgeStyle;rounded=0;orthogonalLoop=1;jettySize=auto;html=1;fontSize=15;fontStyle=1" edge="1" parent="1" source="Rq6ZFsT-w6Li2f2uArt0-186">
          <mxGeometry relative="1" as="geometry">
            <mxPoint x="7585.285714285716" y="-45" as="targetPoint" />
          </mxGeometry>
        </mxCell>
        <mxCell id="Rq6ZFsT-w6Li2f2uArt0-186" value="&lt;span&gt;1&lt;/span&gt;" style="ellipse;whiteSpace=wrap;html=1;aspect=fixed;strokeWidth=2;fontSize=15;fontStyle=1" vertex="1" parent="1">
          <mxGeometry x="7550.3" y="-155" width="70" height="70" as="geometry" />
        </mxCell>
        <mxCell id="Rq6ZFsT-w6Li2f2uArt0-201" value="" style="edgeStyle=orthogonalEdgeStyle;rounded=0;orthogonalLoop=1;jettySize=auto;html=1;fontSize=15;fontStyle=1" edge="1" parent="1" source="Rq6ZFsT-w6Li2f2uArt0-187" target="Rq6ZFsT-w6Li2f2uArt0-199">
          <mxGeometry relative="1" as="geometry" />
        </mxCell>
        <mxCell id="Rq6ZFsT-w6Li2f2uArt0-187" value="&lt;br&gt;&lt;div&gt;Alokasi Buffer Memori&amp;nbsp;&lt;div&gt;Berdasarkan Data Sensor&lt;/div&gt;&lt;br&gt;&lt;/div&gt;" style="whiteSpace=wrap;html=1;strokeWidth=2;rounded=0;arcSize=12;fontSize=15;fontStyle=1" vertex="1" parent="1">
          <mxGeometry x="6341.1" y="345" width="130.64" height="80" as="geometry" />
        </mxCell>
        <mxCell id="Rq6ZFsT-w6Li2f2uArt0-188" value="&lt;div&gt;Enkripsi&amp;nbsp;&amp;nbsp;&lt;/div&gt;&lt;div&gt;Clefia dan Proses&amp;nbsp;&lt;span style=&quot;background-color: initial;&quot;&gt;Key Scheduling&amp;nbsp;&lt;/span&gt;&lt;/div&gt;" style="whiteSpace=wrap;html=1;strokeWidth=2;rounded=0;arcSize=12;fontSize=15;fontStyle=1" vertex="1" parent="1">
          <mxGeometry x="6336.19" y="675" width="140.14" height="85" as="geometry" />
        </mxCell>
        <mxCell id="Rq6ZFsT-w6Li2f2uArt0-189" value="" style="edgeStyle=orthogonalEdgeStyle;rounded=0;orthogonalLoop=1;jettySize=auto;html=1;fontSize=15;fontStyle=1" edge="1" parent="1" source="Rq6ZFsT-w6Li2f2uArt0-190" target="Rq6ZFsT-w6Li2f2uArt0-168">
          <mxGeometry relative="1" as="geometry" />
        </mxCell>
        <mxCell id="Rq6ZFsT-w6Li2f2uArt0-190" value="&lt;br&gt;&lt;div&gt;Alokasi Buffer Memori&amp;nbsp;&lt;div&gt;Berdasarkan Data Sensor&lt;/div&gt;&lt;br&gt;&lt;/div&gt;" style="whiteSpace=wrap;html=1;strokeWidth=2;rounded=0;arcSize=12;fontSize=15;fontStyle=1" vertex="1" parent="1">
          <mxGeometry x="7289.68" y="455" width="130.64" height="80" as="geometry" />
        </mxCell>
        <mxCell id="Rq6ZFsT-w6Li2f2uArt0-191" value="" style="edgeStyle=orthogonalEdgeStyle;rounded=0;orthogonalLoop=1;jettySize=auto;html=1;fontSize=15;fontStyle=1" edge="1" parent="1" source="Rq6ZFsT-w6Li2f2uArt0-192" target="Rq6ZFsT-w6Li2f2uArt0-179">
          <mxGeometry relative="1" as="geometry" />
        </mxCell>
        <mxCell id="Rq6ZFsT-w6Li2f2uArt0-192" value="Menampilkan Data&amp;nbsp;&lt;div&gt;Terdekripsi,&amp;nbsp;&lt;/div&gt;&lt;div&gt;Waktu Komputasi&lt;/div&gt;" style="shape=parallelogram;html=1;strokeWidth=2;perimeter=parallelogramPerimeter;whiteSpace=wrap;rounded=0;arcSize=12;size=0.23;fontSize=15;fontStyle=1" vertex="1" parent="1">
          <mxGeometry x="7470.48" y="615" width="229.38" height="95" as="geometry" />
        </mxCell>
        <mxCell id="Rq6ZFsT-w6Li2f2uArt0-193" value="" style="edgeStyle=orthogonalEdgeStyle;rounded=0;orthogonalLoop=1;jettySize=auto;html=1;fontSize=15;fontStyle=1" edge="1" parent="1" source="Rq6ZFsT-w6Li2f2uArt0-194" target="Rq6ZFsT-w6Li2f2uArt0-154">
          <mxGeometry relative="1" as="geometry" />
        </mxCell>
        <mxCell id="Rq6ZFsT-w6Li2f2uArt0-194" value="Menampilkan Data&amp;nbsp;&lt;div&gt;Ter-enkripsi dan&lt;/div&gt;&lt;div&gt;Waktu Komputasi&lt;/div&gt;" style="shape=parallelogram;html=1;strokeWidth=2;perimeter=parallelogramPerimeter;whiteSpace=wrap;rounded=0;arcSize=12;size=0.23;fontSize=15;fontStyle=1" vertex="1" parent="1">
          <mxGeometry x="6527.97" y="532.5" width="215.32" height="95" as="geometry" />
        </mxCell>
        <mxCell id="Rq6ZFsT-w6Li2f2uArt0-195" value="Yes" style="text;html=1;align=center;verticalAlign=middle;whiteSpace=wrap;rounded=0;fontSize=15;fontStyle=1" vertex="1" parent="1">
          <mxGeometry x="6641.26" y="497.5" width="20" height="10" as="geometry" />
        </mxCell>
        <mxCell id="Rq6ZFsT-w6Li2f2uArt0-196" value="No" style="text;html=1;align=center;verticalAlign=middle;whiteSpace=wrap;rounded=0;fontSize=15;fontStyle=1" vertex="1" parent="1">
          <mxGeometry x="6730" y="402.5" width="20" height="10" as="geometry" />
        </mxCell>
        <mxCell id="Rq6ZFsT-w6Li2f2uArt0-197" value="&lt;span style=&quot;font-size: 55px;&quot;&gt;Clefia&lt;/span&gt;" style="text;html=1;align=center;verticalAlign=middle;whiteSpace=wrap;rounded=0;" vertex="1" parent="1">
          <mxGeometry x="6890" y="-280" width="220" height="30" as="geometry" />
        </mxCell>
        <mxCell id="u7DJEswDi7BvrUPU1qzr-6" value="" style="edgeStyle=orthogonalEdgeStyle;rounded=0;orthogonalLoop=1;jettySize=auto;html=1;" edge="1" parent="1" source="Rq6ZFsT-w6Li2f2uArt0-199" target="u7DJEswDi7BvrUPU1qzr-5">
          <mxGeometry relative="1" as="geometry" />
        </mxCell>
        <mxCell id="Rq6ZFsT-w6Li2f2uArt0-199" value="Padding Data Sesuai&lt;div&gt;Ukuran Block&lt;/div&gt;" style="whiteSpace=wrap;html=1;strokeWidth=2;rounded=0;arcSize=12;fontSize=15;fontStyle=1" vertex="1" parent="1">
          <mxGeometry x="6341.740000000001" y="467.5" width="130" height="65" as="geometry" />
        </mxCell>
        <mxCell id="Rq6ZFsT-w6Li2f2uArt0-200" value="" style="endArrow=none;html=1;rounded=0;" edge="1" parent="1">
          <mxGeometry width="50" height="50" relative="1" as="geometry">
            <mxPoint x="6170" y="910" as="sourcePoint" />
            <mxPoint x="6180" y="-340" as="targetPoint" />
          </mxGeometry>
        </mxCell>
        <mxCell id="u7DJEswDi7BvrUPU1qzr-15" value="" style="edgeStyle=orthogonalEdgeStyle;rounded=0;orthogonalLoop=1;jettySize=auto;html=1;fontSize=15;fontStyle=1" edge="1" parent="1" source="Rq6ZFsT-w6Li2f2uArt0-204" target="u7DJEswDi7BvrUPU1qzr-14">
          <mxGeometry relative="1" as="geometry" />
        </mxCell>
        <mxCell id="Rq6ZFsT-w6Li2f2uArt0-204" value="Padding Data Sesuai&lt;div&gt;Ukuran Block&lt;/div&gt;" style="rounded=0;whiteSpace=wrap;html=1;strokeWidth=2;fontSize=15;fontStyle=1" vertex="1" parent="1">
          <mxGeometry x="7520.75" y="-45" width="130" height="75" as="geometry" />
        </mxCell>
        <mxCell id="Rq6ZFsT-w6Li2f2uArt0-207" value="Yes" style="text;html=1;align=center;verticalAlign=middle;whiteSpace=wrap;rounded=0;fontSize=15;fontStyle=1" vertex="1" parent="1">
          <mxGeometry x="1350" y="452.5" width="20" height="10" as="geometry" />
        </mxCell>
        <mxCell id="Rq6ZFsT-w6Li2f2uArt0-209" value="No" style="text;html=1;align=center;verticalAlign=middle;whiteSpace=wrap;rounded=0;fontSize=15;fontStyle=1" vertex="1" parent="1">
          <mxGeometry x="1446.26" y="360" width="20" height="10" as="geometry" />
        </mxCell>
        <mxCell id="Rq6ZFsT-w6Li2f2uArt0-218" value="" style="edgeStyle=orthogonalEdgeStyle;rounded=0;orthogonalLoop=1;jettySize=auto;html=1;fontSize=15;fontStyle=1" edge="1" parent="1" source="Rq6ZFsT-w6Li2f2uArt0-212" target="78xvlDl5y5J7OzJtUHnn-127">
          <mxGeometry relative="1" as="geometry" />
        </mxCell>
        <mxCell id="Rq6ZFsT-w6Li2f2uArt0-212" value="Penerapan Padding&amp;nbsp;&lt;div&gt;Pada Data&lt;/div&gt;" style="whiteSpace=wrap;html=1;strokeWidth=2;rounded=0;arcSize=12;fontSize=15;fontStyle=1" vertex="1" parent="1">
          <mxGeometry x="4009.98" y="-10" width="130.64" height="80" as="geometry" />
        </mxCell>
        <mxCell id="Rq6ZFsT-w6Li2f2uArt0-219" value="" style="edgeStyle=orthogonalEdgeStyle;rounded=0;orthogonalLoop=1;jettySize=auto;html=1;fontSize=15;fontStyle=1" edge="1" parent="1" source="Rq6ZFsT-w6Li2f2uArt0-221">
          <mxGeometry relative="1" as="geometry">
            <mxPoint x="3843.712413793104" y="670" as="targetPoint" />
          </mxGeometry>
        </mxCell>
        <mxCell id="Rq6ZFsT-w6Li2f2uArt0-220" value="" style="edgeStyle=orthogonalEdgeStyle;rounded=0;orthogonalLoop=1;jettySize=auto;html=1;entryX=1;entryY=0.5;entryDx=0;entryDy=0;fontSize=15;fontStyle=1" edge="1" parent="1" source="Rq6ZFsT-w6Li2f2uArt0-221" target="Rq6ZFsT-w6Li2f2uArt0-225">
          <mxGeometry relative="1" as="geometry">
            <mxPoint x="3983.755" y="555" as="targetPoint" />
          </mxGeometry>
        </mxCell>
        <mxCell id="Rq6ZFsT-w6Li2f2uArt0-221" value="&lt;div&gt;Fragmen Data &amp;gt; 1?&lt;/div&gt;" style="rhombus;whiteSpace=wrap;html=1;strokeWidth=2;rounded=0;arcSize=12;fontSize=15;fontStyle=1" vertex="1" parent="1">
          <mxGeometry x="3768.75" y="490" width="151.25" height="130" as="geometry" />
        </mxCell>
        <mxCell id="Rq6ZFsT-w6Li2f2uArt0-222" value="Yes" style="text;html=1;align=center;verticalAlign=middle;whiteSpace=wrap;rounded=0;fontSize=15;fontStyle=1" vertex="1" parent="1">
          <mxGeometry x="3728.75" y="537.5" width="20" height="10" as="geometry" />
        </mxCell>
        <mxCell id="Rq6ZFsT-w6Li2f2uArt0-223" value="No" style="text;html=1;align=center;verticalAlign=middle;whiteSpace=wrap;rounded=0;fontSize=15;fontStyle=1" vertex="1" parent="1">
          <mxGeometry x="3844.38" y="640" width="20" height="10" as="geometry" />
        </mxCell>
        <mxCell id="Rq6ZFsT-w6Li2f2uArt0-228" style="edgeStyle=orthogonalEdgeStyle;rounded=0;orthogonalLoop=1;jettySize=auto;html=1;entryX=0.008;entryY=0.504;entryDx=0;entryDy=0;fontSize=15;fontStyle=1;entryPerimeter=0;exitX=0.5;exitY=1;exitDx=0;exitDy=0;" edge="1" parent="1" source="Rq6ZFsT-w6Li2f2uArt0-225" target="Rq6ZFsT-w6Li2f2uArt0-226">
          <mxGeometry relative="1" as="geometry">
            <Array as="points">
              <mxPoint x="3650" y="585" />
              <mxPoint x="3650" y="710" />
            </Array>
            <mxPoint x="3642.85" y="587.5" as="sourcePoint" />
            <mxPoint x="3768.7500000000005" y="712.5" as="targetPoint" />
          </mxGeometry>
        </mxCell>
        <mxCell id="Rq6ZFsT-w6Li2f2uArt0-225" value="Integrasi Data Keseluruhan" style="whiteSpace=wrap;html=1;strokeWidth=2;rounded=0;arcSize=12;fontSize=15;fontStyle=1" vertex="1" parent="1">
          <mxGeometry x="3588.755" y="525" width="120" height="60" as="geometry" />
        </mxCell>
        <mxCell id="Rq6ZFsT-w6Li2f2uArt0-230" value="" style="edgeStyle=orthogonalEdgeStyle;rounded=0;orthogonalLoop=1;jettySize=auto;html=1;fontSize=15;fontStyle=1" edge="1" parent="1" source="Rq6ZFsT-w6Li2f2uArt0-226" target="78xvlDl5y5J7OzJtUHnn-128">
          <mxGeometry relative="1" as="geometry" />
        </mxCell>
        <mxCell id="Rq6ZFsT-w6Li2f2uArt0-226" value="&lt;br&gt;&lt;div&gt;Alokasi Memori&amp;nbsp;&lt;div&gt;Berdasarkan Data Sensor&lt;/div&gt;&lt;br&gt;&lt;/div&gt;" style="rounded=0;whiteSpace=wrap;html=1;strokeWidth=2;fontSize=15;fontStyle=1" vertex="1" parent="1">
          <mxGeometry x="3774.7000000000003" y="670" width="140.62" height="80" as="geometry" />
        </mxCell>
        <mxCell id="EZITptPDZynthxZB9Lju-2" value="" style="endArrow=classic;html=1;rounded=0;entryX=0.48;entryY=0.001;entryDx=0;entryDy=0;entryPerimeter=0;" edge="1" parent="1" target="78xvlDl5y5J7OzJtUHnn-65">
          <mxGeometry width="50" height="50" relative="1" as="geometry">
            <mxPoint x="1114.25" y="345" as="sourcePoint" />
            <mxPoint x="1114.25" y="390" as="targetPoint" />
          </mxGeometry>
        </mxCell>
        <mxCell id="u7DJEswDi7BvrUPU1qzr-7" value="" style="edgeStyle=orthogonalEdgeStyle;rounded=0;orthogonalLoop=1;jettySize=auto;html=1;" edge="1" parent="1" source="u7DJEswDi7BvrUPU1qzr-5" target="Rq6ZFsT-w6Li2f2uArt0-188">
          <mxGeometry relative="1" as="geometry" />
        </mxCell>
        <mxCell id="u7DJEswDi7BvrUPU1qzr-5" value="Whitening Awal Pada&lt;div&gt;Blok Input&lt;/div&gt;" style="whiteSpace=wrap;html=1;strokeWidth=2;rounded=0;arcSize=12;fontSize=15;fontStyle=1" vertex="1" parent="1">
          <mxGeometry x="6341.740000000001" y="570" width="130" height="65" as="geometry" />
        </mxCell>
        <mxCell id="u7DJEswDi7BvrUPU1qzr-10" value="" style="edgeStyle=orthogonalEdgeStyle;rounded=0;orthogonalLoop=1;jettySize=auto;html=1;" edge="1" parent="1" source="u7DJEswDi7BvrUPU1qzr-8" target="Rq6ZFsT-w6Li2f2uArt0-137">
          <mxGeometry relative="1" as="geometry" />
        </mxCell>
        <mxCell id="u7DJEswDi7BvrUPU1qzr-8" value="Whitening Akhir Pada&lt;div&gt;Blok Output&amp;nbsp;&lt;/div&gt;&lt;div&gt;dan Menghitung Waktu Komputasi&lt;/div&gt;" style="whiteSpace=wrap;html=1;fontSize=15;strokeWidth=2;fontStyle=1;" vertex="1" parent="1">
          <mxGeometry x="6550.5" y="-42.5" width="173.11" height="80" as="geometry" />
        </mxCell>
        <mxCell id="u7DJEswDi7BvrUPU1qzr-20" value="" style="edgeStyle=orthogonalEdgeStyle;rounded=0;orthogonalLoop=1;jettySize=auto;html=1;fontSize=15;fontStyle=1" edge="1" parent="1" source="u7DJEswDi7BvrUPU1qzr-11" target="Rq6ZFsT-w6Li2f2uArt0-183">
          <mxGeometry relative="1" as="geometry" />
        </mxCell>
        <mxCell id="u7DJEswDi7BvrUPU1qzr-11" value="Whitening Awal Pada&lt;div&gt;Blok Input&lt;/div&gt;" style="whiteSpace=wrap;html=1;strokeWidth=2;rounded=0;arcSize=12;fontSize=15;fontStyle=1" vertex="1" parent="1">
          <mxGeometry x="7521.070000000001" y="185" width="130" height="65" as="geometry" />
        </mxCell>
        <mxCell id="u7DJEswDi7BvrUPU1qzr-21" value="" style="edgeStyle=orthogonalEdgeStyle;rounded=0;orthogonalLoop=1;jettySize=auto;html=1;fontSize=15;fontStyle=1" edge="1" parent="1" source="u7DJEswDi7BvrUPU1qzr-14" target="u7DJEswDi7BvrUPU1qzr-11">
          <mxGeometry relative="1" as="geometry" />
        </mxCell>
        <mxCell id="u7DJEswDi7BvrUPU1qzr-14" value="Proses Key Scheduling" style="rounded=0;whiteSpace=wrap;html=1;strokeWidth=2;fontSize=15;fontStyle=1" vertex="1" parent="1">
          <mxGeometry x="7520.3" y="70" width="130" height="75" as="geometry" />
        </mxCell>
        <mxCell id="u7DJEswDi7BvrUPU1qzr-19" value="" style="edgeStyle=orthogonalEdgeStyle;rounded=0;orthogonalLoop=1;jettySize=auto;html=1;fontSize=15;fontStyle=1" edge="1" parent="1" source="u7DJEswDi7BvrUPU1qzr-16" target="Rq6ZFsT-w6Li2f2uArt0-181">
          <mxGeometry relative="1" as="geometry" />
        </mxCell>
        <mxCell id="u7DJEswDi7BvrUPU1qzr-16" value="Whitening Akhir Pada&lt;div&gt;Blok Output&amp;nbsp;&lt;/div&gt;&lt;div&gt;dan Menghitung Waktu Komputasi&lt;/div&gt;" style="whiteSpace=wrap;html=1;fontSize=15;strokeWidth=2;fontStyle=1;" vertex="1" parent="1">
          <mxGeometry x="7498.75" y="390" width="173.11" height="80" as="geometry" />
        </mxCell>
      </root>
    </mxGraphModel>
  </diagram>
</mxfile>
